<svg width="18" height="18" viewBox="0 0 18 18" fill="none" xmlns="http://www.w3.org/2000/svg">
<path d="M18 9C18 10.78 17.4722 12.5201 16.4832 14.0001C15.4943 15.4802 14.0887 16.6337 12.4442 17.3149C10.7996 17.9961 8.99002 18.1743 7.24419 17.8271C5.49836 17.4798 3.89471 16.6226 2.63604 15.364C1.37737 14.1053 0.520203 12.5016 0.172936 10.7558C-0.17433 9.00998 0.00389957 7.20038 0.685088 5.55585C1.36628 3.91131 2.51983 2.50571 3.99987 1.51677C5.47991 0.527841 7.21997 0 9 0C11.3862 0.00258081 13.6738 0.951621 15.3611 2.63889C17.0484 4.32616 17.9974 6.61384 18 9ZM9.75 3.75H8.25V11.25H9.75V3.75ZM9.75 12.75H8.25V14.25H9.75V12.75Z" fill="#E54B3B"/>
</svg>
