<svg width="24" height="24" viewBox="0 0 24 24" fill="none" xmlns="http://www.w3.org/2000/svg">
<path opacity="0.3" d="M22 12C22 6.47715 17.5228 2 12 2C6.47715 2 2 6.47715 2 12C2 17.5228 6.47715 22 12 22C17.5228 22 22 17.5228 22 12Z" fill="#0A072B"/>
<path d="M10.4344 12.4343L8.75011 10.75C8.3359 10.3358 7.66432 10.3358 7.25011 10.75C6.8359 11.1642 6.8359 11.8358 7.25011 12.25L10.293 15.2929C10.6835 15.6834 11.3167 15.6834 11.7072 15.2929L17.2501 9.75C17.6643 9.33579 17.6643 8.66421 17.2501 8.25C16.8359 7.83579 16.1643 7.83579 15.7501 8.25L11.5658 12.4343C11.2534 12.7467 10.7468 12.7467 10.4344 12.4343Z" fill="#0A072B"/>
</svg>
