<svg width="24" height="24" viewBox="0 0 24 24" fill="none" xmlns="http://www.w3.org/2000/svg">
<g id="Frame">
<path id="Vector" d="M14.4997 20.7259C14.5997 21.2259 14.1997 21.826 13.6997 21.926C13.1997 22.026 12.5997 22.0259 12.0997 22.0259C9.49973 22.0259 6.89973 21.0259 4.99973 19.1259C1.39973 15.5259 1.09971 9.72592 4.29971 5.82592L5.69974 7.22595C3.29974 10.3259 3.59972 14.8259 6.39972 17.7259C8.19972 19.5259 10.7997 20.426 13.3997 19.926C13.8997 19.826 14.3997 20.2259 14.4997 20.7259ZM18.3997 16.8259L19.7997 18.2259C22.8997 14.3259 22.6997 8.52593 18.9997 4.92593C16.6997 2.62593 13.4997 1.62594 10.2997 2.12594C9.79971 2.22594 9.39973 2.72595 9.49973 3.22595C9.59973 3.72595 10.0997 4.12594 10.5997 4.02594C13.0997 3.62594 15.6997 4.42595 17.5997 6.22595C20.4997 9.22595 20.6997 13.7259 18.3997 16.8259Z" fill="#0A072B"/>
<path id="Vector_2" opacity="0.3" d="M2 3.625H7C7.6 3.625 8 4.025 8 4.625V9.62497L2 3.625ZM16 14.425V19.425C16 20.025 16.4 20.425 17 20.425H22L16 14.425Z" fill="#0A072B"/>
</g>
</svg>
