<svg width="24" height="24" viewBox="0 0 24 24" fill="none" xmlns="http://www.w3.org/2000/svg">
<path opacity="0.5" d="M14.8285 7.75698L7.7574 14.828C7.36688 15.2186 7.36688 15.8517 7.7574 16.2423C8.14792 16.6328 8.78109 16.6328 9.17161 16.2423L16.2427 9.1712C16.6332 8.78067 16.6332 8.14751 16.2427 7.75698C15.8522 7.36646 15.219 7.36646 14.8285 7.75698Z" fill="#0A072B"/>
<path d="M16.2425 14.828L9.17146 7.75691C8.78094 7.36639 8.14777 7.36639 7.75725 7.75691C7.36672 8.14744 7.36672 8.7806 7.75725 9.17112L14.8283 16.2422C15.2188 16.6327 15.852 16.6327 16.2425 16.2422C16.6331 15.8517 16.6331 15.2185 16.2425 14.828Z" fill="#0A072B"/>
</svg>
