<svg width="100" height="100" viewBox="0 0 100 100" fill="none" xmlns="http://www.w3.org/2000/svg">
<circle cx="50" cy="50" r="50" fill="#FAE3E3"/>
<path opacity="0.5" d="M59.1427 36.2867L36.2855 59.144C35.0231 60.4063 35.0231 62.453 36.2855 63.7154C37.5479 64.9778 39.5946 64.9778 40.8569 63.7154L63.7142 40.8582C64.9765 39.5958 64.9765 37.5491 63.7142 36.2867C62.4518 35.0244 60.4051 35.0244 59.1427 36.2867Z" fill="#BF2929"/>
<path d="M63.7145 59.143L40.8573 36.2857C39.5949 35.0234 37.5482 35.0234 36.2858 36.2857C35.0234 37.5481 35.0234 39.5948 36.2858 40.8572L59.143 63.7144C60.4054 64.9768 62.4521 64.9768 63.7145 63.7144C64.9769 62.452 64.9769 60.4053 63.7145 59.143Z" fill="#BF2929"/>
</svg>
