<svg width="20" height="20" viewBox="0 0 20 20" fill="none" xmlns="http://www.w3.org/2000/svg">
<g id="Frame">
<g id="Group">
<path id="Vector" d="M15.833 9.1665H4.16634C3.7061 9.1665 3.33301 9.5396 3.33301 9.99984C3.33301 10.4601 3.7061 10.8332 4.16634 10.8332H15.833C16.2932 10.8332 16.6663 10.4601 16.6663 9.99984C16.6663 9.5396 16.2932 9.1665 15.833 9.1665Z" fill="#0A072B"/>
<path id="Vector_2" opacity="0.3" d="M10.833 15.8333L10.833 4.16659C10.833 3.70635 10.4599 3.33325 9.99967 3.33325C9.53944 3.33325 9.16634 3.70635 9.16634 4.16659L9.16634 15.8333C9.16634 16.2935 9.53944 16.6666 9.99967 16.6666C10.4599 16.6666 10.833 16.2935 10.833 15.8333Z" fill="#0A072B"/>
</g>
</g>
</svg>
