<svg width="20" height="20" viewBox="0 0 20 20" fill="none" xmlns="http://www.w3.org/2000/svg">
<path d="M15.8333 9.16663H4.16659C3.70635 9.16663 3.33325 9.53972 3.33325 9.99996C3.33325 10.4602 3.70635 10.8333 4.16659 10.8333H15.8333C16.2935 10.8333 16.6666 10.4602 16.6666 9.99996C16.6666 9.53972 16.2935 9.16663 15.8333 9.16663Z" fill="#0A072B"/>
<path d="M10.6665 15.4998L10.6665 3.83315C10.6665 3.37291 10.2934 2.99982 9.83317 2.99982C9.37293 2.99982 8.99984 3.37291 8.99984 3.83315L8.99984 15.4998C8.99984 15.9601 9.37293 16.3331 9.83317 16.3331C10.2934 16.3331 10.6665 15.9601 10.6665 15.4998Z" fill="#1E1E1E"/>
</svg>
