<svg width="193" height="61" viewBox="0 0 193 61" fill="none" xmlns="http://www.w3.org/2000/svg">
<path d="M0 40.6743L7.29501 40.0362C7.6405 42.9605 8.43777 45.3664 9.68682 47.2539C10.9625 49.1148 12.9291 50.6302 15.5866 51.7999C18.2442 52.943 21.2339 53.5146 24.5559 53.5146C27.5058 53.5146 30.1102 53.0759 32.3691 52.1986C34.6281 51.3214 36.3023 50.125 37.3919 48.6097C38.5081 47.0678 39.0662 45.393 39.0662 43.5853C39.0662 41.7509 38.5347 40.1559 37.4717 38.8001C36.4086 37.4177 34.6546 36.2612 32.2097 35.3308C30.6417 34.7193 27.1736 33.7756 21.8053 32.4995C16.437 31.1969 12.6766 29.974 10.524 28.8309C7.73351 27.3687 5.64732 25.561 4.26539 23.4076C2.91003 21.2277 2.23235 18.7952 2.23235 16.1102C2.23235 13.1593 3.06949 10.4078 4.74375 7.85569C6.41802 5.27699 8.86298 3.32303 12.0786 1.99381C15.2943 0.664582 18.8687 -3.05176e-05 22.8019 -3.05176e-05C27.1337 -3.05176e-05 30.9473 0.704459 34.2427 2.11344C37.5647 3.49583 40.1159 5.54284 41.8965 8.25446C43.6771 10.9661 44.6338 14.0366 44.7667 17.466L37.3521 18.0243C36.9534 14.329 35.5981 11.5376 33.286 9.65014C31.0005 7.76264 27.6121 6.81889 23.1208 6.81889C18.4435 6.81889 15.0285 7.68289 12.8759 9.41088C10.7498 11.1123 9.68682 13.1726 9.68682 15.5918C9.68682 17.692 10.4442 19.4199 11.959 20.7758C13.4473 22.1316 17.3273 23.5273 23.5992 24.9628C29.8976 26.3718 34.2161 27.608 36.5548 28.6714C39.9565 30.2398 42.4679 32.2337 44.089 34.6529C45.7101 37.0455 46.5207 39.8103 46.5207 42.9472C46.5207 46.0576 45.6304 48.9952 43.8498 51.76C42.0692 54.4982 39.5047 56.6383 36.1562 58.1802C32.8342 59.6955 29.087 60.4531 24.9147 60.4531C19.6261 60.4531 15.188 59.6822 11.6003 58.1403C8.03913 56.5984 5.2354 54.2855 3.18908 51.2017C1.16933 48.0913 0.106303 44.5822 0 40.6743Z" fill="#32A0EF"/>
<path d="M90.7945 0.00497437L54.0798 0.00497437V6.30142L90.7945 6.30142V0.00497437Z" fill="#32A0EF"/>
<path d="M90.7945 54.6977L54.0798 54.6977V60.9942L90.7945 60.9942V54.6977Z" fill="#32A0EF"/>
<path d="M99.1049 60.9933V35.5606L60.541 35.5606V29.2642V29.0173L99.1049 29.0173H99.477H107.043L118.703 29.0173C123.788 29.0173 127.385 28.0296 129.494 26.1777C131.602 24.3258 132.719 21.6097 132.719 18.2763C132.719 15.8071 132.098 13.7082 130.858 11.9798C129.618 10.2514 128.005 9.01678 125.897 8.52294C124.532 8.15256 122.176 8.0291 118.579 8.0291L107.043 8.0291H103.942L99.2289 1.11536L117.958 1.11536C121.928 1.11536 124.904 1.36228 127.013 1.73266C129.866 2.22649 132.347 3.09071 134.331 4.44877C136.316 5.80683 137.928 7.65872 139.044 10.1279C140.285 12.5971 140.781 15.1898 140.781 18.1528C140.781 23.0912 139.169 27.4123 135.944 30.8692C134.579 32.3507 132.595 33.5853 130.238 34.4495L142.642 61.1168H135.571L123.788 35.8075C122.176 35.931 120.439 36.0545 118.454 36.0545H106.919V61.1168H99.1049V60.9933Z" fill="#32A0EF"/>
<path d="M150.828 60.0056V29.0173H158.642L169.433 29.0173H170.797C175.883 29.0173 179.48 28.0296 181.588 26.1777C183.697 24.3258 184.813 21.6097 184.813 18.2763C184.813 15.8071 184.193 13.7082 182.953 11.9798C181.712 10.2514 180.1 9.01678 177.991 8.52294C176.627 8.15256 174.27 8.0291 170.673 8.0291H169.433L158.642 8.0291H150.828V1.11536L170.053 1.11536C174.022 1.11536 176.999 1.36228 179.108 1.73266C181.961 2.22649 184.441 3.09071 186.426 4.44877C188.41 5.80683 190.023 7.65872 191.139 10.1279C192.38 12.5971 192.876 15.1898 192.876 18.1528C192.876 23.0912 191.263 27.4123 188.038 30.8692C184.813 34.326 178.984 36.0545 170.673 36.0545H158.642V60.1291H150.828V60.0056Z" fill="#32A0EF"/>
</svg>
