<svg width="150" height="48" viewBox="0 0 150 48" fill="none" xmlns="http://www.w3.org/2000/svg">
<g clip-path="url(#clip0_1640_1046)">
<path d="M0 31.6227L5.64524 31.1266C5.9126 33.4002 6.52956 35.2707 7.49614 36.7381C8.48329 38.1849 10.0051 39.363 12.0617 40.2724C14.1183 41.1612 16.4319 41.6055 19.0026 41.6055C21.2853 41.6055 23.3008 41.2645 25.0488 40.5825C26.7969 39.9004 28.0925 38.9703 28.9357 37.7922C29.7995 36.5934 30.2314 35.2913 30.2314 33.8859C30.2314 32.4598 29.8201 31.2197 28.9974 30.1656C28.1748 29.0908 26.8175 28.1917 24.9254 27.4683C23.7121 26.993 21.0283 26.2592 16.874 25.2671C12.7198 24.2544 9.80977 23.3036 8.14396 22.4149C5.98458 21.2781 4.37018 19.8727 3.30077 18.1985C2.25193 16.5037 1.72751 14.6126 1.72751 12.5251C1.72751 10.2309 2.37532 8.09169 3.67095 6.10752C4.96658 4.10268 6.85861 2.58355 9.34704 1.55013C11.8355 0.516711 14.6015 0 17.6452 0C20.9974 0 23.9486 0.547713 26.4987 1.64314C29.0694 2.7179 31.0437 4.30937 32.4216 6.41755C33.7995 8.52573 34.5398 10.9129 34.6427 13.5792L28.9049 14.0132C28.5964 11.1403 27.5476 8.9701 25.7584 7.50264C23.9897 6.03518 21.3676 5.30145 17.892 5.30145C14.2725 5.30145 11.6298 5.97318 9.96401 7.31662C8.31877 8.6394 7.49614 10.2412 7.49614 12.122C7.49614 13.7548 8.08226 15.0983 9.2545 16.1524C10.4062 17.2065 13.4087 18.2916 18.2622 19.4076C23.1362 20.5031 26.4781 21.4642 28.2879 22.2909C30.9203 23.5103 32.8638 25.0605 34.1183 26.9413C35.3727 28.8014 36 30.951 36 33.3898C36 35.808 35.3111 38.0919 33.9332 40.2414C32.5553 42.3703 30.5707 44.0341 27.9794 45.2328C25.4087 46.4109 22.509 47 19.2802 47C15.1877 47 11.7532 46.4006 8.97686 45.2018C6.22108 44.0031 4.05141 42.2049 2.46787 39.8074C0.904884 37.3892 0.0822622 34.6609 0 31.6227Z" fill="white"/>
<path d="M70.2612 0.00390625H41.8496V4.89915H70.2612V0.00390625Z" fill="white"/>
<path d="M70.2612 42.5254H41.8496V47.4206H70.2612V42.5254Z" fill="white"/>
<path d="M76.6922 47.42V27.6471H46.8496V22.7518V22.5598H76.6922H76.9802H82.8353H91.8579C95.7933 22.5598 98.5769 21.792 100.209 20.3522C101.84 18.9124 102.704 16.8007 102.704 14.2091C102.704 12.2894 102.224 10.6577 101.264 9.31388C100.305 7.97009 99.0568 7.01024 97.425 6.6263C96.3692 6.33834 94.5455 6.24236 91.7619 6.24236H82.8353H80.4357L76.7882 0.867188H91.282C94.3535 0.867188 96.6572 1.05916 98.2889 1.34711C100.497 1.73105 102.416 2.40295 103.952 3.45879C105.488 4.51463 106.736 5.9544 107.599 7.87411C108.559 9.79381 108.943 11.8095 108.943 14.1131C108.943 17.9526 107.695 21.312 105.2 23.9996C104.144 25.1514 102.608 26.1113 100.785 26.7832L110.383 47.516H104.912L95.7933 27.839C94.5455 27.935 93.2017 28.031 91.6659 28.031H82.7393V47.516H76.6922V47.42Z" fill="white"/>
<path d="M116.718 46.6521V22.5598H122.765H131.116H132.172C136.107 22.5598 138.891 21.792 140.522 20.3522C142.154 18.9124 143.018 16.8007 143.018 14.2091C143.018 12.2894 142.538 10.6577 141.578 9.31388C140.618 7.97009 139.371 7.01024 137.739 6.6263C136.683 6.33834 134.859 6.24236 132.076 6.24236H131.116H122.765H116.718V0.867188H131.596C134.667 0.867188 136.971 1.05916 138.603 1.34711C140.81 1.73105 142.73 2.40295 144.266 3.45879C145.802 4.51462 147.049 5.9544 147.913 7.87411C148.873 9.79381 149.257 11.8095 149.257 14.1131C149.257 17.9526 148.009 21.312 145.514 23.9996C143.018 26.6872 138.507 28.031 132.076 28.031H122.765V46.7481H116.718V46.6521Z" fill="white"/>
</g>
<defs>
<clipPath id="clip0_1640_1046">
<rect width="149.353" height="47.4252" fill="white"/>
</clipPath>
</defs>
</svg>
