<svg width="24" height="24" viewBox="0 0 24 24" fill="none" xmlns="http://www.w3.org/2000/svg">
<path opacity="0.3" d="M18 21.6C16.3 21.6 15 20.3 15 18.6V2.50001C15 2.20001 14.6 1.99996 14.3 2.19996L13 3.59999L11.7 2.3C11.3 1.9 10.7 1.9 10.3 2.3L9 3.59999L7.70001 2.3C7.30001 1.9 6.69999 1.9 6.29999 2.3L5 3.59999L3.70001 2.3C3.50001 2.1 3 2.20001 3 3.50001V18.6C3 20.3 4.3 21.6 6 21.6H18Z" fill="white"/>
<path d="M12 12.5996H11C10.4 12.5996 10 12.1996 10 11.5996C10 10.9996 10.4 10.5996 11 10.5996H12C12.6 10.5996 13 10.9996 13 11.5996C13 12.1996 12.6 12.5996 12 12.5996ZM9 11.5996C9 10.9996 8.6 10.5996 8 10.5996H6C5.4 10.5996 5 10.9996 5 11.5996C5 12.1996 5.4 12.5996 6 12.5996H8C8.6 12.5996 9 12.1996 9 11.5996ZM9 7.59961C9 6.99961 8.6 6.59961 8 6.59961H6C5.4 6.59961 5 6.99961 5 7.59961C5 8.19961 5.4 8.59961 6 8.59961H8C8.6 8.59961 9 8.19961 9 7.59961ZM13 7.59961C13 6.99961 12.6 6.59961 12 6.59961H11C10.4 6.59961 10 6.99961 10 7.59961C10 8.19961 10.4 8.59961 11 8.59961H12C12.6 8.59961 13 8.19961 13 7.59961ZM13 15.5996C13 14.9996 12.6 14.5996 12 14.5996H10C9.4 14.5996 9 14.9996 9 15.5996C9 16.1996 9.4 16.5996 10 16.5996H12C12.6 16.5996 13 16.1996 13 15.5996Z" fill="white"/>
<path d="M15 18.6C15 20.3 16.3 21.6 18 21.6C19.7 21.6 21 20.3 21 18.6V12.5C21 12.2 20.6 12 20.3 12.2L19 13.6L17.7 12.3C17.3 11.9 16.7 11.9 16.3 12.3L15 13.6V18.6Z" fill="white"/>
</svg>
