<svg width="1440" height="990" viewBox="0 0 1440 990" fill="none" xmlns="http://www.w3.org/2000/svg">
<g opacity="0.3">
<path opacity="0.4" d="M1130.09 438.7L1315.52 361.658L1090.98 375.012L1130.09 438.7Z" fill="#32A0EF"/>
<path opacity="0.2" d="M0 872.911L52.6763 991.818L395.39 756.568L0 598.709V872.911Z" fill="#32A0EF"/>
<path opacity="0.4" d="M510.104 353.977L173.29 274.739L342.645 495.987L510.104 353.977Z" fill="#32A0EF"/>
<path opacity="0.2" d="M342.314 495.656L21.9659 446.605L395.39 756.747L342.314 495.656Z" fill="#32A0EF"/>
<path opacity="0.2" d="M0 599.377L395.39 756.747L20.3089 446.605L0 457.846V599.377Z" fill="#32A0EF"/>
<path opacity="0.2" d="M0 423.92L20.4621 446.603L173.288 274.42L0 211.527V423.92Z" fill="#32A0EF"/>
<path opacity="0.4" d="M53.6967 993.165L440.832 1090.59L480.815 981.943L53.6967 993.165Z" fill="#32A0EF"/>
<path opacity="0.4" d="M396.407 756.745L53.6967 991.82L480.815 980.553L396.407 756.745Z" fill="#32A0EF"/>
<path opacity="0.4" d="M395.389 756.745L479.736 981.943L556.473 786.634L395.389 756.745Z" fill="#32A0EF"/>
<path opacity="0.4" d="M480.813 981.942L663.864 881.32L557.189 786.375L480.813 981.942Z" fill="#32A0EF"/>
<path opacity="0.1" d="M915.254 451.961L1293.56 703.407L1130.16 438.7L915.254 451.961Z" fill="#32A0EF"/>
<path opacity="0.1" d="M1130.03 437.199L1090.64 373.512L915.254 450.553L1130.03 437.199Z" fill="#32A0EF"/>
<path opacity="0.1" d="M1090.98 374.295L964.28 312.272L915.254 450.552L1090.98 374.295Z" fill="#32A0EF"/>
<path opacity="0.1" d="M915.359 450.554L964.067 311.698L671.186 268.815L915.359 450.554Z" fill="#32A0EF"/>
<path opacity="0.2" d="M1083.66 345.853L1440 161.419L1342.36 -92.6904L1083.66 345.853Z" fill="#32A0EF"/>
<path opacity="0.1" d="M1083.4 345.853L1342.37 -92.6904L964.069 312.04L1083.4 345.853Z" fill="#32A0EF"/>
<path opacity="0.2" d="M1342.38 -92.9115L951.867 -140.098L963.315 312.274L1342.38 -92.9115Z" fill="#32A0EF"/>
<path opacity="0.4" d="M439.782 622.415L395.389 756.564L556.473 786.375L439.782 622.415Z" fill="#32A0EF"/>
<path opacity="0.1" d="M512.541 387.34L341.694 494.657L439.867 622.415L512.541 387.34Z" fill="#32A0EF"/>
<path opacity="0.4" d="M341.694 495.986L394.945 756.742L439.321 623.558L341.694 495.986Z" fill="#32A0EF"/>
<path opacity="0.2" d="M439.322 622.415L722.441 494.657L511.852 387.34L439.322 622.415Z" fill="#32A0EF"/>
<path opacity="0.2" d="M722.402 495.989L915.254 452.203L671.186 268.815L722.402 495.989Z" fill="#32A0EF"/>
<path opacity="0.2" d="M512.541 387.811L722.439 495.989L671.074 268.815L512.541 387.811Z" fill="#32A0EF"/>
<path opacity="0.2" d="M964.067 312.274L952.617 -140.098L739.525 171.228L964.067 312.274Z" fill="#32A0EF"/>
<path opacity="0.2" d="M690.711 644.143L936.175 1011.57L1293.56 704.612L690.711 644.143Z" fill="#32A0EF"/>
<path opacity="0.2" d="M690.711 642.884L1293.56 703.405L915.189 450.551L690.711 642.884Z" fill="#32A0EF"/>
<path opacity="0.4" d="M663.866 881.408L937.222 1011.57L691.837 644.143L663.866 881.408Z" fill="#32A0EF"/>
<path opacity="0.4" d="M721.244 494.432L690.711 644.142L915.254 450.551L721.244 494.432Z" fill="#32A0EF"/>
<path opacity="0.4" d="M439.322 623.708L691.902 644.143L722.441 495.986L439.322 623.708Z" fill="#32A0EF"/>
<path opacity="0.4" d="M662.982 881.193L690.712 644.143L556.475 786.987L662.982 881.193Z" fill="#32A0EF"/>
<path d="M1119.33 442.649L1078.78 377.06L1310.65 363.632L1119.33 442.649ZM1085.12 380.158L1121.23 438.517L1291.64 368.28L1085.12 380.158Z" fill="#32A0EF"/>
<path d="M355.169 497.963L185.491 280.667L522.305 358.75L355.169 497.963ZM194.388 286.318L355.804 492.826L514.679 360.291L194.388 286.318Z" fill="#32A0EF"/>
<path d="M417.356 752.283L21.9659 596.367V458.402L43.5442 446.605L44.8135 447.631L417.356 752.796V752.283ZM25.7739 594.828L398.316 741.513L42.9095 450.709L25.7739 460.453V594.828Z" fill="#32A0EF"/>
<path d="M43.7069 450.552L21.9659 426.971V221.403L195.254 282.92L43.7069 450.552ZM25.8026 425.946L43.7069 445.426L188.86 284.458L25.8026 226.53V425.946Z" fill="#32A0EF"/>
<path d="M70.7802 974.04L409.965 742.916L493.017 963.231L70.7802 974.04ZM408.063 748.578L82.192 970.437L487.946 959.627L408.063 748.064V748.578Z" fill="#32A0EF"/>
<path d="M489.502 966.139L405.154 742.916H408.325L566.239 772.748L488.868 966.139H489.502ZM410.862 747.031L489.502 955.338L561.8 775.319L410.862 747.545V747.031Z" fill="#32A0EF"/>
<path d="M485.697 966.138L563.197 772.547L671.189 866.518L669.283 867.545L485.697 966.138ZM565.103 778.709L493.32 958.436L665.472 866.005L565.103 778.709Z" fill="#32A0EF"/>
<path d="M1286.24 701.431L907.932 451.529L1122.84 438.7L1286.24 701.431ZM918.105 454.608L1274.16 689.629L1120.29 442.292L918.105 454.608Z" fill="#32A0EF"/>
<path d="M910.371 456.481L959.499 316.226L1086.1 378.618L910.371 456.481ZM962.019 321.382L916.669 450.293L1077.91 379.134L962.019 321.898V321.382Z" fill="#32A0EF"/>
<path d="M325.751 1138H240.761L70.7802 970.09L456.407 1066.04L325.116 1138H325.751ZM242.663 1134.94H324.482L448.162 1067.57L82.831 976.725L243.298 1135.45L242.663 1134.94Z" fill="#32A0EF"/>
<path d="M913.026 455.963L910.501 454.419L668.747 274.739L961.629 317.986L913.026 456.478V455.963ZM682.003 279.373L911.132 449.785L957.21 319.53L682.634 278.858L682.003 279.373Z" fill="#32A0EF"/>
<path d="M80.5422 979.452L21.9659 929.149V849.588L80.5422 979.966V979.452ZM25.7861 927.609L69.7183 965.593L25.7861 867.553V927.609Z" fill="#32A0EF"/>
<path d="M1071.46 357.195L1328.15 -72.9341L1425.36 176.52L1071.46 357.708V357.195ZM1327.51 -64.7216L1080.99 347.956L1420.28 174.467L1326.88 -64.7216H1327.51Z" fill="#32A0EF"/>
<path d="M452.344 622.415L353.9 494.567L355.17 493.536L524.747 387.34L451.708 622.415H452.344ZM358.981 495.083L450.438 614.167L518.396 395.073L358.981 495.083Z" fill="#32A0EF"/>
<path d="M407.547 752.793L351.458 486.111L453.966 616.375L408.192 752.28L407.547 752.793ZM358.55 501.497L408.192 737.408L449.453 616.888L358.55 501.497Z" fill="#32A0EF"/>
<path d="M961.626 322.151L739.525 183.871V182.847L949.569 -120.344L960.992 322.151H961.626ZM744.601 182.847L957.184 315.493L946.397 -108.564L744.601 182.847Z" fill="#32A0EF"/>
<path d="M756.61 1092.56L666.305 861.44L937.22 990.129L756.61 1092.56ZM673.252 868.647L758.505 1087.42L929.642 990.129L673.252 868.132V868.647Z" fill="#32A0EF"/>
<path d="M564.291 778.473L446.647 616.488L700.477 636.993L564.291 778.473ZM454.319 620.077L564.931 772.322L693.444 639.043L454.959 619.564L454.319 620.077Z" fill="#32A0EF"/>
<path d="M1286.24 697.479H1279.25L690.711 638.442L912.524 450.551L913.795 451.577L1286.24 697.479ZM698.974 635.875L1272.89 692.858L912.524 454.658L698.974 635.875Z" fill="#32A0EF"/>
<path d="M669.561 868.83L561.358 774.933L562.624 773.907L698.036 632.292L669.561 869.343V868.83ZM567.053 774.42L667.03 861.133L692.974 642.554L567.053 774.42Z" fill="#32A0EF"/>
</g>
</svg>
