<svg width="1065" height="950" viewBox="0 0 1065 950" fill="none" xmlns="http://www.w3.org/2000/svg">
<rect width="1065" height="950" rx="20" transform="matrix(-1 0 0 1 1065 0)" fill="url(#paint0_linear_1578_22)"/>
<path opacity="0.25" d="M911.918 743.381C885.648 728.213 848.796 722.982 815.293 727.679L934.181 658.59C947.165 651.044 947.097 638.81 934.027 631.264L661.903 474.152C648.832 466.606 627.711 466.606 614.725 474.152L521.735 528.192C481.501 510.427 423.924 512.158 387.343 533.416C350.763 554.675 347.923 588.054 378.718 611.304L344.37 631.265C331.385 638.811 331.453 651.045 344.524 658.592L616.648 815.702C629.718 823.249 650.84 823.249 663.825 815.702L740.189 771.325C732.175 790.754 741.308 812.095 767.578 827.262C807.693 850.422 872.581 850.422 912.437 827.262C952.292 804.101 952.033 766.542 911.918 743.381Z" fill="#87AEDD"/>
<path d="M501.482 569.872C500.409 581.796 489.187 589.894 479.063 594.257C467.943 598.86 455.982 601.079 443.951 600.771C431.618 600.801 419.43 598.1 408.264 592.862C398.657 588.135 388.46 579.559 388.493 567.896C388.469 576.388 389.064 583.407 395.184 590.037C403.063 598.574 414.926 603.171 426.085 605.475C447.855 609.969 477.497 607.797 494.035 591.038C500.689 584.295 501.597 577.187 501.623 568.219C501.599 568.772 501.552 569.323 501.482 569.872Z" fill="#ADCDFC"/>
<path d="M484.912 544.874C507.072 557.668 507.215 578.417 485.199 591.211C463.183 604.006 427.337 604.006 405.177 591.211C383.016 578.417 382.925 557.668 404.942 544.874C426.958 532.08 462.752 532.08 484.912 544.874Z" fill="#E2EDFF"/>
<path d="M455.134 519.011L454.994 568.458L446.343 573.485L446.484 524.038L455.134 519.011Z" fill="#C7D8F2"/>
<path d="M446.484 524.038L446.343 573.485L437.638 568.458L437.778 519.011L446.484 524.038Z" fill="#7BAEFF"/>
<path d="M455.134 519.011L446.483 524.038L437.778 519.011L446.428 513.985L455.134 519.011Z" fill="#4DA5DC"/>
<path d="M390.224 358.692C390.224 358.692 372.494 363.42 367.767 374.057C363.041 384.695 364.222 465.068 389.043 498.163C413.864 531.258 459.96 535.986 470.598 531.258C481.236 526.53 542.697 495.799 547.425 480.434C552.153 465.068 528.514 453.249 515.512 447.339C502.511 441.429 494.237 433.156 487.145 411.88C480.053 390.605 476.507 353.963 468.234 348.054C459.96 342.145 439.866 332.689 390.224 358.692Z" fill="#32A0EF"/>
<path d="M496.198 337.306C496.198 337.306 467.113 313.229 461.2 312.669C454.105 312.115 445.253 314.526 442.942 324.585C441.916 328.469 442.179 332.581 443.691 336.303C445.202 340.025 447.881 343.156 451.325 345.225C456.659 348.152 503.464 370.363 511.738 370.319C520.011 370.275 525.293 363.156 519.927 354.319C514.562 345.483 496.198 337.306 496.198 337.306Z" fill="#E1E8F2"/>
<path d="M445.92 307.171C445.888 307.491 445.907 307.814 445.977 308.128C446.411 310.285 447.768 315.797 448.084 318.11C448.388 320.328 446.051 324.31 440.032 324.485C434.013 324.66 423.684 322.647 419.936 315.648C419.704 308.575 419.021 301.524 417.892 294.538L445.92 307.171Z" fill="#E16B40"/>
<path d="M458.854 263.397C454.505 245.173 439.419 235.451 423.128 240.119C423.128 240.119 405.351 242.789 398.187 258.874C391.022 274.959 403.332 287.576 411.207 295.53C414.525 298.791 417.032 301.31 418.616 302.915C419.191 303.522 419.756 304.139 420.351 304.687L420.52 304.86L420.539 304.844C425.015 308.913 430.412 311.836 436.266 313.362C443.558 315.146 451.998 313.504 456.343 308.384C460.688 303.265 463.204 281.621 458.854 263.397Z" fill="#FF8654"/>
<path d="M421.28 308.602C421.28 308.602 392.646 331.27 390.058 338.468C387.471 345.666 387.81 365.329 394.572 378.115C401.335 390.901 401.472 439.164 404.14 448.473C406.807 457.781 432.355 459.502 447.922 455.689C463.49 451.875 488.22 438.841 483.249 421.167C475.909 395.069 477.652 368.778 478.243 360.473C478.833 352.167 476.728 331.486 472.209 317.774C471.257 314.88 461.057 310.84 461.057 310.84C461.057 310.84 450.477 305.919 421.28 308.602Z" fill="#0046A6"/>
<path d="M426.472 416.608C414.652 401.636 431.987 350.418 411.5 336.234C405.252 331.909 399.888 330.818 395.444 331.377C393.257 333.416 391.435 335.814 390.058 338.468C387.471 345.666 387.81 365.329 394.572 378.115C401.335 390.901 401.472 439.164 404.139 448.472C406.567 456.947 427.935 459.116 443.495 456.563L465.87 433.155C465.87 433.155 438.291 431.58 426.472 416.608Z" fill="#003783"/>
<path d="M420.309 312.443C445.203 310.155 456.66 314.438 459.506 315.753C460.095 321.64 459.974 327.576 459.144 333.434C457.195 345.199 452.508 377.519 452.508 377.519C452.508 377.519 437.149 350.965 427.038 340.036C419.922 332.345 412.915 325.097 409.38 321.47C415.347 316.377 420.309 312.443 420.309 312.443Z" fill="#E1E8F2"/>
<path d="M445.92 307.171C445.888 307.491 445.907 307.814 445.977 308.128C446.411 310.285 447.768 315.797 448.084 318.11C448.388 320.328 446.051 324.31 440.032 324.485C434.013 324.66 423.684 322.647 419.936 315.648C419.704 308.575 419.021 301.524 417.892 294.538L445.92 307.171Z" fill="#FF8654"/>
<path d="M458.854 263.397C454.505 245.173 439.419 235.451 423.128 240.119C423.128 240.119 405.351 242.789 398.187 258.874C391.022 274.959 403.332 287.576 411.207 295.53C414.525 298.791 417.032 301.31 418.616 302.915C419.191 303.522 419.756 304.139 420.351 304.687L420.52 304.86L420.539 304.844C425.015 308.913 430.412 311.836 436.266 313.362C443.558 315.146 451.998 313.504 456.343 308.384C460.688 303.265 463.204 281.621 458.854 263.397Z" fill="#FF9F75"/>
<path d="M455.984 340.007L444.887 330.179L436.011 345.714L427.062 340.062C437.173 351.006 452.509 377.519 452.509 377.519C452.509 377.519 456.419 350.558 458.581 336.923L455.984 340.007Z" fill="#CFDAE4"/>
<path d="M455.222 359.043L450.277 341.592L451.025 335.615L444.888 330.179L440.582 337.715L445.522 342.226L446.865 368.135C450.234 373.588 452.509 377.519 452.509 377.519C452.509 377.519 453.751 368.956 455.222 359.043Z" fill="#00A5FF"/>
<path d="M396.134 257.043C394.114 261.253 393.215 265.914 393.526 270.574C393.836 275.233 395.346 279.733 397.907 283.638C406.772 297.23 416.274 303.279 418.615 302.914C420.956 302.55 422.137 301.958 421.547 300.185C420.956 298.412 418.001 292.503 418.001 292.503C418.001 292.503 407.954 291.321 407.954 284.82C407.954 278.319 411.5 277.137 415.637 278.91C419.774 280.683 420.365 283.638 422.729 286.002C425.092 288.366 425.683 294.276 427.456 293.685C429.229 293.094 430.411 291.321 430.411 288.366C430.6 286.533 430.38 284.681 429.767 282.944C429.154 281.207 428.163 279.627 426.865 278.319C423.319 274.773 427.456 268.864 423.91 264.136C422.224 261.727 420.238 259.543 418.001 257.635C418.001 257.635 420.365 261.181 432.184 258.817C444.004 256.453 449.323 257.044 454.05 254.089C458.778 251.134 457.596 244.633 454.641 242.269C451.686 239.905 444.595 238.723 436.321 235.769C428.047 232.814 423.319 234.587 413.273 236.951C403.226 239.315 393.77 249.951 396.134 257.043Z" fill="#E16B40"/>
<path d="M562.791 612.814C562.839 614.88 563.405 616.9 564.438 618.69C565.471 620.48 566.937 621.982 568.701 623.057C575.005 627.391 576.187 630.149 581.309 632.119C586.43 634.089 591.158 640.787 588.794 645.514C586.43 650.242 575.399 651.03 568.307 649.06C561.215 647.091 560.033 640.787 553.336 638.423C549.088 637.094 545.277 634.644 542.304 631.331C540.334 629.361 541.122 621.481 541.122 621.481L565.154 613.602" fill="#382747"/>
<path d="M593.522 589.962C593.57 592.028 594.136 594.049 595.169 595.839C596.202 597.629 597.668 599.131 599.432 600.206C605.736 604.54 606.918 607.298 612.04 609.268C617.161 611.238 621.889 617.936 619.525 622.663C617.161 627.391 606.13 628.179 599.038 626.209C591.946 624.239 590.764 617.936 584.066 615.572C579.818 614.243 576.008 611.793 573.035 608.48C571.065 606.51 571.853 598.63 571.853 598.63L595.885 590.75" fill="#382747"/>
<path d="M405.983 448.718C406.684 451.624 407.08 454.595 407.166 457.583C407.166 461.72 404.211 473.539 410.12 487.723C416.03 501.906 455.626 504.861 468.627 510.771C476.734 514.306 484.457 518.663 491.676 523.773C494.04 525.546 497.388 550.564 507.632 565.535C517.876 580.506 535.211 610.45 539.151 623.057C546.486 624.455 554.079 623.049 560.426 619.117C565.696 615.67 565.154 613.602 565.154 613.602C565.154 613.602 544.667 568.687 539.939 549.775C535.211 530.864 529.696 508.801 521.028 503.285C512.36 497.769 484.781 478.07 478.477 474.13C472.173 470.19 455.187 457.734 451.86 450.172C448.534 442.611 416.227 430.397 405.983 448.718Z" fill="#94A3C0"/>
<path d="M438.487 429.216C439.188 432.122 439.584 435.093 439.669 438.081C439.669 442.218 436.715 454.037 442.624 468.221C448.534 482.404 488.13 485.359 501.131 491.269C509.238 494.804 516.961 499.161 524.18 504.271C526.544 506.043 529.892 531.062 540.136 546.033C550.38 561.004 567.715 590.947 571.655 603.555C578.99 604.953 586.582 603.547 592.93 599.615C598.2 596.168 597.658 594.099 597.658 594.099C597.658 594.099 577.171 549.185 572.443 530.273C567.715 511.362 562.199 489.299 553.532 483.783C544.864 478.267 517.285 458.568 510.981 454.628C504.677 450.688 487.691 438.232 484.364 430.67C481.038 423.109 448.731 410.895 438.487 429.216Z" fill="#94A3C0"/>
<path d="M598.042 578.648L597.702 698.842L576.675 711.061L577.016 590.867L598.042 578.648Z" fill="#C7D8F2"/>
<path d="M577.017 590.867L576.675 711.061L555.511 698.842L555.851 578.648L577.017 590.867Z" fill="#7BAEFF"/>
<path d="M598.042 578.648L577.017 590.867L555.851 578.648L576.878 566.429L598.042 578.648Z" fill="#4DA5DC"/>
<path d="M943.792 496.317C943.76 496.666 943.736 497.016 943.672 497.364C943.619 497.651 943.532 497.935 943.457 498.22C943.37 498.553 943.289 498.885 943.173 499.215C943.076 499.488 942.947 499.758 942.829 500.029C942.677 500.377 942.528 500.724 942.342 501.068C942.208 501.317 942.047 501.561 941.895 501.808C941.654 502.199 941.398 502.588 941.111 502.972C940.835 503.342 940.55 503.71 940.231 504.072C940.155 504.157 940.089 504.243 940.012 504.328C939.582 504.797 939.108 505.256 938.607 505.707C938.287 505.996 937.93 506.274 937.58 506.555C937.274 506.802 936.978 507.051 936.649 507.29C936.271 507.565 935.854 507.827 935.447 508.093C935.029 508.365 934.63 508.645 934.181 508.906L663.826 666.019C661.51 667.346 659.059 668.424 656.515 669.234C654.448 669.899 652.338 670.425 650.2 670.806C648.801 671.058 647.38 671.256 645.945 671.399C644.719 671.521 643.484 671.603 642.245 671.646C641.108 671.685 639.969 671.69 638.828 671.661C637.73 671.634 636.634 671.575 635.542 671.486L635.488 690.755C636.578 690.845 637.674 690.904 638.774 690.931C639.912 690.96 641.052 690.954 642.191 690.915C643.429 690.873 644.662 690.791 645.89 690.668C647.325 690.526 648.747 690.328 650.145 690.076C652.283 689.694 654.393 689.169 656.461 688.504C659.004 687.694 661.455 686.616 663.771 685.289L934.127 528.176C934.264 528.096 934.4 528.016 934.534 527.935C934.837 527.752 935.097 527.554 935.386 527.366C935.796 527.099 936.215 526.835 936.595 526.559C936.924 526.32 937.218 526.071 937.524 525.825C937.874 525.544 938.231 525.266 938.552 524.976C938.617 524.918 938.695 524.865 938.758 524.806C939.187 524.41 939.582 524.006 939.956 523.597C940.034 523.511 940.102 523.424 940.178 523.338C940.4 523.087 940.626 522.836 940.827 522.581C940.915 522.469 940.973 522.353 941.057 522.24C941.344 521.857 941.599 521.468 941.841 521.077C941.942 520.912 942.076 520.754 942.17 520.588C942.217 520.504 942.243 520.419 942.288 520.335C942.473 519.992 942.623 519.645 942.774 519.297C942.863 519.094 942.982 518.895 943.059 518.691C943.085 518.622 943.094 518.552 943.119 518.483C943.236 518.152 943.318 517.819 943.405 517.486C943.464 517.261 943.553 517.039 943.598 516.813C943.61 516.753 943.608 516.693 943.619 516.634C943.683 516.284 943.707 515.934 943.739 515.583C943.759 515.355 943.81 515.127 943.817 514.899C943.82 514.801 943.821 514.704 943.822 514.606L943.876 495.336C943.874 495.665 943.821 495.99 943.792 496.317Z" fill="#ADCDFC"/>
<path d="M632.298 671.124C631.183 670.965 630.081 670.774 628.991 670.548C627.81 670.304 626.65 670.019 625.512 669.695C624.12 669.299 622.766 668.843 621.46 668.328C619.802 667.678 618.193 666.906 616.648 666.02L344.524 508.909C337.946 505.112 334.662 500.127 334.676 495.15L334.621 514.42C334.607 519.397 337.892 524.382 344.469 528.179L616.593 685.29C618.138 686.176 619.747 686.947 621.406 687.597C622.711 688.113 624.065 688.569 625.457 688.964C626.594 689.288 627.754 689.572 628.937 689.817C630.025 690.042 631.127 690.234 632.244 690.392C633.316 690.544 634.397 690.665 635.487 690.755L635.542 671.485C634.453 671.396 633.372 671.276 632.298 671.124Z" fill="#ADCDFC"/>
<path d="M934.027 482.343C947.097 489.889 947.166 502.123 934.181 509.67L663.825 666.783C650.84 674.329 629.718 674.33 616.648 666.783L344.524 509.672C331.453 502.126 331.385 489.892 344.37 482.346L614.725 325.232C627.711 317.686 648.832 317.686 661.903 325.232L934.027 482.343Z" fill="#E2EDFF"/>
<path d="M641.554 539.249L716.05 582.541L768.452 552.286L693.956 508.994L641.554 539.249Z" fill="white"/>
<path d="M704.87 528.475L693.15 535.286L678.307 530.913C682.45 526.173 692.454 524.288 700.65 526.704C702.125 527.117 703.542 527.712 704.87 528.475Z" fill="#FF5668"/>
<path d="M707.556 529.36C715.434 533.909 715.473 541.283 707.647 545.831C703.244 548.073 698.372 549.242 693.431 549.242C688.489 549.242 683.618 548.073 679.214 545.831C672.912 542.192 671.433 536.893 675.44 532.308L693.384 537.596L707.556 529.36Z" fill="#B391FF"/>
<path d="M696.779 561.731C696.126 562.108 696.123 562.708 696.772 563.085C697.133 563.271 697.534 563.368 697.941 563.368C698.347 563.368 698.748 563.271 699.11 563.085L732.365 543.885C733.018 543.508 733.022 542.908 732.373 542.531C732.011 542.345 731.61 542.248 731.203 542.248C730.797 542.248 730.396 542.345 730.034 542.531L696.779 561.731Z" fill="#ADCDFC"/>
<path d="M719.756 552.906C719.615 552.955 719.493 553.046 719.407 553.167C719.32 553.288 719.273 553.432 719.272 553.581C719.272 553.729 719.317 553.875 719.402 553.996C719.487 554.118 719.608 554.21 719.748 554.261C720.112 554.446 720.514 554.543 720.922 554.544C721.33 554.546 721.733 554.451 722.098 554.268L736.211 546.12C736.353 546.071 736.476 545.979 736.563 545.857C736.65 545.735 736.697 545.588 736.697 545.438C736.696 545.288 736.649 545.141 736.561 545.019C736.473 544.898 736.349 544.806 736.206 544.759C735.844 544.574 735.443 544.478 735.037 544.478C734.631 544.478 734.23 544.574 733.868 544.759L719.756 552.906Z" fill="#D4D9DF"/>
<path d="M715.378 559.595C714.725 559.972 714.71 560.579 715.359 560.956C715.724 561.141 716.127 561.237 716.535 561.236C716.944 561.234 717.346 561.136 717.71 560.949L739.791 548.201C740.444 547.824 740.448 547.223 739.799 546.846C739.437 546.66 739.036 546.563 738.63 546.563C738.223 546.563 737.822 546.66 737.46 546.846L715.378 559.595Z" fill="#D4D9DF"/>
<path d="M729.264 600.909C729.66 601.041 730.004 601.294 730.249 601.632C730.494 601.97 730.627 602.376 730.629 602.793C730.631 603.21 730.503 603.617 730.262 603.958C730.021 604.299 729.68 604.555 729.286 604.692L676.111 635.566C675.099 636.082 673.98 636.351 672.845 636.351C671.71 636.351 670.591 636.082 669.579 635.566L632.464 614.138C632.069 614.006 631.724 613.753 631.479 613.415C631.235 613.077 631.102 612.671 631.1 612.254C631.097 611.837 631.226 611.429 631.466 611.089C631.707 610.748 632.049 610.491 632.443 610.355L685.617 579.48C686.629 578.965 687.748 578.697 688.883 578.697C690.018 578.697 691.137 578.965 692.149 579.48L729.264 600.909Z" fill="#F2F8FD"/>
<path d="M730.618 602.949C730.614 602.998 730.61 603.046 730.602 603.094C730.594 603.134 730.583 603.173 730.572 603.212C730.56 603.259 730.548 603.305 730.532 603.351C730.519 603.389 730.501 603.425 730.485 603.462C730.464 603.511 730.443 603.559 730.417 603.607C730.398 603.641 730.377 603.675 730.356 603.709C730.322 603.763 730.287 603.817 730.247 603.87C730.224 603.902 730.198 603.932 730.172 603.964C730.111 604.037 730.046 604.107 729.977 604.173C729.951 604.199 729.927 604.225 729.9 604.249C729.855 604.289 729.806 604.327 729.758 604.366C729.715 604.4 729.674 604.435 729.629 604.468C729.576 604.506 729.518 604.543 729.462 604.58C729.406 604.617 729.348 604.656 729.287 604.692L676.112 635.567C675.904 635.684 675.688 635.786 675.466 635.873C675.407 635.897 675.347 635.919 675.286 635.941C675.146 635.992 674.999 636.033 674.852 636.074C674.701 636.117 674.547 636.157 674.39 636.189C674.206 636.227 674.02 636.262 673.831 636.286C673.784 636.291 673.739 636.3 673.692 636.305C673.436 636.332 673.177 636.346 672.917 636.348C672.876 636.348 672.835 636.348 672.794 636.348C672.537 636.346 672.281 636.332 672.027 636.305L671.913 636.292C671.664 636.263 671.417 636.22 671.172 636.165C671.127 636.155 671.083 636.143 671.039 636.132C670.822 636.079 670.608 636.014 670.398 635.937C670.361 635.924 670.322 635.914 670.285 635.899C670.042 635.807 669.806 635.696 669.58 635.566L632.465 614.138C631.883 613.846 631.428 613.351 631.185 612.747C631.129 612.582 631.1 612.408 631.101 612.233L631.088 614.362C631.087 614.449 631.095 614.536 631.109 614.621C631.196 614.978 631.362 615.311 631.595 615.596C631.827 615.881 632.12 616.11 632.452 616.268L669.567 637.696C669.782 637.819 670.005 637.927 670.236 638.017L670.272 638.029C670.309 638.043 670.348 638.054 670.385 638.067C670.52 638.117 670.656 638.166 670.798 638.207C670.873 638.228 670.949 638.245 671.026 638.263C671.071 638.274 671.114 638.285 671.159 638.295C671.2 638.305 671.239 638.317 671.28 638.325C671.431 638.356 671.584 638.382 671.737 638.405C671.792 638.412 671.847 638.416 671.902 638.424C671.94 638.429 671.978 638.433 672.016 638.437C672.073 638.443 672.13 638.451 672.187 638.455C672.337 638.468 672.489 638.476 672.64 638.48C672.688 638.481 672.735 638.48 672.783 638.48H672.906C672.975 638.48 673.043 638.482 673.112 638.48C673.283 638.474 673.454 638.462 673.623 638.446L673.682 638.438C673.728 638.433 673.773 638.424 673.819 638.419C673.95 638.402 674.082 638.387 674.211 638.364C674.269 638.354 674.322 638.334 674.379 638.322C674.537 638.289 674.689 638.25 674.841 638.208C674.922 638.185 675.007 638.172 675.086 638.147C675.151 638.126 675.211 638.098 675.276 638.075C675.34 638.052 675.397 638.031 675.456 638.007C675.679 637.92 675.894 637.818 676.102 637.701L729.277 606.826L729.334 606.793C729.377 606.767 729.413 606.74 729.453 606.713C729.509 606.677 729.567 606.641 729.619 606.603C729.665 606.569 729.706 606.535 729.748 606.501C729.797 606.461 729.846 606.423 729.89 606.383L729.919 606.359C729.938 606.343 729.95 606.325 729.967 606.308C730.036 606.241 730.101 606.171 730.163 606.097C730.176 606.082 730.193 606.067 730.205 606.051C730.218 606.035 730.225 606.02 730.237 606.005C730.277 605.951 730.313 605.897 730.346 605.843C730.36 605.82 730.379 605.798 730.392 605.775L730.408 605.741C730.433 605.693 730.454 605.646 730.475 605.597C730.487 605.569 730.504 605.541 730.515 605.513L730.523 605.484C730.539 605.438 730.55 605.392 730.562 605.346C730.571 605.315 730.583 605.284 730.589 605.253L730.592 605.228C730.601 605.18 730.604 605.131 730.608 605.083C730.611 605.051 730.618 605.02 730.619 604.988V604.947L730.632 602.818C730.63 602.859 730.623 602.904 730.618 602.949Z" fill="url(#paint1_linear_1578_22)"/>
<path d="M723.784 601.583C723.911 601.626 724.021 601.708 724.099 601.817C724.177 601.926 724.219 602.056 724.22 602.19C724.22 602.324 724.179 602.455 724.101 602.564C724.024 602.673 723.914 602.756 723.787 602.8L673.316 632.13C672.991 632.296 672.631 632.382 672.266 632.383C671.901 632.383 671.541 632.297 671.216 632.132L637.782 612.829C637.655 612.786 637.544 612.705 637.466 612.596C637.387 612.487 637.344 612.356 637.343 612.222C637.343 612.088 637.384 611.957 637.461 611.847C637.539 611.737 637.649 611.654 637.776 611.61L688.246 582.28C688.572 582.114 688.932 582.028 689.298 582.028C689.664 582.028 690.024 582.114 690.35 582.28L723.784 601.583Z" fill="url(#paint2_linear_1578_22)"/>
<path d="M476.079 425.781L550.575 469.073L602.977 438.818L528.483 395.526L476.079 425.781Z" fill="white"/>
<path d="M539.395 415.007L527.675 421.817L512.832 417.445C516.975 412.705 526.978 410.82 535.175 413.236C536.649 413.649 538.067 414.244 539.395 415.007Z" fill="#B391FF"/>
<path d="M542.082 415.892C549.96 420.44 549.999 427.814 542.173 432.362C537.77 434.605 532.898 435.773 527.957 435.773C523.015 435.773 518.144 434.605 513.74 432.362C507.438 428.724 505.958 423.425 509.966 418.84L527.91 424.128L542.082 415.892Z" fill="#05CCFF"/>
<path d="M531.304 448.263C530.651 448.64 530.648 449.24 531.297 449.617C531.659 449.803 532.059 449.9 532.466 449.9C532.873 449.9 533.273 449.803 533.635 449.617L566.89 430.418C567.543 430.04 567.546 429.44 566.898 429.063C566.536 428.877 566.135 428.78 565.728 428.78C565.322 428.78 564.921 428.877 564.559 429.063L531.304 448.263Z" fill="#ADCDFC"/>
<path d="M554.281 439.438C554.14 439.486 554.018 439.577 553.932 439.698C553.845 439.819 553.798 439.964 553.797 440.112C553.797 440.261 553.842 440.406 553.927 440.528C554.012 440.65 554.133 440.742 554.273 440.792C554.637 440.977 555.039 441.075 555.447 441.076C555.855 441.077 556.258 440.982 556.623 440.799L570.735 432.651C570.878 432.603 571.001 432.511 571.088 432.388C571.175 432.266 571.222 432.119 571.221 431.969C571.221 431.819 571.173 431.672 571.085 431.551C570.997 431.429 570.873 431.338 570.731 431.29C570.369 431.106 569.968 431.01 569.562 431.01C569.156 431.01 568.755 431.106 568.393 431.29L554.281 439.438Z" fill="#D4D9DF"/>
<path d="M549.903 446.126C549.25 446.503 549.235 447.111 549.884 447.488C550.249 447.672 550.652 447.768 551.06 447.767C551.469 447.766 551.871 447.668 552.235 447.481L574.316 434.732C574.969 434.355 574.973 433.755 574.324 433.377C573.962 433.192 573.561 433.095 573.155 433.095C572.748 433.095 572.347 433.192 571.986 433.377L549.903 446.126Z" fill="#05CCFF"/>
<path d="M595.886 559.221L595.873 563.695L585.55 569.694L585.564 565.219L595.886 559.221Z" fill="#540CC7"/>
<path d="M585.564 565.219L585.55 569.694L497.787 519.025L497.8 514.548L585.564 565.219Z" fill="#3F0995"/>
<path d="M595.887 559.221L585.564 565.22L497.8 514.549L508.123 508.55L595.887 559.221Z" fill="#7974F5"/>
<path d="M556.879 560.083L556.865 564.559L546.55 570.554L546.564 566.077L556.879 560.083Z" fill="#2689FD"/>
<path d="M546.564 566.077L546.55 570.553L477.61 530.75L477.624 526.274L546.564 566.077Z" fill="#3548DB"/>
<path d="M556.879 560.082L546.563 566.077L477.624 526.274L487.939 520.281L556.879 560.082Z" fill="#58AFFB"/>
<path d="M499.303 550.223L499.289 554.699L488.974 560.694L488.987 556.217L499.303 550.223Z" fill="#EE2C6A"/>
<path d="M488.987 556.218L488.973 560.694L457.428 542.48L457.439 538.004L488.987 556.218Z" fill="#EE428C"/>
<path d="M499.302 550.223L488.987 556.217L457.439 538.003L467.755 532.01L499.302 550.223Z" fill="#FF3D9D"/>
<path d="M429.675 525.504C428.646 526.098 428.64 527.044 429.663 527.639C430.233 527.932 430.865 528.085 431.506 528.085C432.147 528.085 432.778 527.932 433.349 527.639L485.766 497.376C486.796 496.781 486.801 495.835 485.778 495.241C485.208 494.948 484.576 494.795 483.935 494.795C483.294 494.795 482.663 494.948 482.093 495.241L429.675 525.504Z" fill="#ADCDFC"/>
<path d="M465.89 511.594C465.668 511.671 465.476 511.814 465.34 512.004C465.204 512.195 465.13 512.423 465.128 512.657C465.127 512.891 465.199 513.12 465.333 513.312C465.467 513.504 465.657 513.65 465.878 513.729C466.451 514.021 467.085 514.174 467.729 514.176C468.372 514.178 469.007 514.028 469.582 513.74L491.827 500.897C492.051 500.82 492.245 500.675 492.382 500.482C492.52 500.29 492.593 500.058 492.592 499.822C492.592 499.585 492.517 499.354 492.378 499.162C492.24 498.97 492.044 498.826 491.82 498.751C491.249 498.461 490.617 498.31 489.977 498.31C489.336 498.31 488.705 498.461 488.134 498.751L465.89 511.594Z" fill="#ADCDFC"/>
<path d="M458.99 522.136C457.961 522.731 457.937 523.688 458.959 524.281C459.534 524.573 460.169 524.723 460.813 524.722C461.457 524.72 462.091 524.565 462.664 524.271L497.47 504.176C498.499 503.582 498.504 502.636 497.482 502.042C496.912 501.749 496.28 501.596 495.639 501.596C494.998 501.596 494.366 501.749 493.796 502.042L458.99 522.136Z" fill="#ADCDFC"/>
<path d="M455.846 473.653L447.516 478.494C443.336 476.455 438.741 475.414 434.091 475.452C429.441 475.49 424.863 476.606 420.717 478.713C420.566 478.801 420.423 478.892 420.277 478.983L411.891 474.141C412.039 474.051 412.185 473.962 412.337 473.874C424.291 466.927 443.656 466.854 455.846 473.653Z" fill="#7CCCFF"/>
<path d="M457.129 474.411C467.025 480.607 468.049 489.839 460.172 496.633L451.528 491.642C454.996 487.67 454.08 482.74 448.789 479.258L457.129 474.411Z" fill="#7CCCFF"/>
<path d="M459.094 497.506C458.228 498.16 457.323 498.761 456.383 499.305C444.601 506.152 425.625 506.322 413.409 499.819L421.748 494.972C425.88 496.871 430.387 497.812 434.934 497.725C439.48 497.637 443.948 496.524 448.004 494.467C448.929 493.936 449.795 493.309 450.588 492.595L459.094 497.506Z" fill="#3EABFF"/>
<path d="M419.09 479.793C413.399 484.079 413.85 490.221 420.425 494.237L412.095 499.078C400.895 492.383 400.405 481.913 410.663 474.927L419.09 479.793Z" fill="#3EABFF"/>
<path d="M620.863 249.948C622.878 251.259 624.554 253.028 625.756 255.11C626.959 257.192 627.652 259.529 627.78 261.93L627.704 328.922C627.692 333.319 624.568 335.099 620.741 332.89L602.059 322.104L601.151 323.371L597.506 328.502L593.89 319.179L592.992 316.868L574.31 306.082C572.297 304.772 570.622 303.004 569.422 300.923C568.222 298.842 567.53 296.506 567.404 294.107L567.479 227.115C567.492 222.718 570.604 220.931 574.431 223.14L620.863 249.948Z" fill="#32A0EF"/>
<path d="M588.474 250.668L588.468 252.553C588.468 252.807 588.4 253.055 588.273 253.274C588.146 253.493 587.963 253.675 587.743 253.801C587.523 253.927 587.274 253.994 587.021 253.993C586.768 253.992 586.519 253.925 586.3 253.798L577.408 248.639C577.188 248.512 577.006 248.329 576.88 248.109C576.754 247.889 576.688 247.64 576.688 247.386L576.694 245.501C576.695 245.248 576.762 244.999 576.889 244.78C577.016 244.561 577.199 244.379 577.419 244.253C577.638 244.127 577.888 244.061 578.141 244.061C578.394 244.062 578.643 244.129 578.862 244.256L587.754 249.415C587.974 249.542 588.156 249.725 588.282 249.945C588.408 250.165 588.474 250.414 588.474 250.668Z" fill="white"/>
<path d="M616.603 276.277L616.597 278.166C616.597 278.42 616.529 278.668 616.402 278.887C616.275 279.106 616.093 279.288 615.874 279.414C615.654 279.54 615.405 279.606 615.152 279.606C614.899 279.606 614.651 279.539 614.431 279.413L577.384 258.023C577.164 257.896 576.981 257.713 576.855 257.493C576.728 257.273 576.662 257.023 576.663 256.769L576.668 254.879C576.669 254.626 576.736 254.378 576.863 254.159C576.99 253.94 577.172 253.758 577.392 253.632C577.611 253.506 577.86 253.44 578.113 253.44C578.366 253.44 578.615 253.507 578.834 253.633L615.881 275.023C616.101 275.15 616.283 275.333 616.41 275.553C616.537 275.773 616.603 276.023 616.603 276.277Z" fill="#ADCDFC"/>
<path d="M586.227 275.539L586.222 277.7L581.205 294.83L579.056 293.588L584.052 276.494L577.501 272.713L577.507 270.503L586.227 275.539Z" fill="white"/>
<path d="M596.416 281.42L596.41 283.629L590.747 280.36L590.418 286.996C591.042 286.142 591.994 286.074 593.296 286.825C594.495 287.607 595.46 288.701 596.087 289.988C596.714 291.276 596.98 292.709 596.856 294.136L596.844 298.458C596.834 301.854 595.422 303.251 592.488 301.556C591.097 300.726 589.96 299.533 589.198 298.104C588.436 296.674 588.078 295.064 588.164 293.447L588.169 291.975L590.194 293.144L590.189 294.782C590.113 295.667 590.282 296.556 590.678 297.351C591.074 298.146 591.681 298.816 592.433 299.288C593.962 300.171 594.688 299.378 594.694 297.383L594.706 293.086C594.779 292.201 594.609 291.314 594.213 290.519C593.818 289.725 593.213 289.054 592.463 288.579C591.286 287.899 590.477 288.194 590.286 289.701L590.285 290.2L588.26 289.031L588.832 277.041L596.416 281.42Z" fill="white"/>
<path d="M611.065 298.06C611.945 298.583 612.666 299.337 613.149 300.24C613.631 301.144 613.858 302.162 613.803 303.185L613.784 310.142C613.778 312.303 612.927 313.239 611.025 312.141C610.139 311.608 609.413 310.845 608.927 309.931C608.441 309.018 608.213 307.99 608.266 306.957L608.285 300C608.292 297.885 609.184 296.974 611.065 298.06ZM612.398 309.485L612.419 302.29C612.467 301.747 612.367 301.2 612.127 300.71C611.888 300.22 611.519 299.804 611.061 299.508C610.089 298.947 609.675 299.492 609.67 300.704L609.65 307.899C609.604 308.449 609.709 309.001 609.951 309.497C610.194 309.993 610.566 310.414 611.029 310.716C611.979 311.265 612.396 310.672 612.398 309.485Z" fill="white"/>
<path d="M604.342 296.461C604.336 298.598 603.443 299.51 601.563 298.425C600.684 297.894 599.965 297.135 599.483 296.228C599.001 295.322 598.773 294.301 598.824 293.276L598.844 286.271C598.85 284.158 599.743 283.223 601.603 284.297C602.485 284.829 603.207 285.589 603.693 286.497C604.178 287.406 604.41 288.429 604.362 289.458L604.342 296.461ZM602.956 295.781L602.977 288.562C603.022 288.012 602.918 287.46 602.675 286.964C602.433 286.468 602.06 286.046 601.598 285.745C600.606 285.172 600.231 285.788 600.228 286.975L600.208 294.194C600.153 294.738 600.251 295.287 600.491 295.778C600.731 296.27 601.103 296.685 601.566 296.976C602.537 297.537 602.953 296.993 602.956 295.781Z" fill="white"/>
<path d="M609.435 288.937L610.716 289.676L603.07 307.451L601.768 306.7L609.435 288.937Z" fill="white"/>
<path d="M705.545 388.855C727.705 401.65 727.848 422.398 705.832 435.192C683.815 447.987 647.97 447.987 625.81 435.192C603.649 422.398 603.558 401.65 625.574 388.855C647.591 376.061 683.385 376.061 705.545 388.855Z" fill="#ADCDFC"/>
<path d="M706.067 375.148L706.042 383.295L691.959 391.481L691.982 383.333L706.067 375.148Z" fill="#CC096A"/>
<path d="M649.417 389.078C649.515 389.04 649.607 388.998 649.705 388.96C650.492 388.66 651.302 388.39 652.121 388.132C652.688 387.953 653.269 387.797 653.85 387.638C654.291 387.518 654.728 387.39 655.176 387.281C655.787 387.133 656.409 387.011 657.031 386.885C657.486 386.793 657.934 386.689 658.394 386.608C658.581 386.576 658.771 386.549 658.96 386.518C659.732 386.391 660.51 386.281 661.293 386.188C661.521 386.161 661.746 386.131 661.973 386.107C662.879 386.009 663.79 385.933 664.705 385.879C664.874 385.869 665.043 385.862 665.212 385.853C665.826 385.823 666.442 385.814 667.058 385.802C667.674 385.791 668.288 385.786 668.903 385.794C669.417 385.8 669.931 385.816 670.444 385.836C671.013 385.859 671.582 385.889 672.15 385.928C672.669 385.964 673.187 386.007 673.704 386.057C674.266 386.112 674.826 386.174 675.384 386.245C675.888 386.309 676.39 386.38 676.889 386.458C677.488 386.551 678.082 386.655 678.672 386.768C679.292 386.886 679.912 387.003 680.522 387.142C680.668 387.176 680.815 387.207 680.96 387.241C681.818 387.446 682.662 387.675 683.495 387.922C683.733 387.992 683.968 388.068 684.204 388.142C684.896 388.36 685.578 388.592 686.248 388.84C686.443 388.912 686.642 388.98 686.835 389.055C687.444 389.29 688.031 389.552 688.619 389.812C688.908 389.941 689.208 390.058 689.491 390.192C690.34 390.595 691.165 391.022 691.959 391.48L691.982 381.979C691.188 381.521 690.363 381.094 689.514 380.691C689.233 380.558 688.936 380.441 688.649 380.314C688.145 380.09 687.649 379.858 687.13 379.652C687.041 379.617 686.948 379.588 686.859 379.553C686.666 379.479 686.469 379.412 686.274 379.34C685.604 379.092 684.922 378.859 684.228 378.641C683.992 378.567 683.758 378.491 683.52 378.421C683.36 378.373 683.205 378.319 683.044 378.273C682.367 378.08 681.679 377.906 680.985 377.74C680.84 377.706 680.693 377.675 680.546 377.641C680.21 377.565 679.875 377.483 679.535 377.413C679.259 377.356 678.975 377.32 678.697 377.268C678.106 377.155 677.513 377.051 676.914 376.958C676.674 376.92 676.439 376.867 676.199 376.833C675.938 376.795 675.671 376.778 675.409 376.745C674.851 376.674 674.292 376.612 673.729 376.557C673.461 376.531 673.197 376.49 672.927 376.468C672.677 376.447 672.425 376.444 672.174 376.427C671.607 376.388 671.039 376.358 670.469 376.336C670.184 376.325 669.899 376.298 669.613 376.29C669.385 376.284 669.156 376.296 668.928 376.293C668.312 376.285 667.698 376.29 667.083 376.302C666.777 376.308 666.472 376.296 666.167 376.306C665.856 376.317 665.547 376.337 665.236 376.353C665.067 376.361 664.898 376.368 664.729 376.378C663.962 376.424 663.196 376.479 662.434 376.555C662.288 376.569 662.143 376.591 661.998 376.607C661.77 376.631 661.544 376.661 661.317 376.688C660.535 376.782 659.759 376.892 658.987 377.018C658.798 377.049 658.606 377.075 658.418 377.109C658.327 377.125 658.235 377.136 658.144 377.152C657.778 377.219 657.424 377.311 657.062 377.384C656.438 377.51 655.814 377.634 655.202 377.782C654.754 377.89 654.32 378.018 653.88 378.138C653.297 378.296 652.715 378.453 652.146 378.632C652.024 378.67 651.896 378.699 651.775 378.738C651.082 378.963 650.401 379.204 649.731 379.46C649.634 379.498 649.54 379.539 649.443 379.577C648.708 379.864 647.992 380.172 647.29 380.496C647.083 380.591 646.876 380.688 646.672 380.788C645.895 381.164 645.132 381.556 644.402 381.979C644.264 382.06 644.127 382.141 643.992 382.222C643.865 382.298 643.748 382.378 643.623 382.455C643.417 382.584 643.211 382.712 643.012 382.843C642.829 382.962 642.653 383.083 642.477 383.205C642.284 383.338 642.092 383.471 641.907 383.606C641.736 383.729 641.572 383.855 641.408 383.98C641.229 384.117 641.052 384.254 640.88 384.393C640.722 384.521 640.569 384.649 640.417 384.779C640.252 384.919 640.089 385.06 639.932 385.203C639.867 385.261 639.796 385.318 639.732 385.376C639.673 385.431 639.623 385.488 639.564 385.543C639.299 385.793 639.045 386.046 638.802 386.301C638.72 386.387 638.635 386.472 638.556 386.559C638.247 386.894 637.955 387.234 637.682 387.577L637.646 387.62C637.583 387.699 637.532 387.78 637.471 387.86C637.307 388.076 637.146 388.292 636.996 388.51C636.913 388.63 636.838 388.752 636.76 388.873C636.632 389.07 636.508 389.268 636.392 389.467C636.36 389.522 636.322 389.576 636.291 389.63C636.245 389.712 636.209 389.794 636.165 389.875C636.074 390.043 635.987 390.212 635.904 390.381C635.835 390.522 635.769 390.663 635.707 390.804C635.631 390.975 635.559 391.145 635.491 391.316C635.461 391.392 635.423 391.468 635.396 391.544C635.37 391.612 635.352 391.681 635.328 391.75C635.271 391.912 635.217 392.075 635.167 392.238C635.121 392.386 635.077 392.533 635.037 392.681C634.993 392.845 634.954 393.009 634.917 393.173C634.898 393.261 634.87 393.349 634.853 393.438C634.84 393.498 634.835 393.558 634.824 393.618C634.793 393.786 634.768 393.954 634.745 394.122C634.724 394.269 634.704 394.416 634.689 394.564C634.672 394.733 634.662 394.903 634.653 395.072C634.648 395.171 634.634 395.27 634.632 395.369C634.629 395.468 634.627 396.921 634.627 397.02L634.604 405.166C634.604 404.968 634.619 404.771 634.63 404.573C634.639 404.404 634.649 404.234 634.666 404.065C634.681 403.917 634.701 403.77 634.722 403.622C634.745 403.455 634.77 403.287 634.801 403.12C634.828 402.971 634.86 402.822 634.894 402.674C634.931 402.51 634.97 402.346 635.013 402.183C635.053 402.035 635.098 401.886 635.143 401.738C635.194 401.576 635.247 401.414 635.304 401.253C635.356 401.107 635.412 400.962 635.469 400.816C635.537 400.646 635.608 400.476 635.684 400.307C635.747 400.165 635.813 400.023 635.882 399.882C635.965 399.713 636.053 399.545 636.143 399.377C636.216 399.24 636.291 399.104 636.371 398.969C636.487 398.769 636.611 398.57 636.739 398.373C636.817 398.252 636.892 398.132 636.974 398.012C637.124 397.794 637.285 397.578 637.449 397.362C637.52 397.267 637.587 397.172 637.661 397.077C637.934 396.734 638.226 396.394 638.535 396.059C638.614 395.973 638.699 395.888 638.781 395.803C639.025 395.547 639.279 395.294 639.544 395.044C639.665 394.93 639.786 394.816 639.911 394.702C640.069 394.56 640.231 394.42 640.395 394.28C640.547 394.15 640.702 394.02 640.861 393.892C641.032 393.753 641.209 393.617 641.387 393.48C641.551 393.355 641.717 393.229 641.887 393.105C642.072 392.971 642.263 392.838 642.455 392.706C642.632 392.584 642.81 392.462 642.993 392.342C643.192 392.211 643.397 392.083 643.604 391.955C643.861 391.795 644.114 391.635 644.382 391.479C645.111 391.055 645.875 390.663 646.653 390.287C646.856 390.188 647.062 390.092 647.269 389.996C647.966 389.673 648.682 389.365 649.417 389.078Z" fill="#CC096A"/>
<path d="M644.554 410.896L644.532 419.042L630.446 427.227L630.469 419.08L644.554 410.896Z" fill="#CC096A"/>
<path d="M630.47 419.08L630.446 427.226C619.871 421.121 614.591 413.108 614.614 405.108L614.637 396.962C614.614 404.962 619.895 412.975 630.47 419.08Z" fill="#CC096A"/>
<path d="M706.065 375.149L691.98 383.334C678.799 375.724 657.494 375.724 644.398 383.334C631.302 390.944 631.372 403.285 644.553 410.895L630.468 419.081C609.451 406.947 609.347 387.279 630.221 375.149C651.096 363.019 685.049 363.015 706.065 375.149Z" fill="#FF5668"/>
<path d="M691.982 385.828L691.958 391.48C698.588 395.307 701.899 400.333 701.885 405.352L701.908 397.206C701.922 392.187 698.611 389.655 691.982 385.828Z" fill="#3278CC"/>
<path d="M705.888 421.806L705.865 427.459L691.689 419.273L691.712 413.62L705.888 421.806Z" fill="#3278CC"/>
<path d="M721.852 398.206C721.837 398.476 721.821 398.747 721.795 399.017C721.772 399.251 721.739 399.486 721.706 399.719C721.668 399.988 721.63 400.256 721.58 400.524C721.536 400.76 721.485 400.996 721.432 401.232C721.373 401.494 721.311 401.755 721.241 402.016C721.178 402.252 721.107 402.488 721.034 402.723C720.954 402.983 720.869 403.242 720.777 403.5C720.695 403.732 720.607 403.962 720.515 404.193C720.407 404.465 720.293 404.735 720.173 405.005C720.072 405.232 719.967 405.458 719.857 405.684C719.726 405.953 719.586 406.221 719.442 406.488C719.325 406.705 719.206 406.922 719.081 407.137C718.896 407.457 718.696 407.774 718.493 408.09C718.369 408.281 718.25 408.473 718.12 408.663C717.881 409.012 717.623 409.357 717.361 409.702C717.247 409.852 717.142 410.003 717.024 410.152C716.59 410.7 716.125 411.24 715.633 411.775C715.506 411.913 715.37 412.048 715.239 412.185C714.851 412.592 714.446 412.995 714.024 413.393C713.832 413.575 713.639 413.757 713.439 413.937C713.187 414.165 712.928 414.389 712.664 414.613C712.422 414.819 712.178 415.025 711.927 415.228C711.653 415.449 711.37 415.668 711.085 415.886C710.823 416.086 710.56 416.286 710.288 416.483C709.992 416.698 709.687 416.91 709.381 417.121C709.099 417.315 708.817 417.509 708.525 417.7C708.208 417.909 707.88 418.113 707.551 418.317C707.142 418.572 706.737 418.828 706.309 419.076C706.17 419.157 706.03 419.231 705.892 419.312L705.869 427.458C706.008 427.377 706.148 427.303 706.286 427.222C706.507 427.094 706.725 426.965 706.941 426.835C707.142 426.714 707.328 426.587 707.526 426.465C707.856 426.26 708.185 426.054 708.504 425.845C708.794 425.655 709.075 425.462 709.355 425.269C709.663 425.057 709.969 424.844 710.266 424.629C710.537 424.432 710.8 424.232 711.062 424.032C711.347 423.814 711.629 423.596 711.903 423.374C712.155 423.171 712.399 422.966 712.641 422.759C712.904 422.535 713.164 422.31 713.416 422.083C713.519 421.99 713.632 421.9 713.734 421.806C713.829 421.719 713.909 421.627 714.002 421.539C714.424 421.141 714.828 420.738 715.216 420.331C715.346 420.194 715.483 420.059 715.609 419.921C716.101 419.387 716.567 418.846 717.001 418.298C717.02 418.275 717.042 418.252 717.06 418.229C717.159 418.103 717.242 417.974 717.338 417.848C717.6 417.503 717.857 417.158 718.096 416.81C718.226 416.62 718.346 416.427 718.47 416.235C718.674 415.919 718.873 415.603 719.059 415.284C719.109 415.197 719.17 415.112 719.219 415.024C719.292 414.895 719.351 414.763 719.421 414.633C719.565 414.367 719.704 414.099 719.835 413.831C719.946 413.605 720.051 413.378 720.153 413.15C720.273 412.881 720.387 412.61 720.494 412.339C720.543 412.218 720.602 412.097 720.648 411.975C720.689 411.866 720.718 411.756 720.757 411.646C720.849 411.388 720.933 411.13 721.013 410.871C721.087 410.634 721.157 410.398 721.221 410.161C721.291 409.901 721.354 409.64 721.411 409.379C721.443 409.238 721.485 409.097 721.514 408.956C721.533 408.861 721.541 408.766 721.559 408.671C721.608 408.404 721.647 408.136 721.685 407.868C721.718 407.633 721.75 407.398 721.774 407.163C721.8 406.893 721.817 406.624 721.831 406.355C721.839 406.196 721.86 406.038 721.864 405.88C721.869 405.722 721.872 405.566 721.872 405.409L721.895 397.263C721.892 397.576 721.869 397.891 721.852 398.206Z" fill="#3278CC"/>
<path d="M706.066 377.643C727.077 389.773 727.181 409.44 706.307 421.57C706.168 421.652 706.029 421.725 705.89 421.806L691.713 413.621C691.852 413.54 691.992 413.467 692.131 413.385C705.227 405.775 705.157 393.435 691.982 385.828L706.066 377.643Z" fill="#32A0EF"/>
<path d="M697.924 431.174C698.511 430.949 699.09 430.716 699.663 430.475C700.007 430.332 700.35 430.189 700.689 430.041C701.298 429.773 701.894 429.493 702.487 429.208C702.769 429.073 703.056 428.943 703.335 428.803C704.196 428.372 705.042 427.927 705.865 427.458L705.888 425.642C705.066 426.11 704.219 426.555 703.359 426.986C703.079 427.126 702.79 427.257 702.506 427.393C701.915 427.677 701.32 427.957 700.713 428.223C700.374 428.372 700.029 428.515 699.686 428.659C699.112 428.899 698.533 429.132 697.947 429.358C697.588 429.495 697.227 429.631 696.865 429.763C696.265 429.982 695.659 430.192 695.046 430.394C694.662 430.522 694.279 430.653 693.89 430.775C693.597 430.866 693.302 430.954 693.005 431.043C692.466 431.204 691.923 431.36 691.377 431.51C691.073 431.594 690.77 431.677 690.464 431.757C689.886 431.908 689.305 432.05 688.72 432.189C688.45 432.253 688.183 432.319 687.912 432.381C687.06 432.573 686.18 432.755 685.315 432.921V434.738C686.18 434.572 687.038 434.389 687.891 434.197C688.16 434.136 688.426 434.07 688.694 434.006C689.279 433.868 689.862 433.725 690.441 433.574C690.747 433.494 691.051 433.411 691.354 433.327C691.901 433.177 692.443 433.022 692.981 432.86C693.278 432.771 693.574 432.683 693.868 432.591C694.02 432.544 694.174 432.501 694.325 432.453C694.561 432.377 694.788 432.289 695.023 432.211C695.635 432.007 696.241 431.799 696.842 431.58C697.205 431.448 697.566 431.313 697.924 431.174Z" fill="#E2A029"/>
<path d="M705.888 425.641C699.477 429.166 692.537 431.624 685.337 432.92L678.782 421.969C683.307 421.172 687.673 419.648 691.711 417.456L705.888 425.641Z" fill="#FFBE3D"/>
<path d="M683.025 431.739C682.488 431.827 681.952 431.919 681.412 431.997C680.782 432.087 680.148 432.162 679.515 432.239C678.975 432.305 678.437 432.376 677.894 432.432C676.892 432.536 675.886 432.624 674.876 432.695C674.785 432.702 674.695 432.712 674.605 432.718C673.487 432.793 672.367 432.843 671.245 432.877C670.96 432.886 670.674 432.888 670.388 432.894C669.561 432.911 668.733 432.918 667.904 432.914C667.561 432.912 667.218 432.909 666.875 432.903C665.96 432.888 665.045 432.86 664.131 432.818C663.957 432.81 663.783 432.807 663.608 432.798C662.53 432.742 661.455 432.665 660.382 432.57C660.1 432.545 659.818 432.515 659.536 432.488C658.706 432.408 657.878 432.316 657.053 432.213C656.755 432.175 656.456 432.14 656.158 432.099C655.09 431.955 654.026 431.797 652.971 431.614L652.949 431.611C651.902 431.429 650.865 431.221 649.835 431.001C649.468 430.923 649.104 430.837 648.739 430.755C648.033 430.594 647.331 430.424 646.634 430.246C646.252 430.148 645.873 430.048 645.495 429.945C644.892 429.78 644.297 429.603 643.702 429.425C643.157 429.261 642.613 429.095 642.075 428.919C641.526 428.74 640.985 428.551 640.445 428.36C639.916 428.172 639.388 427.983 638.867 427.784C638.076 427.481 637.29 427.173 636.521 426.843C636.445 426.811 636.366 426.781 636.29 426.749C635.39 426.359 634.512 425.945 633.646 425.518C633.436 425.415 633.228 425.311 633.02 425.205C632.154 424.765 631.299 424.313 630.471 423.835L630.448 427.227C631.276 427.705 632.131 428.157 632.997 428.597C633.205 428.703 633.413 428.807 633.622 428.911C634.489 429.337 635.367 429.751 636.267 430.141C636.343 430.174 636.42 430.203 636.495 430.236C637.065 430.48 637.636 430.72 638.217 430.949C638.422 431.03 638.636 431.098 638.842 431.177C639.364 431.377 639.893 431.566 640.425 431.754C640.963 431.944 641.502 432.133 642.049 432.311C642.588 432.487 643.134 432.653 643.681 432.819C644.014 432.919 644.339 433.031 644.674 433.127C644.936 433.202 645.206 433.265 645.468 433.337C645.848 433.441 646.23 433.542 646.613 433.64C647.308 433.819 648.008 433.988 648.714 434.147C649.08 434.23 649.444 434.317 649.813 434.395C649.973 434.429 650.13 434.47 650.29 434.503C651.163 434.683 652.041 434.85 652.925 435.004L652.958 435.009C653.829 435.16 654.705 435.298 655.585 435.423C655.768 435.449 655.952 435.468 656.136 435.493C656.434 435.533 656.733 435.569 657.031 435.607C657.856 435.71 658.683 435.801 659.514 435.882C659.796 435.909 660.077 435.939 660.36 435.964C660.506 435.976 660.651 435.994 660.796 436.006C661.723 436.082 662.653 436.144 663.584 436.191C663.761 436.2 663.938 436.204 664.116 436.212C664.768 436.242 665.42 436.272 666.073 436.289C666.332 436.295 666.593 436.292 666.852 436.297C667.196 436.302 667.539 436.305 667.882 436.307C668.711 436.312 669.538 436.305 670.366 436.287C670.651 436.281 670.937 436.279 671.223 436.27C671.338 436.267 671.452 436.268 671.567 436.264C672.574 436.229 673.58 436.178 674.583 436.111C674.674 436.105 674.765 436.095 674.856 436.088C675.744 436.026 676.63 435.955 677.513 435.868C677.634 435.856 677.752 435.838 677.872 435.826C678.415 435.769 678.953 435.698 679.493 435.632C680.127 435.555 680.76 435.48 681.389 435.39C681.931 435.312 682.466 435.219 683.004 435.132C683.467 435.056 683.934 434.993 684.395 434.91C684.703 434.854 685.01 434.797 685.316 434.739L685.339 431.347C684.573 431.492 683.798 431.613 683.025 431.739Z" fill="#7974F5"/>
<path d="M678.783 420.384L685.338 431.336C666.718 434.913 645.348 432.415 630.47 423.825L644.555 415.64C653.838 421 667.151 422.577 678.783 420.384Z" fill="#B391FF"/>
<path d="M709.092 106.84C708.949 106.758 708.807 106.679 708.665 106.602C708.481 106.502 708.297 106.407 708.115 106.317C707.932 106.227 707.751 106.141 707.571 106.061C707.391 105.98 707.212 105.904 707.034 105.833C706.852 105.76 706.672 105.692 706.493 105.629C706.458 105.617 706.423 105.607 706.389 105.595L706.349 105.582C706.217 105.538 706.085 105.493 705.955 105.454C705.769 105.397 705.584 105.347 705.401 105.301C705.218 105.255 705.033 105.214 704.851 105.178C704.653 105.14 704.457 105.108 704.264 105.082C704.131 105.064 704 105.054 703.87 105.042L703.811 105.036C703.763 105.032 703.714 105.024 703.667 105.021C703.454 105.006 703.245 104.999 703.038 105C702.802 105.001 702.57 105.012 702.342 105.033C702.083 105.057 701.826 105.094 701.57 105.145L701.551 105.15L701.528 105.157C701.224 105.219 700.926 105.301 700.634 105.403C700.257 105.537 699.894 105.705 699.549 105.905L690.66 111.071C691.274 110.717 691.942 110.464 692.636 110.324L692.663 110.316C693.406 110.171 694.167 110.133 694.921 110.202L694.982 110.209C695.826 110.292 696.658 110.473 697.46 110.75L697.498 110.762C698.437 111.089 699.342 111.506 700.201 112.008L948.497 255.361L957.386 250.196L709.092 106.84Z" fill="url(#paint3_linear_1578_22)"/>
<path d="M970.743 272.735C970.736 272.52 970.726 272.303 970.712 272.086C970.699 271.868 970.681 271.65 970.66 271.433C970.639 271.215 970.615 270.996 970.587 270.776C970.559 270.552 970.527 270.327 970.492 270.102L970.489 270.083L970.487 270.069C970.453 269.854 970.415 269.639 970.375 269.423C970.331 269.191 970.283 268.958 970.232 268.724C970.181 268.49 970.127 268.256 970.069 268.022C970.01 267.784 969.948 267.547 969.882 267.31C969.831 267.126 969.777 266.942 969.721 266.759L969.708 266.715C969.697 266.677 969.687 266.639 969.675 266.601C969.604 266.37 969.53 266.139 969.453 265.908C969.377 265.68 969.298 265.452 969.215 265.225C969.136 265.006 969.053 264.787 968.968 264.57C968.883 264.352 968.795 264.135 968.706 263.919C968.637 263.752 968.565 263.587 968.493 263.421L968.48 263.39L968.431 263.278C968.335 263.06 968.236 262.844 968.136 262.628C968.025 262.392 967.911 262.157 967.794 261.924C967.66 261.655 967.522 261.388 967.38 261.122C967.227 260.836 967.064 260.554 966.902 260.272C966.874 260.222 966.848 260.172 966.819 260.123C966.785 260.064 966.754 260.004 966.719 259.945C966.403 259.407 966.071 258.879 965.725 258.361C965.451 257.951 965.168 257.548 964.877 257.152C964.682 256.888 964.483 256.627 964.281 256.371C964.111 256.155 963.939 255.942 963.764 255.732C963.594 255.527 963.421 255.325 963.246 255.126C963.074 254.93 962.901 254.738 962.725 254.548C962.69 254.51 962.654 254.475 962.619 254.437L962.581 254.397C962.447 254.255 962.314 254.112 962.177 253.974C961.991 253.784 961.803 253.598 961.613 253.416C961.418 253.229 961.221 253.046 961.023 252.868C960.824 252.689 960.626 252.515 960.427 252.347C960.326 252.262 960.225 252.182 960.123 252.1L960.054 252.043C959.978 251.983 959.905 251.919 959.829 251.859C959.634 251.705 959.438 251.556 959.24 251.41C959.047 251.268 958.852 251.129 958.657 250.995C958.468 250.866 958.278 250.74 958.087 250.618C957.899 250.498 957.709 250.382 957.519 250.27C957.475 250.244 957.431 250.219 957.386 250.193L948.497 255.359C949.434 255.905 950.327 256.524 951.167 257.21L951.233 257.264C952.102 257.976 952.923 258.743 953.692 259.562L953.73 259.602C955.339 261.333 956.748 263.24 957.929 265.288C957.958 265.338 957.985 265.388 958.013 265.438C958.594 266.447 959.119 267.487 959.587 268.552L959.604 268.59C960.072 269.662 960.478 270.761 960.817 271.88L960.83 271.924C961.158 273.009 961.414 274.116 961.595 275.235L961.597 275.248C961.772 276.325 961.86 277.415 961.86 278.506L961.379 448.156C961.381 449.125 961.289 450.092 961.106 451.043L961.089 451.126C960.93 451.939 960.676 452.732 960.332 453.487L960.313 453.532C960.041 454.089 959.703 454.611 959.307 455.088C959.184 455.244 959.068 455.408 958.935 455.55C958.508 456.021 958.015 456.428 957.47 456.757L966.359 451.592C966.903 451.262 967.397 450.855 967.824 450.384C967.957 450.242 968.072 450.08 968.196 449.924C968.368 449.733 968.529 449.533 968.679 449.325C968.867 449.03 969.036 448.724 969.185 448.408L969.204 448.365L969.222 448.324C969.323 448.105 969.42 447.881 969.507 447.646C969.592 447.418 969.67 447.183 969.742 446.94C969.807 446.717 969.867 446.489 969.92 446.255C969.942 446.159 969.96 446.058 969.98 445.96L969.996 445.878C970.015 445.784 970.036 445.694 970.053 445.598C970.089 445.389 970.121 445.175 970.148 444.957C970.174 444.745 970.196 444.53 970.214 444.311C970.232 444.103 970.244 443.892 970.254 443.678C970.263 443.464 970.268 443.249 970.269 443.029V442.991L970.75 273.341C970.751 273.14 970.749 272.938 970.743 272.735Z" fill="url(#paint4_linear_1578_22)"/>
<path d="M948.499 255.36C952.395 257.89 955.636 261.306 957.959 265.329C960.282 269.352 961.619 273.868 961.863 278.507L961.382 448.156C961.358 456.669 955.339 460.099 947.931 455.822L699.635 312.468C695.74 309.938 692.498 306.522 690.175 302.499C687.853 298.476 686.515 293.96 686.271 289.322L686.752 119.672C686.777 111.159 692.795 107.73 700.203 112.007L948.499 255.36Z" fill="#343996"/>
<path d="M876.549 185.798C877.774 186.593 878.792 187.667 879.522 188.931C880.253 190.196 880.673 191.615 880.75 193.073L880.598 246.398C880.59 249.074 878.698 250.152 876.37 248.808L798.324 203.748C797.1 202.953 796.081 201.879 795.351 200.615C794.621 199.35 794.2 197.931 794.124 196.473L794.276 143.148C794.283 140.471 796.175 139.394 798.504 140.738L876.549 185.798Z" fill="#32A0EF"/>
<path d="M728.804 162.135L728.797 164.556C728.796 164.881 728.709 165.2 728.546 165.482C728.382 165.763 728.148 165.996 727.866 166.158C727.584 166.32 727.264 166.405 726.938 166.404C726.613 166.404 726.294 166.317 726.012 166.154L714.594 159.529C714.312 159.366 714.079 159.131 713.917 158.848C713.754 158.566 713.67 158.246 713.67 157.92L713.677 155.499C713.678 155.174 713.765 154.854 713.928 154.573C714.092 154.292 714.326 154.058 714.608 153.896C714.891 153.734 715.21 153.65 715.536 153.65C715.861 153.651 716.181 153.737 716.462 153.901L727.88 160.526C728.162 160.689 728.396 160.924 728.558 161.206C728.72 161.489 728.805 161.809 728.804 162.135Z" fill="white"/>
<path d="M764.922 195.02L764.916 197.446C764.915 197.771 764.828 198.09 764.665 198.371C764.502 198.652 764.268 198.886 763.986 199.048C763.705 199.21 763.385 199.295 763.06 199.295C762.735 199.295 762.416 199.209 762.134 199.046L714.563 171.581C714.281 171.417 714.046 171.183 713.883 170.9C713.72 170.617 713.635 170.296 713.636 169.97L713.643 167.544C713.644 167.219 713.73 166.9 713.893 166.619C714.057 166.337 714.291 166.104 714.572 165.942C714.854 165.78 715.173 165.695 715.498 165.695C715.824 165.695 716.143 165.781 716.424 165.943L763.996 193.409C764.279 193.572 764.513 193.807 764.676 194.09C764.838 194.373 764.923 194.694 764.922 195.02Z" fill="#1AE5FF"/>
<path d="M706.915 274.292L725.854 264.634L738.24 284.643L752.058 298.698L765.876 290.361L795.415 280.832L808.756 299.89L822.097 310.849L834.246 328.716L850.683 294.173L870.695 303.702L881.177 295.126L902.856 300.843L935.017 297.985" stroke="#16C5DC" stroke-miterlimit="10"/>
<path d="M852.678 194.808L852.674 196.207C852.674 196.395 852.624 196.579 852.529 196.742C852.435 196.905 852.299 197.04 852.136 197.133C851.973 197.227 851.788 197.276 851.6 197.276C851.412 197.275 851.228 197.225 851.065 197.131L844.465 193.302C844.303 193.207 844.168 193.071 844.074 192.908C843.98 192.745 843.931 192.56 843.932 192.371L843.936 190.972C843.936 190.784 843.986 190.6 844.081 190.437C844.175 190.274 844.311 190.139 844.474 190.046C844.637 189.952 844.822 189.903 845.01 189.904C845.198 189.904 845.382 189.954 845.545 190.048L852.144 193.877C852.307 193.971 852.442 194.107 852.536 194.271C852.63 194.434 852.679 194.619 852.678 194.808Z" fill="white"/>
<path d="M873.555 213.816L873.551 215.218C873.55 215.406 873.5 215.59 873.406 215.753C873.312 215.915 873.176 216.05 873.014 216.143C872.851 216.237 872.666 216.286 872.478 216.286C872.291 216.286 872.106 216.236 871.943 216.143L844.448 200.269C844.284 200.174 844.149 200.039 844.054 199.875C843.96 199.712 843.911 199.526 843.912 199.338L843.916 197.936C843.916 197.748 843.966 197.563 844.061 197.401C844.155 197.238 844.29 197.103 844.453 197.01C844.616 196.916 844.8 196.867 844.988 196.867C845.176 196.867 845.361 196.917 845.523 197.01L873.019 212.885C873.182 212.979 873.318 213.115 873.412 213.278C873.506 213.442 873.555 213.627 873.555 213.816Z" fill="white"/>
<g opacity="0.53">
<path d="M862.178 221.202L862.175 222.604C862.174 222.792 862.124 222.976 862.03 223.139C861.936 223.301 861.8 223.436 861.638 223.53C861.475 223.624 861.29 223.673 861.102 223.673C860.914 223.673 860.73 223.623 860.567 223.529L844.407 214.199C844.244 214.105 844.108 213.97 844.014 213.806C843.92 213.643 843.871 213.458 843.872 213.269L843.876 211.867C843.876 211.679 843.926 211.495 844.02 211.332C844.115 211.17 844.25 211.035 844.413 210.941C844.575 210.847 844.76 210.798 844.948 210.798C845.136 210.798 845.32 210.848 845.483 210.942L861.643 220.272C861.806 220.366 861.941 220.502 862.036 220.665C862.13 220.828 862.179 221.014 862.178 221.202Z" fill="white"/>
</g>
<path d="M869.27 218.319L869.266 219.722C869.266 219.909 869.216 220.094 869.122 220.256C869.028 220.419 868.892 220.554 868.729 220.647C868.567 220.741 868.382 220.79 868.194 220.79C868.006 220.79 867.822 220.741 867.659 220.647L844.427 207.234C844.264 207.139 844.128 207.004 844.034 206.84C843.94 206.677 843.891 206.492 843.891 206.304L843.895 204.901C843.895 204.713 843.945 204.529 844.04 204.366C844.134 204.204 844.269 204.069 844.432 203.975C844.595 203.882 844.779 203.832 844.967 203.833C845.155 203.833 845.34 203.882 845.502 203.976L868.735 217.389C868.898 217.484 869.033 217.619 869.127 217.782C869.222 217.946 869.271 218.131 869.27 218.319Z" fill="#58AFFB"/>
<path d="M935.081 280.392C927.071 275.768 920.536 279.492 920.51 288.696C920.484 297.9 926.977 309.106 934.987 313.73C942.997 318.354 949.496 314.65 949.523 305.447C949.261 300.428 947.817 295.542 945.307 291.188C942.797 286.833 939.293 283.134 935.081 280.392Z" fill="#FF4272"/>
<path d="M935.047 289.526C931.426 287.435 928.471 289.119 928.46 293.28C928.581 295.549 929.238 297.757 930.375 299.724C931.513 301.69 933.099 303.361 935.005 304.598C938.626 306.688 941.565 305.014 941.577 300.853C941.458 298.583 940.805 296.375 939.67 294.406C938.536 292.438 936.951 290.765 935.047 289.526Z" fill="#212973"/>
<path d="M729.803 193.484V195.981C729.803 196.316 729.715 196.646 729.547 196.936C729.38 197.227 729.139 197.468 728.848 197.636C728.558 197.804 728.228 197.893 727.893 197.893C727.557 197.893 727.228 197.806 726.937 197.638L715.139 190.841C714.847 190.674 714.605 190.432 714.437 190.141C714.269 189.851 714.181 189.52 714.181 189.185V186.688C714.181 186.353 714.269 186.023 714.436 185.732C714.604 185.442 714.845 185.2 715.136 185.032C715.426 184.864 715.756 184.776 716.091 184.775C716.427 184.775 716.756 184.863 717.047 185.03L728.846 191.826C729.137 191.994 729.379 192.236 729.547 192.527C729.715 192.818 729.803 193.148 729.803 193.484Z" fill="#1CE5FF"/>
<path d="M767.164 227.29V229.792C767.164 230.127 767.076 230.457 766.908 230.747C766.741 231.038 766.5 231.279 766.21 231.447C765.92 231.615 765.591 231.704 765.256 231.705C764.921 231.706 764.591 231.618 764.3 231.452L715.144 203.272C714.852 203.104 714.609 202.863 714.44 202.572C714.271 202.281 714.182 201.95 714.182 201.614V199.111C714.182 198.776 714.27 198.446 714.437 198.156C714.605 197.865 714.845 197.624 715.135 197.456C715.425 197.288 715.755 197.199 716.09 197.198C716.425 197.197 716.755 197.284 717.046 197.451L766.202 225.631C766.495 225.799 766.737 226.04 766.906 226.331C767.075 226.622 767.164 226.953 767.164 227.29Z" fill="#1CE5FF"/>
<g opacity="0.53">
<path d="M746.905 240.535V243.037C746.905 243.372 746.817 243.701 746.649 243.992C746.482 244.282 746.241 244.524 745.951 244.692C745.661 244.86 745.332 244.949 744.997 244.95C744.662 244.95 744.332 244.863 744.041 244.696L715.151 228.135C714.859 227.968 714.616 227.726 714.447 227.435C714.278 227.143 714.189 226.813 714.189 226.476V223.974C714.189 223.639 714.277 223.309 714.444 223.019C714.611 222.728 714.852 222.487 715.142 222.319C715.432 222.15 715.761 222.062 716.097 222.061C716.432 222.06 716.762 222.147 717.052 222.314L745.943 238.876C746.235 239.043 746.477 239.285 746.646 239.576C746.815 239.867 746.904 240.198 746.905 240.535Z" fill="#1CE5FF"/>
</g>
<path d="M759.544 235.352V237.854C759.544 238.189 759.456 238.518 759.289 238.809C759.122 239.099 758.881 239.341 758.591 239.509C758.301 239.677 757.972 239.766 757.636 239.766C757.301 239.767 756.971 239.68 756.681 239.513L715.146 215.703C714.854 215.536 714.612 215.294 714.443 215.003C714.274 214.712 714.185 214.381 714.185 214.045L714.184 211.542C714.184 211.207 714.272 210.878 714.44 210.587C714.607 210.297 714.848 210.055 715.138 209.887C715.428 209.719 715.757 209.63 716.092 209.629C716.427 209.629 716.757 209.716 717.048 209.883L758.582 233.693C758.875 233.86 759.117 234.102 759.286 234.393C759.455 234.684 759.544 235.015 759.544 235.352Z" fill="#1CE5FF"/>
<path d="M899.412 405L906.115 401.105L905.986 446.607L899.283 450.502L899.412 405Z" fill="#00A935"/>
<path d="M913.096 403.785V403.731L913.094 403.676L913.089 403.62L913.083 403.564L913.075 403.507L913.065 403.45L913.053 403.391L913.05 403.378V403.374L913.04 403.331L913.024 403.271L913.006 403.21L912.987 403.149L912.967 403.092L912.945 403.033L912.921 402.975L912.896 402.915L912.869 402.855L912.839 402.795L891.972 361.255L891.946 361.204C891.928 361.17 891.909 361.137 891.889 361.103C891.855 361.048 891.822 360.994 891.786 360.941C891.764 360.909 891.742 360.878 891.719 360.846L891.67 360.782L891.624 360.725L891.58 360.673L891.555 360.646L891.553 360.643L891.534 360.622L891.486 360.572L891.436 360.522L891.384 360.473L891.331 360.427L891.277 360.383L891.225 360.343L891.173 360.307L891.123 360.274L891.074 360.243L891.062 360.237L891.024 360.216L890.976 360.191L890.928 360.168L890.88 360.149L890.833 360.13L890.785 360.114L890.736 360.1L890.686 360.09L890.635 360.081L890.616 360.079H890.614L890.583 360.076C890.564 360.076 890.545 360.074 890.528 360.074L890.468 360.077C890.445 360.079 890.423 360.082 890.401 360.086C890.373 360.092 890.346 360.099 890.319 360.108C890.286 360.121 890.253 360.136 890.222 360.153L883.519 364.048C883.638 363.982 883.776 363.956 883.911 363.974H883.913C884.071 363.995 884.223 364.049 884.36 364.132C884.544 364.241 884.709 364.378 884.851 364.538L884.853 364.541C885.018 364.724 885.158 364.929 885.269 365.149L906.133 406.686C906.227 406.871 906.298 407.067 906.346 407.269V407.271C906.385 407.437 906.399 407.608 906.389 407.779V407.781C906.38 407.918 906.345 408.053 906.283 408.176L906.279 408.184C906.226 408.289 906.145 408.376 906.045 408.437L912.748 404.542C912.83 404.493 912.899 404.425 912.95 404.345C912.961 404.327 912.972 404.308 912.981 404.289L912.986 404.281L912.997 404.262C913.008 404.238 913.019 404.214 913.028 404.189L913.048 404.127L913.065 404.064L913.076 404.007L913.085 403.948L913.09 403.894V403.886V403.883L913.093 403.839L913.096 403.785Z" fill="#61E041"/>
<path d="M884.36 364.132C884.753 364.379 885.068 364.732 885.269 365.15L906.133 406.686C906.75 407.922 906.2 408.919 905.216 408.351L899.413 405L899.284 450.501L868.804 432.904L868.934 387.402L863.324 384.164C862.328 383.588 861.785 381.962 862.419 381.447L883.45 364.099C883.586 364.01 883.747 363.966 883.91 363.972C884.073 363.978 884.23 364.034 884.36 364.132Z" fill="#00CC41"/>
<path d="M668.031 461.144L728.328 522.692L786.89 507.466L726.593 445.918L668.031 461.144Z" fill="white"/>
<path d="M732.771 464.915L726.998 467.098C724.571 465.37 721.776 464.229 718.834 463.764C715.891 463.299 712.881 463.523 710.04 464.418C709.935 464.458 709.835 464.5 709.733 464.542L704.942 460.601C705.045 460.559 705.147 460.518 705.252 460.479C709.868 459.023 714.759 458.666 719.537 459.436C724.315 460.206 728.847 462.082 732.771 464.915Z" fill="#E2EDFF"/>
<path d="M733.503 465.529C739.105 470.485 738.78 476.427 733.089 479.892L728.151 475.83C730.76 473.685 730.7 470.473 727.723 467.716L733.503 465.529Z" fill="#E2EDFF"/>
<path d="M732.315 480.33C731.699 480.653 731.064 480.937 730.413 481.182C722.248 484.27 710.238 482.381 703.202 476.987L708.981 474.801C711.393 476.436 714.142 477.505 717.025 477.928C719.907 478.35 722.848 478.117 725.627 477.243C726.267 477.005 726.881 476.7 727.457 476.332L732.315 480.33Z" fill="#3EABFF"/>
<path d="M708.899 464.929C704.851 467.04 704.491 470.969 708.223 474.198L702.45 476.381C696.077 470.972 696.868 464.304 704.085 460.968L708.899 464.929Z" fill="#3EABFF"/>
<path d="M726.787 765.582C726.787 765.582 722.059 768.833 726.492 776.516C730.924 784.2 734.766 779.471 744.812 787.154C754.859 794.837 758.404 796.314 763.723 795.723C769.043 795.132 772.293 792.473 773.179 789.518C774.066 786.563 771.406 781.54 771.406 781.54L726.787 765.582Z" fill="#94A3C0"/>
<path d="M769.339 765.878C769.339 765.878 771.408 775.925 772.589 783.608C772.885 787.154 768.157 791.979 761.361 791.685C754.564 791.39 750.723 789.321 748.359 786.366C745.995 783.411 731.22 777.698 728.561 775.334C725.902 772.97 725.311 765.878 726.492 764.105C727.698 762.606 729.357 761.536 731.221 761.057C733.085 760.578 735.054 760.714 736.834 761.446C741.562 763.515 745.403 767.356 754.859 767.947C764.315 768.538 769.339 765.878 769.339 765.878Z" fill="#382747"/>
<path d="M773.673 739.973C773.673 739.973 768.945 743.223 773.377 750.906C777.809 758.589 781.651 753.861 791.697 761.544C801.744 769.227 805.289 770.704 810.609 770.113C815.929 769.522 819.178 766.863 820.065 763.908C820.951 760.953 818.292 755.93 818.292 755.93L773.673 739.973Z" fill="#94A3C0"/>
<path d="M816.223 740.269C816.223 740.269 818.292 750.315 819.474 757.999C819.769 761.545 815.041 766.37 808.245 766.076C801.449 765.781 797.607 763.712 795.243 760.757C792.879 757.802 778.105 752.089 775.445 749.725C772.786 747.361 772.195 740.269 773.376 738.496C774.583 736.997 776.241 735.927 778.105 735.448C779.969 734.969 781.939 735.105 783.719 735.837C788.446 737.906 792.288 741.747 801.743 742.338C811.199 742.929 816.223 740.269 816.223 740.269Z" fill="#382747"/>
<path d="M779.483 658.516C781.847 677.427 791.303 727.07 792.879 744.405C792.879 744.405 796.819 750.709 808.638 749.133L814.248 746.796C815.348 746.34 816.267 745.537 816.866 744.508C817.464 743.48 817.709 742.283 817.562 741.103C816.374 731.543 813.7 707.471 814.943 693.187C816.518 675.064 811.792 664.032 811.792 664.032C812.186 658.122 812.974 637.635 801.154 632.119C801.154 632.119 772.195 626.8 779.483 658.516Z" fill="#14347C"/>
<path d="M803.517 640.787L800.366 647.091C800.366 647.091 751.905 649.455 738.904 663.638C738.904 663.638 730.236 665.214 732.6 684.126C734.964 703.037 744.419 752.679 745.995 770.015C745.995 770.015 749.935 776.319 761.755 774.743L767.365 772.405C768.464 771.95 769.384 771.146 769.982 770.118C770.581 769.089 770.826 767.893 770.679 766.712C769.49 757.153 766.817 733.08 768.059 718.796C769.635 700.673 764.908 689.641 764.908 689.641C780.001 692.724 794.774 697.209 809.034 703.037C831.886 712.493 851.585 701.461 860.253 696.733C864.509 694.614 868.48 691.967 872.073 688.853C879.92 688.363 887.392 685.319 893.348 680.186C903.591 671.518 905.167 648.667 894.136 635.271C883.104 621.876 803.517 640.787 803.517 640.787Z" fill="#18388F"/>
<path d="M820.853 521.015C820.853 521.015 828.684 518.112 828.169 507.652C825.791 497.351 822.919 496.658 822.919 496.658C822.919 496.658 833.874 486.535 847.087 489.725C847.087 489.725 855.248 506.286 864.48 513.377C864.48 513.377 857.1 532.834 820.853 521.015Z" fill="#CE7C56"/>
<path d="M837.991 526.925C837.991 526.925 866.949 502.695 872.859 502.104C879.95 501.513 888.815 503.877 891.179 513.923C892.225 517.802 891.984 521.916 890.492 525.645C889 529.375 886.338 532.52 882.906 534.608C877.587 537.563 830.899 560.02 822.625 560.02C814.351 560.02 809.034 552.928 814.352 544.063C819.67 535.199 837.991 526.925 837.991 526.925Z" fill="#E2A029"/>
<path d="M846.856 510.771C846.856 510.771 816.125 521.015 807.458 535.198C798.79 549.382 800.366 565.141 806.67 587.204C812.973 609.268 800.366 628.967 803.518 640.787C806.671 652.607 828.734 663.638 861.041 658.122C893.347 652.606 895.711 639.999 898.076 632.907C900.441 625.815 891.772 591.932 899.652 564.353C907.531 536.774 891.772 517.863 885.468 513.135C879.164 508.407 866.556 502.103 846.856 510.771Z" fill="#FFBE3D"/>
<path d="M885.467 513.135C879.163 508.407 866.555 502.103 846.855 510.771C846.855 510.771 816.125 521.015 807.457 535.198C805.423 538.509 803.885 542.1 802.893 545.857C815.337 529.682 832.996 522.581 844.491 550.17C855.22 575.918 827.926 651.598 804.077 627.804C802.931 632.037 802.74 636.471 803.518 640.787C806.669 652.606 828.733 663.638 861.04 658.122C893.347 652.606 895.711 639.999 898.075 632.907C900.44 625.815 891.771 591.932 899.651 564.353C907.53 536.774 891.77 517.863 885.467 513.135Z" fill="#E2A029"/>
<path d="M817.503 524.167C817.503 524.167 825.777 529.485 846.462 526.531C867.146 523.576 868.328 508.801 866.555 507.619C864.583 505.838 862.801 503.857 861.236 501.709C861.236 501.709 839.37 511.756 831.687 514.711C824.004 517.666 819.867 519.439 819.867 519.439L817.503 524.167Z" fill="white"/>
<path d="M803.911 459.75C803.911 459.75 802.138 481.025 813.366 495.209C824.595 509.392 835.823 501.118 842.915 497.572C850.008 494.026 852.962 488.117 855.326 470.978C857.69 453.84 857.69 437.292 845.279 431.974C832.869 426.655 819.276 425.473 811.594 438.474C803.911 451.476 803.911 459.75 803.911 459.75Z" fill="#FFAA83"/>
<path d="M812.184 434.337C812.184 434.337 802.137 442.02 802.728 453.249C803.319 464.478 799.773 466.25 800.955 472.16C802.137 478.07 811.593 479.843 812.184 488.117C812.775 496.391 825.186 499.345 831.686 501.708C838.187 504.072 848.825 496.39 851.78 492.253C854.735 488.116 854.144 477.478 857.69 468.023C861.235 458.567 859.463 446.747 856.508 438.474C853.553 430.2 847.643 428.427 847.643 428.427C846.663 426.467 845.248 424.756 843.507 423.424C841.766 422.093 839.745 421.176 837.596 420.744C830.504 419.563 808.638 420.745 812.184 434.337Z" fill="#4D2C63"/>
<path d="M906.895 783.807C905.822 795.731 894.6 803.829 884.476 808.192C873.356 812.795 861.395 815.014 849.364 814.706C837.031 814.736 824.843 812.035 813.677 806.797C804.07 802.07 793.873 793.494 793.906 781.831C793.882 790.323 794.477 797.342 800.597 803.972C808.476 812.509 820.339 817.106 831.498 819.41C853.268 823.904 882.91 821.732 899.448 804.973C906.102 798.23 907.01 791.122 907.036 782.154C907.012 782.707 906.965 783.258 906.895 783.807Z" fill="#ADCDFC"/>
<path d="M890.324 758.809C912.485 771.604 912.627 792.352 890.611 805.146C868.594 817.941 832.749 817.941 810.589 805.146C788.429 792.352 788.337 771.604 810.354 758.809C832.37 746.015 868.164 746.015 890.324 758.809Z" fill="#E2EDFF"/>
<path d="M860.547 732.946L860.406 782.392L851.758 787.419L851.896 737.974L860.547 732.946Z" fill="#C7D8F2"/>
<path d="M851.897 737.974L851.758 787.419L843.051 782.392L843.191 732.946L851.897 737.974Z" fill="#7BAEFF"/>
<path d="M860.547 732.946L851.897 737.975L843.191 732.946L851.842 727.92L860.547 732.946Z" fill="#4DA5DC"/>
<path d="M961.392 564.122C961.336 562.529 960.907 560.971 960.138 559.574C959.369 558.178 958.283 556.981 956.967 556.082C955.65 555.182 954.141 554.604 952.56 554.396C950.98 554.187 949.372 554.353 947.867 554.88C919.602 564.795 854.815 588.275 850.653 596.6C846.686 604.533 833.871 648.846 827.561 671.044C827.135 672.54 826.371 673.919 825.329 675.073C824.286 676.228 822.993 677.128 821.548 677.704C820.103 678.28 818.545 678.517 816.994 678.397C815.444 678.276 813.941 677.802 812.602 677.009L773.446 653.917C771.776 652.933 769.861 652.445 767.924 652.512C765.987 652.578 764.11 653.196 762.512 654.293C760.914 655.39 759.663 656.92 758.904 658.703C758.146 660.486 757.912 662.449 758.231 664.361L764.518 702.082C764.765 703.568 765.34 704.98 766.199 706.218C767.059 707.455 768.183 708.486 769.489 709.236L811.386 733.305C822.913 739.927 835.901 743.594 849.19 743.978C862.479 744.362 875.657 741.452 887.548 735.507L919.846 719.357C933.677 712.442 945.225 701.693 953.113 688.393C961 675.093 964.894 659.804 964.328 644.351L961.392 564.122Z" fill="#3278CC"/>
<path d="M850.653 596.6C846.686 604.533 833.871 648.845 827.561 671.044C827.135 672.54 826.371 673.918 825.329 675.073C824.286 676.228 822.993 677.128 821.548 677.704C820.103 678.28 818.545 678.517 816.994 678.397C815.444 678.276 813.941 677.802 812.602 677.009L773.446 653.917C771.776 652.933 769.861 652.445 767.924 652.512C765.987 652.578 764.11 653.196 762.512 654.293C760.914 655.39 759.663 656.919 758.904 658.703C758.146 660.486 757.912 662.449 758.231 664.361L764.518 702.082C764.673 702.948 764.941 703.79 765.315 704.587C765.813 705.374 766.318 706.157 766.828 706.937C767.574 707.853 768.475 708.631 769.489 709.236L811.386 733.304C820.133 738.328 829.746 741.662 839.724 743.134C873.708 716.764 869.425 606.692 857.1 597.448C855.64 596.294 854.001 595.389 852.247 594.767C851.608 595.274 851.067 595.896 850.653 596.6Z" fill="#32A0EF"/>
<path d="M774.953 563.171C774.953 563.171 803.911 538.941 809.821 538.35C816.913 537.759 825.777 540.123 828.141 550.17C829.187 554.049 828.946 558.162 827.454 561.892C825.962 565.622 823.3 568.767 819.868 570.854C814.549 573.809 767.861 596.266 759.587 596.266C751.314 596.266 745.995 589.175 751.314 580.31C756.633 571.445 774.953 563.171 774.953 563.171Z" fill="#FFBE3D"/>
<path d="M734.176 524.758C733.376 523.164 732.781 521.477 732.403 519.734C732.107 517.665 733.289 515.007 732.107 510.279C730.925 505.551 728.857 501.414 727.97 498.164C725.606 495.209 723.538 500.528 725.311 504.959C727.084 509.391 726.493 512.051 724.72 512.347C722.947 512.642 715.56 508.21 713.491 505.846C711.423 503.482 699.603 491.958 698.421 493.435C697.239 494.913 697.239 496.39 701.376 500.823C705.513 505.255 706.99 507.323 707.286 508.505C707.466 510.54 707.965 512.535 708.763 514.415C710.241 517.961 709.059 520.325 711.718 523.575C714.378 526.826 719.401 527.417 721.765 529.485L724.129 531.554L734.176 524.758Z" fill="#FFAA83"/>
<path d="M759.587 596.266C759.587 596.266 747.177 598.63 740.479 584.841C733.781 571.051 722.356 534.016 720.78 530.47C722.049 527.919 724.022 525.784 726.465 524.318C728.909 522.852 731.721 522.116 734.569 522.197C734.569 522.197 745.601 543.866 751.905 553.716C758.209 563.565 780.666 592.326 759.587 596.266Z" fill="#FFBE3D"/>
<path d="M576.954 361.359C576.954 361.359 580.806 358.908 583.082 359.608C587.235 360.578 591.445 361.28 595.688 361.709C598.139 361.885 603.042 357.507 603.917 356.807C604.792 356.107 605.318 354.531 606.368 353.48C607.419 352.43 607.944 352.605 607.944 350.679C607.944 348.753 609.87 347.002 610.745 346.127C611.621 345.251 615.122 343.15 614.772 341.574C614.422 339.999 612.671 340.874 611.621 341.224C610.571 341.575 606.544 345.251 604.793 346.302C602.306 347.695 599.569 348.587 596.739 348.928C595.381 348.912 594.029 348.735 592.712 348.403C592.712 348.403 592.187 348.403 594.288 347.703C595.96 347.372 597.66 347.196 599.365 347.177C601.116 346.827 601.991 345.777 601.816 344.901C601.641 344.026 599.365 344.026 598.49 344.026C595.746 344.131 592.998 344.073 590.261 343.851C588.159 343.501 584.658 347.002 583.958 347.703C582.006 348.755 579.864 349.41 577.656 349.629C575.728 349.804 576.954 361.359 576.954 361.359Z" fill="#FF9F75"/>
<path d="M501.602 359.483C501.602 359.483 505.265 371.574 520.589 371.109C535.912 370.645 574.02 363.584 577.893 363.334C579.564 361.027 580.54 358.288 580.705 355.444C580.87 352.599 580.217 349.766 578.824 347.28C578.824 347.28 554.51 347.561 542.86 346.547C531.21 345.533 495.312 338.983 501.602 359.483Z" fill="#E1E8F2"/>
<path d="M420.496 383.691C420.496 383.691 414.092 346.48 409.968 342.206C404.943 337.167 396.654 333.234 388.351 339.366C385.044 341.646 382.567 344.939 381.291 348.748C380.016 352.558 380.011 356.678 381.278 360.49C383.421 366.185 404.491 413.514 410.8 418.867C417.109 424.22 425.753 422.254 427.432 412.053C429.112 401.851 420.496 383.691 420.496 383.691Z" fill="#E1E8F2"/>
<path d="M485.077 403.508C485.077 403.508 490.101 403.803 491.873 403.803C493.646 403.803 507.239 402.622 509.603 402.622C511.967 402.622 511.967 405.281 511.967 405.281C513.033 406.917 513.831 408.713 514.331 410.6C514.235 412.296 514.435 413.996 514.922 415.623C515.513 417.101 514.627 418.283 514.036 419.464C513.445 420.646 511.966 421.237 510.49 422.124C509.83 422.528 509.082 422.767 508.31 422.818C507.538 422.87 506.765 422.733 506.057 422.419C504.875 421.828 504.875 421.533 506.353 420.647C507.311 420.054 508.203 419.361 509.012 418.577C507.783 419.706 506.235 420.429 504.58 420.647C501.5 421.101 498.355 420.797 495.42 419.76L488.919 416.51L484.191 415.919L485.077 403.508Z" fill="#FF9F75"/>
<path d="M409.804 413.853C409.804 413.853 413.467 425.944 428.791 425.479C444.114 425.015 482.222 417.953 486.095 417.704C487.766 415.396 488.742 412.658 488.907 409.813C489.072 406.969 488.419 404.136 487.026 401.65C487.026 401.65 462.712 401.931 451.062 400.917C439.412 399.903 403.514 393.353 409.804 413.853Z" fill="#E1E8F2"/>
<path fill-rule="evenodd" clip-rule="evenodd" d="M825.773 191.287L814.597 184.57L814.64 186.327L822.573 191.107L822.734 198.563L824.083 199.384L823.926 191.922L827.158 193.869C827.188 193.887 827.198 193.938 827.209 193.988L829.44 202.646L830.942 203.56L830.041 200.049C829.862 199.294 829.632 198.464 829.443 197.703L828.54 194.172C828.688 194.196 828.839 194.197 828.987 194.176C829.121 194.175 829.254 194.144 829.374 194.084C829.405 194.077 829.434 194.065 829.461 194.048C829.495 194.042 829.525 194.024 829.547 193.997C829.669 193.934 829.779 193.85 829.874 193.75C830.244 193.222 830.474 192.608 830.542 191.966C830.642 191.086 830.592 190.196 830.395 189.333C830.362 189.165 830.321 189.037 830.289 188.884C830.123 188.293 829.917 187.715 829.671 187.152C829.569 186.929 829.468 186.72 829.356 186.505C828.718 185.325 827.749 184.358 826.568 183.722L822.37 181.227C822.391 181.314 822.814 182.17 822.864 182.258L823.609 183.794C823.68 183.954 823.66 183.912 823.787 183.988L826.931 185.861C827.476 186.198 827.937 186.654 828.278 187.197C828.432 187.434 828.567 187.682 828.682 187.94L828.794 188.214C829.204 189.257 829.257 190.406 828.945 191.482L828.766 191.818C828.247 192.597 827.623 192.414 826.731 191.878C826.418 191.689 826.105 191.486 825.773 191.287Z" fill="white"/>
<path fill-rule="evenodd" clip-rule="evenodd" d="M803.713 174.316C803.724 175.081 803.832 175.841 804.036 176.578C804.066 176.668 804.086 176.738 804.107 176.808C804.236 177.243 804.396 177.668 804.587 178.079C804.656 178.207 804.715 178.343 804.784 178.471C804.891 178.651 804.989 178.84 805.114 179.016L805.171 179.094L805.422 179.433C805.825 179.953 806.27 180.438 806.754 180.884C807.194 181.323 808.84 182.907 809.12 183.235L809.38 183.551C809.641 183.895 809.866 184.264 810.055 184.652C810.263 185.071 810.407 185.519 810.482 185.981C810.549 186.43 810.555 186.885 810.499 187.336C810.466 187.518 810.42 187.698 810.363 187.875C810.308 188.008 810.236 188.135 810.148 188.25C810.042 188.401 809.892 188.517 809.718 188.58C809.658 188.601 809.595 188.612 809.532 188.612C809.045 188.638 808.564 188.502 808.162 188.226C807.823 188.034 807.502 187.81 807.205 187.558C806.821 187.224 806.478 186.847 806.181 186.433C806.114 186.335 806.037 186.231 805.969 186.118C805.933 186.066 805.901 186.013 805.871 185.958C805.562 185.441 805.305 184.895 805.104 184.328C805.054 184.197 805.013 184.072 804.972 183.932C804.949 183.868 804.928 183.803 804.911 183.737L804.871 183.626C804.821 183.466 804.778 183.282 804.737 183.114C804.705 182.98 804.644 182.77 804.631 182.662C804.584 182.639 804.534 182.624 804.482 182.614L803.709 182.42C803.653 182.401 803.607 182.401 803.551 182.383C803.504 182.365 803.454 182.354 803.403 182.35C803.469 182.749 803.746 183.707 803.877 184.117L804.078 184.699C804.109 184.789 804.139 184.864 804.169 184.954L804.387 185.489C804.545 185.843 804.712 186.203 804.887 186.51L805.159 186.991C805.208 187.078 805.247 187.13 805.305 187.223L805.604 187.663C805.709 187.814 805.825 187.97 805.94 188.112C806.5 188.817 807.175 189.422 807.937 189.902C808.387 190.191 808.875 190.416 809.388 190.57L809.744 190.643C810.002 190.681 810.266 190.664 810.517 190.595L810.647 190.544C810.784 190.486 810.911 190.408 811.024 190.312L811.244 190.113C811.439 189.898 811.592 189.648 811.693 189.375L811.824 188.977C811.85 188.906 811.858 188.838 811.884 188.753C811.901 188.677 811.908 188.594 811.924 188.502C812.057 187.467 811.998 186.415 811.752 185.4C811.648 184.978 811.515 184.564 811.354 184.16C811.337 184.124 811.324 184.087 811.313 184.049L811.026 183.441C810.825 183.059 810.599 182.691 810.35 182.338C810.224 182.176 810.098 181.998 809.962 181.83C809.914 181.772 809.875 181.719 809.826 181.661C809.73 181.56 809.643 181.45 809.547 181.348C809.017 180.769 808.308 180.126 807.753 179.59C807.233 179.12 806.741 178.621 806.277 178.096C806.142 177.928 806.017 177.766 805.891 177.59C805.389 176.873 805.101 176.027 805.062 175.153C805.033 174.121 805.327 173.644 805.713 173.468C806.716 173.005 808.108 173.993 809.144 175.629C809.266 175.826 809.378 176.028 809.479 176.237C809.753 176.793 809.954 177.383 810.078 177.992C810.099 178.105 810.143 178.321 810.154 178.416C810.203 178.429 810.254 178.434 810.304 178.433L810.615 178.473C810.667 178.488 810.721 178.496 810.776 178.496C810.879 178.515 810.983 178.533 811.096 178.542C811.153 178.561 811.191 178.555 811.248 178.575C811.301 178.58 811.355 178.583 811.408 178.583C811.376 178.418 811.324 178.227 811.282 178.056C811.24 177.885 811.198 177.714 811.146 177.538C811.095 177.376 811.053 177.205 810.993 177.038C810.972 176.967 810.942 176.891 810.911 176.8C810.83 176.562 810.739 176.318 810.648 176.089C810.609 176.007 810.588 175.937 810.548 175.854C810.399 175.532 810.377 175.447 810.17 175.061L809.993 174.751C809.688 174.204 809.318 173.696 808.892 173.236C808.489 172.794 808.032 172.405 807.531 172.078L807.066 171.802C806.712 171.603 806.326 171.467 805.925 171.401C805.685 171.352 805.438 171.354 805.199 171.405C804.919 171.473 804.661 171.609 804.447 171.8C804.361 171.882 804.283 171.972 804.213 172.067L804.063 172.34C803.782 172.959 803.661 173.639 803.71 174.317L803.713 174.316Z" fill="white"/>
<path fill-rule="evenodd" clip-rule="evenodd" d="M832.581 187.338L832.612 189.112C832.614 189.187 832.742 189.234 832.841 189.293L836.732 191.611C836.906 191.709 837.073 191.819 837.232 191.939C837.39 192.059 837.535 192.195 837.665 192.345C837.798 192.487 837.92 192.639 838.029 192.801C838.09 192.897 838.13 192.951 838.181 193.041C838.211 193.089 838.232 193.131 838.262 193.179C838.283 193.225 838.307 193.269 838.334 193.312L838.395 193.438C838.55 193.779 838.685 194.128 838.798 194.485C838.931 194.921 839.021 195.369 839.067 195.823C839.148 196.46 839.104 197.107 838.938 197.727C838.888 197.973 838.764 198.197 838.582 198.37C838.401 198.543 838.172 198.656 837.924 198.695C837.435 198.683 836.964 198.509 836.583 198.202L835.549 197.579C835.36 197.466 835.211 197.391 835.032 197.284L832.733 195.901L832.891 204.75L834.342 205.633L834.22 198.585L837.182 200.37C837.687 200.698 838.289 200.841 838.888 200.775C838.931 200.765 838.974 200.751 839.015 200.733C839.217 200.677 839.402 200.575 839.556 200.434C839.736 200.308 839.889 200.147 840.005 199.961C840.064 199.867 840.119 199.771 840.169 199.672L840.313 199.327C840.414 199.059 840.483 198.781 840.519 198.497C840.564 198.166 840.589 197.832 840.593 197.498L840.586 197.031C840.524 195.843 840.265 194.673 839.818 193.57L839.427 192.694C839.283 192.43 839.283 192.399 839.11 192.117C839.059 192.041 839.018 191.973 838.967 191.898C838.632 191.387 838.227 190.925 837.765 190.525C837.639 190.405 837.505 190.296 837.363 190.197C837.077 189.984 836.78 189.788 836.472 189.608L832.61 187.313C832.591 187.302 832.58 187.311 832.581 187.341L832.581 187.338Z" fill="white"/>
<path fill-rule="evenodd" clip-rule="evenodd" d="M813.42 175.954L813.467 177.839L820.612 182.096L820.569 180.202C820.57 180.19 820.568 180.178 820.563 180.167C820.558 180.156 820.55 180.146 820.539 180.14L813.448 175.925C813.429 175.914 813.419 175.924 813.42 175.954Z" fill="white"/>
<path fill-rule="evenodd" clip-rule="evenodd" d="M813.846 193.154L820.935 197.469L820.893 195.61L813.801 191.303L813.846 193.154Z" fill="white"/>
<defs>
<linearGradient id="paint0_linear_1578_22" x1="1065" y1="0" x2="504.479" y2="1188.02" gradientUnits="userSpaceOnUse">
<stop stop-color="#007ED8"/>
<stop offset="1" stop-color="#2489D0"/>
</linearGradient>
<linearGradient id="paint1_linear_1578_22" x1="665.504" y1="490.47" x2="677.97" y2="586.406" gradientUnits="userSpaceOnUse">
<stop stop-color="#C6E6FF"/>
<stop offset="1" stop-color="#8D9FFF"/>
</linearGradient>
<linearGradient id="paint2_linear_1578_22" x1="657.713" y1="658.878" x2="693.28" y2="579.207" gradientUnits="userSpaceOnUse">
<stop stop-color="#1AE5FF"/>
<stop offset="1" stop-color="#EAEEEE"/>
</linearGradient>
<linearGradient id="paint3_linear_1578_22" x1="862.69" y1="467.984" x2="807.098" y2="54.8377" gradientUnits="userSpaceOnUse">
<stop stop-color="#1AE5FF"/>
<stop offset="0.2589" stop-color="#64E8F9"/>
<stop offset="0.7043" stop-color="#EAEEEE"/>
</linearGradient>
<linearGradient id="paint4_linear_1578_22" x1="970.751" y1="353.476" x2="948.498" y2="353.476" gradientUnits="userSpaceOnUse">
<stop stop-color="#5155D4"/>
<stop offset="1" stop-color="#45F7FF"/>
</linearGradient>
</defs>
</svg>
