<svg width="50" height="50" viewBox="0 0 50 50" fill="none" xmlns="http://www.w3.org/2000/svg">
<rect width="50" height="50" rx="6" fill="white"/>
<path opacity="0.3" d="M34 32H16C15.4 32 15 31.6 15 31V19C15 18.4 15.4 18 16 18H34C34.6 18 35 18.4 35 19V31C35 31.6 34.6 32 34 32Z" fill="#0A072B"/>
<path d="M34 18H16C15.7 18 15.5 18.1 15.3 18.3L24.2 26.3C24.7 26.7 25.4 26.7 25.8 26.3L34.7 18.3C34.5 18.1 34.3 18 34 18Z" fill="#0A072B"/>
<circle cx="34.5" cy="31.5" r="7.5" fill="#BF2929"/>
<path d="M32.1309 34.995L32.1359 34.065L35.2709 31.255C35.5242 31.0317 35.6959 30.8183 35.7859 30.615C35.8792 30.4117 35.9259 30.2083 35.9259 30.005C35.9259 29.7483 35.8692 29.5183 35.7559 29.315C35.6425 29.1083 35.4859 28.945 35.2859 28.825C35.0859 28.705 34.8559 28.645 34.5959 28.645C34.3292 28.645 34.0909 28.7083 33.8809 28.835C33.6742 28.9583 33.5125 29.1233 33.3959 29.33C33.2792 29.5367 33.2225 29.76 33.2259 30H32.1559C32.1559 29.5333 32.2609 29.125 32.4709 28.775C32.6842 28.4217 32.9759 28.1467 33.3459 27.95C33.7159 27.75 34.1392 27.65 34.6159 27.65C35.0692 27.65 35.4759 27.7533 35.8359 27.96C36.1959 28.1633 36.4792 28.4433 36.6859 28.8C36.8959 29.1567 37.0009 29.5633 37.0009 30.02C37.0009 30.35 36.9575 30.63 36.8709 30.86C36.7842 31.09 36.6542 31.3033 36.4809 31.5C36.3075 31.6967 36.0909 31.91 35.8309 32.14L33.4109 34.3L33.2959 34H37.0009V34.995H32.1309Z" fill="white"/>
</svg>
