<svg id="Layer_1" data-name="Layer 1" xmlns="http://www.w3.org/2000/svg" xmlns:xlink="http://www.w3.org/1999/xlink" viewBox="0 0 636.12939 739.632"><defs><style>.cls-1{fill:#87aedd;isolation:isolate;opacity:0.25;}.cls-2{fill:#adcdfc;}.cls-3{fill:#e2edff;}.cls-4{fill:#c7d8f2;}.cls-5{fill:#7baeff;}.cls-6{fill:#4da5dc;}.cls-7{fill:#32a0ef;}.cls-8{fill:#e1e8f2;}.cls-9{fill:#e16b40;}.cls-10{fill:#ff8654;}.cls-11{fill:#0046a6;}.cls-12{fill:#003783;}.cls-13{fill:#ff9f75;}.cls-14{fill:#cfdae4;}.cls-15{fill:#00a5ff;}.cls-16{fill:#382747;}.cls-17{fill:#94a3c0;}.cls-18,.cls-58{fill:#fff;}.cls-19{fill:#ff5668;}.cls-20{fill:#b391ff;}.cls-21{fill:#d4d9df;}.cls-22{fill:#f2f8fd;}.cls-23{fill:url(#linear-gradient);}.cls-24{fill:url(#linear-gradient-2);}.cls-25{fill:#05ccff;}.cls-26{fill:#540cc7;}.cls-27{fill:#3f0995;}.cls-28{fill:#7974f5;}.cls-29{fill:#2689fd;}.cls-30{fill:#3548db;}.cls-31{fill:#58affb;}.cls-32{fill:#ee2c6a;}.cls-33{fill:#ee428c;}.cls-34{fill:#ff3d9d;}.cls-35{fill:#7cccff;}.cls-36{fill:#3eabff;}.cls-37{fill:#cc096a;}.cls-38{fill:#3278cc;}.cls-39{fill:#e2a029;}.cls-40{fill:#ffbe3d;}.cls-41{fill:url(#linear-gradient-3);}.cls-42{fill:url(#linear-gradient-4);}.cls-43{fill:#343996;}.cls-44{fill:#1ae5ff;}.cls-45{fill:none;stroke:#16c5dc;stroke-miterlimit:10;}.cls-46{fill:#ff4272;}.cls-47{fill:#212973;}.cls-48{fill:#1ce5ff;}.cls-49{opacity:0.53;}.cls-50{fill:#00a935;}.cls-51{fill:#61e041;}.cls-52{fill:#00cc41;}.cls-53{fill:#14347c;}.cls-54{fill:#18388f;}.cls-55{fill:#ce7c56;}.cls-56{fill:#ffaa83;}.cls-57{fill:#4d2c63;}.cls-58{fill-rule:evenodd;}</style><linearGradient id="linear-gradient" x1="331.50239" y1="356.52992" x2="343.9694" y2="260.59391" gradientTransform="matrix(1, 0, 0, -1, 0, 742)" gradientUnits="userSpaceOnUse"><stop offset="0" stop-color="#c6e6ff"/><stop offset="1" stop-color="#8d9fff"/></linearGradient><linearGradient id="linear-gradient-2" x1="323.71331" y1="188.12188" x2="359.2803" y2="267.79287" gradientTransform="matrix(1, 0, 0, -1, 0, 742)" gradientUnits="userSpaceOnUse"><stop offset="0" stop-color="#1ae5ff"/><stop offset="1" stop-color="#eaeeee"/></linearGradient><linearGradient id="linear-gradient-3" x1="528.68757" y1="379.01579" x2="473.09655" y2="792.16208" gradientTransform="matrix(1, 0, 0, -1, 0, 742)" gradientUnits="userSpaceOnUse"><stop offset="0" stop-color="#1ae5ff"/><stop offset="0.2589" stop-color="#64e8f9"/><stop offset="0.7043" stop-color="#eaeeee"/></linearGradient><linearGradient id="linear-gradient-4" x1="636.75024" y1="493.52501" x2="614.49701" y2="493.52501" gradientTransform="matrix(1, 0, 0, -1, 0, 742)" gradientUnits="userSpaceOnUse"><stop offset="0" stop-color="#5155d4"/><stop offset="1" stop-color="#45f7ff"/></linearGradient></defs><path class="cls-1" d="M577.917,638.381c-26.269-15.168-63.122-20.399-96.624-15.702L600.18,553.59c12.984-7.546,12.917-19.78-.154-27.32605L327.902,369.152c-13.07-7.546-34.192-7.546-47.177,0l-92.99,54.04c-40.235-17.765-97.8118-16.034-134.3921,5.224-36.5803,21.259-39.4202,54.638-8.6258,77.888L10.3695,526.265c-12.98536,7.546-12.91666,19.78.1538,27.327L282.647,710.702c13.071,7.547,34.192,7.547,47.178,0l76.363-44.377c-8.014,19.429,1.119,40.77,27.389,55.937,40.116,23.16,105.004,23.16,144.859,0C618.292,699.101,618.033,661.542,577.917,638.381Z" transform="translate(-0.62085 0)"/><path class="cls-2" d="M167.481,464.872c-1.072,11.924-12.295,20.022-22.418,24.385a86.04728,86.04728,0,0,1-35.112,6.514,83.55027,83.55027,0,0,1-35.6871-7.909c-9.6073-4.727-19.8046-13.303-19.7716-24.966-.0235,8.492.5714,15.511,6.6911,22.141,7.8792,8.537,19.7422,13.134,30.9009,15.438,21.7707,4.494,51.41269,2.322,67.9497-14.437,6.654-6.743,7.563-13.851,7.588-22.819Q167.5875,464.04851,167.481,464.872Z" transform="translate(-0.62085 0)"/><path class="cls-3" d="M150.912,439.874c22.16,12.794,22.303,33.543.287,46.337-22.016,12.795-57.86181,12.795-80.02221,0-22.1604-12.794-22.2517-33.543-.2352-46.337S128.752,427.08,150.912,439.874Z" transform="translate(-0.62085 0)"/><path class="cls-4" d="M121.134,414.011l-.141,49.447-8.65,5.027.14-49.447Z" transform="translate(-0.62085 0)"/><path class="cls-5" d="M112.483,419.038l-.14,49.447-8.706-5.027.141-49.447Z" transform="translate(-0.62085 0)"/><path class="cls-6" d="M121.134,414.011l-8.651,5.027-8.705-5.027,8.65-5.026Z" transform="translate(-0.62085 0)"/><path class="cls-7" d="M56.2237,253.692s-17.73,4.728-22.4567,15.365c-4.7268,10.638-3.5459,91.011,21.2753,124.106s70.9167,37.823,81.5547,33.095,72.1-35.459,76.828-50.824c4.727-15.366-18.912-27.185-31.913-33.095-13.002-5.91-21.276-14.183-28.368-35.459-7.091-21.275-10.637-57.917-18.911-63.826C125.96,237.145,105.866,227.689,56.2237,253.692Z" transform="translate(-0.62085 0)"/><path class="cls-8" d="M162.197,232.306s-29.085-24.077-34.998-24.637c-7.095-.554-15.947,1.857-18.258,11.916a18.55405,18.55405,0,0,0,8.383,20.64c5.334,2.927,52.14,25.138,60.413,25.094,8.274-.044,13.555-7.163,8.19-16C180.561,240.483,162.197,232.306,162.197,232.306Z" transform="translate(-0.62085 0)"/><path class="cls-9" d="M111.92,202.171a2.98878,2.98878,0,0,0,.057.957c.434,2.157,1.791,7.669,2.107,9.982.304,2.218-2.033,6.2-8.053,6.375-6.019.175-16.3468-1.838-20.0955-8.837a166.579,166.579,0,0,0-2.0441-21.11Z" transform="translate(-0.62085 0)"/><path class="cls-10" d="M124.854,158.397c-4.349-18.224-19.436-27.946-35.7261-23.278,0,0-17.7766,2.67-24.9411,18.755-7.1646,16.085,5.1454,28.702,13.0201,36.656,3.3174,3.261,5.8251,5.78,7.4084,7.385.5752.607,1.1406,1.224,1.7359,1.772l.1689.173.019-.016a37.408,37.408,0,0,0,15.7259,8.518c7.293,1.784,15.733.142,20.078-4.978C126.688,198.265,129.204,176.621,124.854,158.397Z" transform="translate(-0.62085 0)"/><path class="cls-11" d="M87.2792,203.602S58.6451,226.27,56.058,233.468c-2.5872,7.198-2.2485,26.861,4.5139,39.647,6.7625,12.786,6.8997,61.049,9.5673,70.358,2.6677,9.308,28.215,11.029,43.7828,7.216,15.567-3.814,40.297-16.848,35.327-34.522-7.34-26.098-5.597-52.389-5.007-60.694.591-8.306-1.515-28.987-6.033-42.699-.953-2.894-11.153-6.934-11.153-6.934S116.477,200.919,87.2792,203.602Z" transform="translate(-0.62085 0)"/><path class="cls-12" d="M92.4711,311.608c-11.8197-14.972,5.5159-66.19-14.9716-80.374-6.2482-4.325-11.6115-5.416-16.0561-4.857a26.17709,26.17709,0,0,0-5.3855,7.091c-2.587,7.198-2.2485,26.861,4.514,39.647,6.7624,12.786,6.8996,61.049,9.5663,70.357,2.4283,8.475,23.7963,10.644,39.3568,8.091l22.375-23.408S104.291,326.58,92.4711,311.608Z" transform="translate(-0.62085 0)"/><path class="cls-8" d="M86.3089,207.443c24.8941-2.288,36.3511,1.995,39.1971,3.31a73.71792,73.71792,0,0,1-.363,17.681c-1.948,11.765-6.635,44.085-6.635,44.085s-15.359-26.554-25.4702-37.483c-7.1165-7.691-14.1232-14.939-17.6584-18.566C81.3463,211.377,86.3089,207.443,86.3089,207.443Z" transform="translate(-0.62085 0)"/><path class="cls-10" d="M111.92,202.171a2.98878,2.98878,0,0,0,.057.957c.434,2.157,1.791,7.669,2.107,9.982.304,2.218-2.033,6.2-8.053,6.375-6.019.175-16.3468-1.838-20.0955-8.837a166.579,166.579,0,0,0-2.0441-21.11Z" transform="translate(-0.62085 0)"/><path class="cls-13" d="M124.854,158.397c-4.349-18.224-19.436-27.946-35.7261-23.278,0,0-17.7766,2.67-24.9411,18.755-7.1646,16.085,5.1454,28.702,13.0201,36.656,3.3174,3.261,5.8251,5.78,7.4084,7.385.5752.607,1.1406,1.224,1.7359,1.772l.1689.173.019-.016a37.408,37.408,0,0,0,15.7259,8.518c7.293,1.784,15.733.142,20.078-4.978C126.688,198.265,129.204,176.621,124.854,158.397Z" transform="translate(-0.62085 0)"/><path class="cls-14" d="M121.983,235.007l-11.096-9.828-8.877,15.535-8.949-5.652c10.111,10.944,25.447,37.457,25.447,37.457s3.911-26.961,6.072-40.596Z" transform="translate(-0.62085 0)"/><path class="cls-15" d="M121.221,254.043l-4.944-17.451.747-5.977-6.136-5.436-4.307,7.536,4.941,4.511,1.343,25.909c3.369,5.453,5.644,9.384,5.644,9.384S119.75,263.956,121.221,254.043Z" transform="translate(-0.62085 0)"/><path class="cls-9" d="M62.1341,152.043a27.10394,27.10394,0,0,0,1.773,26.595c8.8649,13.592,18.3663,19.641,20.7073,19.276,2.3409-.364,3.5228-.956,2.9319-2.729-.591-1.773-3.5459-7.682-3.5459-7.682s-10.0466-1.182-10.0466-7.683,3.5458-7.683,7.6827-5.91,4.7279,4.728,7.0918,7.092,2.9549,8.274,4.7279,7.683,2.9548-2.364,2.9548-5.319a12.45026,12.45026,0,0,0-3.546-10.047c-3.5458-3.546.5912-9.455-2.9548-14.183a34.7172,34.7172,0,0,0-5.9098-6.501s2.3639,3.546,14.1834,1.182c11.8192-2.364,17.1382-1.773,21.8662-4.728s3.546-9.456.591-11.82-10.047-3.546-18.32-6.5c-8.2739-2.955-13.0018-1.182-23.0484,1.182C69.2259,134.315,59.7702,144.951,62.1341,152.043Z" transform="translate(-0.62085 0)"/><path class="cls-16" d="M228.791,507.814a12.3255,12.3255,0,0,0,5.91,10.243c6.303,4.334,7.485,7.092,12.607,9.062,5.122,1.97,9.85,8.668,7.486,13.395-2.364,4.728-13.396,5.51605-20.487,3.546-7.092-1.969-8.274-8.273-14.972-10.637a24.753,24.753,0,0,1-11.032-7.092c-1.969-1.97-1.182-9.85-1.182-9.85l24.033-7.879" transform="translate(-0.62085 0)"/><path class="cls-16" d="M259.522,484.962a12.33162,12.33162,0,0,0,5.91,10.244c6.304,4.334,7.486,7.092,12.607,9.062,5.122,1.97,9.85,8.668,7.486,13.395-2.364,4.728-13.395,5.516-20.487,3.546-7.092-1.97-8.274-8.273-14.972-10.637a24.7443,24.7443,0,0,1-11.031-7.092c-1.97-1.97-1.182-9.85-1.182-9.85l24.032-7.88" transform="translate(-0.62085 0)"/><path class="cls-17" d="M71.9834,343.718a43.123,43.123,0,0,1,1.1821,8.865c0,4.137-2.9549,15.956,2.9549,30.14,5.9097,14.183,45.5056,17.138,58.5066,23.048a129.44462,129.44462,0,0,1,23.049,13.002c2.364,1.773,5.712,26.791,15.956,41.762s27.579,44.915,31.519,57.522a29.80352,29.80352,0,0,0,21.275-3.94c5.27-3.447,4.728-5.515,4.728-5.515s-20.487-44.915-25.215-63.827c-4.728-18.911-10.243-40.974-18.911-46.49s-36.247-25.215-42.551-29.155-23.29-16.396-26.617-23.958C114.534,337.611,82.2271,325.397,71.9834,343.718Z" transform="translate(-0.62085 0)"/><path class="cls-17" d="M104.487,324.216a43.02017,43.02017,0,0,1,1.182,8.865c0,4.137-2.954,15.956,2.955,30.14,5.91,14.183,45.506,17.138,58.507,23.048a129.44445,129.44445,0,0,1,23.049,13.002c2.364,1.772,5.712,26.791,15.956,41.762s27.579,44.914,31.519,57.522a29.80442,29.80442,0,0,0,21.275-3.94c5.27-3.447,4.728-5.516,4.728-5.516s-20.487-44.914-25.215-63.826c-4.728-18.911-10.244-40.974-18.911-46.49-8.668-5.516-36.247-25.215-42.551-29.155s-23.29-16.396-26.617-23.958C147.038,318.109,114.731,305.895,104.487,324.216Z" transform="translate(-0.62085 0)"/><path class="cls-4" d="M264.042,473.648l-.34,120.194-21.027,12.219.341-120.194Z" transform="translate(-0.62085 0)"/><path class="cls-5" d="M243.017,485.867l-.342,120.194-21.164-12.219.34-120.194Z" transform="translate(-0.62085 0)"/><path class="cls-6" d="M264.042,473.648l-21.025,12.219-21.166-12.219,21.027-12.219Z" transform="translate(-0.62085 0)"/><path class="cls-2" d="M609.791,391.317c-.031.349-.055.699-.119,1.047-.053.287-.14.571-.215.856-.087.333-.168.665-.285.995-.097.273-.226.543-.343.814-.152.348-.302.695-.487,1.039-.134.249-.295.493-.447.74-.242.391-.497.78-.784,1.164-.277.37-.562.738-.88,1.1-.076.085-.143.171-.22.256-.429.469-.903.928-1.404,1.379-.321.289-.677.567-1.027.848-.307.247-.602.496-.931.735-.378.275-.795.537-1.203.803-.417.272-.816.552-1.26495.813L329.826,561.019a37.73367,37.73367,0,0,1-7.311,3.215,48.26254,48.26254,0,0,1-6.316,1.572c-1.398.252-2.82.45-4.255.593-1.225.122-2.461.204-3.699.247q-1.707.0585-3.417.015-1.6485-.04056-3.286-.175l-.054,19.269q1.635.135,3.285.176,1.70847.04349,3.417-.016,1.85849-.063,3.7-.24695c1.435-.142,2.857-.34,4.255-.592a48.44353,48.44353,0,0,0,6.315-1.572,37.73758,37.73758,0,0,0,7.311-3.215L600.126,423.176c.138-.08.273-.16.407-.241.304-.183.564-.381.853-.569.41-.267.829-.531,1.209-.807.329-.239.62305-.488.929-.734.35-.281.707-.559,1.028-.849.064-.058.143-.111.206-.17.429-.396.824-.8,1.198-1.209.078-.086.146-.173.222-.259.222-.251.448-.502.649-.757.08795-.112.146-.228.23-.341.287-.383.541-.772.783-1.163.102-.165.236-.323.33-.489.046-.084.073-.169.118-.253.185-.343.335-.69.486-1.038.089-.203.207-.402.285-.606.026-.069.035-.139.06-.208.117-.331.199-.664.286-.997.059-.225.148-.448.193-.673.012-.06.009-.12.02-.179.065-.35.089-.7.121-1.051.02-.228.071-.456.078-.684.002-.098.004-.195.004-.293l.055-19.27C609.873,390.665,609.821,390.99,609.791,391.317Z" transform="translate(-0.62085 0)"/><path class="cls-2" d="M298.298,566.124q-1.67248-.23849-3.307-.57605-1.7715-.36592-3.48-.853c-1.391-.396-2.746-.852-4.051-1.367a36.34848,36.34848,0,0,1-4.813-2.308L10.5234,403.909C3.94622,400.112.66153,395.127.67558,390.15L.62089,409.42c-.014,4.977,3.27068,9.962,9.848,13.759L282.593,580.29a36.31752,36.31752,0,0,0,4.812,2.307c1.306.516,2.66.972,4.052,1.367q1.70549.486,3.479.853,1.63349.33746,3.308.575,1.608.228,3.243.363l.055-19.27Q299.90851,566.3515,298.298,566.124Z" transform="translate(-0.62085 0)"/><path class="cls-3" d="M600.026,377.343c13.071,7.546,13.14,19.78.154,27.327L329.825,561.783c-12.986,7.546-34.107,7.547-47.178,0L10.5233,404.672c-13.07046-7.546-13.13916-19.78-.1538-27.326L280.725,220.232c12.985-7.546,34.107-7.546,47.177,0Z" transform="translate(-0.62085 0)"/><path class="cls-18" d="M307.553,434.249l74.497,43.292,52.402-30.255-74.497-43.292Z" transform="translate(-0.62085 0)"/><path class="cls-19" d="M370.869,423.475l-11.72,6.811-14.842-4.373c4.143-4.74,14.146-6.625,22.343-4.209A18.45453,18.45453,0,0,1,370.869,423.475Z" transform="translate(-0.62085 0)"/><path class="cls-20" d="M373.556,424.36c7.878,4.549,7.917,11.923.091,16.471a31.33148,31.33148,0,0,1-28.433,0c-6.302-3.639-7.781-8.938-3.774-13.523l17.944,5.288Z" transform="translate(-0.62085 0)"/><path class="cls-2" d="M362.779,456.731c-.653.377-.656.977-.007,1.354a2.55574,2.55574,0,0,0,2.338,0l33.255-19.2c.653-.377.657-.977.008-1.354a2.5578,2.5578,0,0,0-2.339,0Z" transform="translate(-0.62085 0)"/><path class="cls-21" d="M385.755,447.906a.71863.71863,0,0,0-.483.675.70916.70916,0,0,0,.13.415.72375.72375,0,0,0,.345.265,2.61156,2.61156,0,0,0,2.351.007l14.112-8.148a.72366.72366,0,0,0,.353-.263.71815.71815,0,0,0-.357-1.098,2.57416,2.57416,0,0,0-2.339,0Z" transform="translate(-0.62085 0)"/><path class="cls-21" d="M381.378,454.595c-.653.377-.668.984-.019,1.361a2.5768,2.5768,0,0,0,2.35-.007l22.082-12.748c.653-.377.656-.978.008-1.355a2.55786,2.55786,0,0,0-2.339,0Z" transform="translate(-0.62085 0)"/><path class="cls-22" d="M395.264,495.909a1.99838,1.99838,0,0,1,.022,3.783l-53.175,30.874a7.18633,7.18633,0,0,1-6.532,0l-37.115-21.428a1.998,1.998,0,0,1-.021-3.783l53.174-30.875a7.20278,7.20278,0,0,1,6.532,0Z" transform="translate(-0.62085 0)"/><path class="cls-23" d="M396.618,497.949c-.005.049-.008.097-.017.145-.007.04-.019.079-.029.118-.013.047-.024.093-.04.139-.014.038-.031.074-.047.111-.022.049-.042.097-.068.145-.019.034-.041.068-.062.102-.033.054-.069.108-.108.161-.024.032-.05.062-.075.094a2.77159,2.77159,0,0,1-.196.209c-.026.026-.049.052-.077.076-.044.04-.093.078-.141.117-.043.034-.084.069-.13.102-.052.038-.11.075-.166.112-.057.037-.114.076-.176.112l-53.175,30.875a5.07,5.07,0,0,1-.645.306c-.059.024-.119.046-.18.068-.14.051-.288.092-.434.133-.152.043-.305.083-.462.11506-.185.038-.37.073-.56.097-.046.005-.091.014-.138.019q-.38548.04047-.776.043h-.123c-.256-.002-.512-.01605-.766-.043l-.114-.013a7.18726,7.18726,0,0,1-.742-.127c-.044-.01-.088-.022-.132-.033a5.95444,5.95444,0,0,1-.642-.195c-.037-.013-.076-.023-.112-.038a4.87457,4.87457,0,0,1-.705-.333l-37.115-21.428a2.67164,2.67164,0,0,1-1.28-1.391,1.57418,1.57418,0,0,1-.085-.514l-.013,2.129a1.5958,1.5958,0,0,0,.021.259,2.47454,2.47454,0,0,0,1.344,1.647l37.115,21.428a4.95991,4.95991,0,0,0,.669.32105l.036.012c.036.014.076.025.112.038.136.05.271.099.413.13995.075.02106.152.038.229.056.044.011.088.022.133.032.041.01.08.022.121.03.15.031.304.057.457.08.054.007.11.011.164.019.038.005.076.009.114.013.057.006.114.014.171.018.151.013.302.021.454.025.047.001.095,0,.142,0h.124c.068,0,.137.002.206,0,.17-.006.341-.018.511-.034l.059-.008c.046-.005.09-.014.136-.019.132-.017.264-.032.393-.055.058-.01.11-.03.167-.042.158-.033.311-.072.463-.114.08-.023.166-.036.244-.061.065-.021.126-.04895.19-.072s.121-.044.181-.068a5.077,5.077,0,0,0,.645-.306l53.175-30.875.057-.033c.043-.026.079-.053.12-.08.056-.036.114-.072.165-.11.046-.034.087-.068.13-.102.048-.04.097-.078.142-.118l.028-.024c.019-.016.031-.034.049-.051a2.58794,2.58794,0,0,0,.195-.211c.013-.015.03-.03.043-.046s.019-.031.032-.046c.04-.054.076-.108.109-.162.013-.023.032-.045.045-.068l.016-.034c.026-.048.046-.095.067-.144.013-.028.029-.056.04-.084l.008-.029c.017-.046.028-.092.04-.138.008-.031.02-.062.026-.093l.004-.025c.008-.048.011-.097.016-.145.003-.032.01-.063.011-.095v-.041l.012-2.129C396.63,497.859,396.622,497.904,396.618,497.949Z" transform="translate(-0.62085 0)"/><path class="cls-24" d="M389.784,496.583a.64362.64362,0,0,1,.003,1.217l-50.471,29.33a2.31361,2.31361,0,0,1-2.1.002l-33.434-19.303a.64442.64442,0,0,1-.007-1.219l50.471-29.33a2.322,2.322,0,0,1,2.104,0Z" transform="translate(-0.62085 0)"/><path class="cls-18" d="M142.078,320.781l74.497,43.292,52.402-30.255-74.495-43.292Z" transform="translate(-0.62085 0)"/><path class="cls-20" d="M205.394,310.007l-11.72,6.81-14.842-4.372c4.143-4.74,14.146-6.625,22.343-4.209A18.455,18.455,0,0,1,205.394,310.007Z" transform="translate(-0.62085 0)"/><path class="cls-25" d="M208.082,310.892c7.878,4.548,7.917,11.922.091,16.47a31.33144,31.33144,0,0,1-28.433,0c-6.302-3.638-7.782-8.937-3.774-13.522l17.944,5.288Z" transform="translate(-0.62085 0)"/><path class="cls-2" d="M197.304,343.263c-.653.377-.656.977-.007,1.354a2.556,2.556,0,0,0,2.338,0l33.254-19.199c.654-.378.657-.978.008-1.355a2.556,2.556,0,0,0-2.338,0Z" transform="translate(-0.62085 0)"/><path class="cls-21" d="M220.28,334.438a.71687.71687,0,0,0-.349.26.7184.7184,0,0,0-.004.83.71388.71388,0,0,0,.346.264,2.60137,2.60137,0,0,0,2.35.007l14.112-8.148a.71807.71807,0,0,0,.35-1.1.72112.72112,0,0,0-.354-.261,2.58027,2.58027,0,0,0-2.338,0Z" transform="translate(-0.62085 0)"/><path class="cls-25" d="M215.903,341.126c-.653.377-.668.985-.019,1.362a2.58693,2.58693,0,0,0,2.351-.007l22.081-12.749c.653-.377.657-.977.008-1.355a2.56394,2.56394,0,0,0-2.338,0Z" transform="translate(-0.62085 0)"/><path class="cls-26" d="M261.886,454.221l-.013,4.474-10.323,5.999.013-4.475Z" transform="translate(-0.62085 0)"/><path class="cls-27" d="M251.563,460.219l-.013,4.475-87.763-50.669.013-4.477Z" transform="translate(-0.62085 0)"/><path class="cls-28" d="M261.886,454.221l-10.323,5.999L163.8,409.549l10.323-5.999Z" transform="translate(-0.62085 0)"/><path class="cls-29" d="M222.879,455.083l-.014,4.476-10.315,5.995.013-4.477Z" transform="translate(-0.62085 0)"/><path class="cls-30" d="M212.564,461.077l-.014,4.476L143.61,425.75l.014-4.476Z" transform="translate(-0.62085 0)"/><path class="cls-31" d="M222.879,455.082l-10.316,5.995-68.94-39.803,10.315-5.993Z" transform="translate(-0.62085 0)"/><path class="cls-32" d="M165.302,445.223l-.013,4.476-10.316,5.995.014-4.477Z" transform="translate(-0.62085 0)"/><path class="cls-33" d="M154.986,451.218l-.013,4.476L123.427,437.48l.012-4.476Z" transform="translate(-0.62085 0)"/><path class="cls-34" d="M165.302,445.223l-10.316,5.994-31.547-18.214,10.315-5.993Z" transform="translate(-0.62085 0)"/><path class="cls-2" d="M95.6746,420.504c-1.0293.594-1.0345,1.54-.0118,2.135a4.03,4.03,0,0,0,3.6855,0L151.766,392.376c1.029-.595,1.035-1.541.012-2.135a4.031,4.031,0,0,0-3.686,0Z" transform="translate(-0.62085 0)"/><path class="cls-2" d="M131.889,406.594a1.13218,1.13218,0,0,0-.012,2.135,4.10728,4.10728,0,0,0,3.705.011l22.244-12.843a1.13263,1.13263,0,0,0-.007-2.146,4.07149,4.07149,0,0,0-3.686,0Z" transform="translate(-0.62085 0)"/><path class="cls-2" d="M124.99,417.136c-1.029.595-1.054,1.552-.031,2.145a4.07047,4.07047,0,0,0,3.705-.01l34.806-20.095c1.029-.594,1.034-1.54.012-2.134a4.031,4.031,0,0,0-3.686,0Z" transform="translate(-0.62085 0)"/><path class="cls-35" d="M121.846,368.653l-8.33,4.841a30.06159,30.06159,0,0,0-26.7985.219c-.1519.088-.2943.179-.4407.27l-8.3862-4.842c.1481-.09.2944-.179.4461-.267C90.2911,361.927,109.656,361.854,121.846,368.653Z" transform="translate(-0.62085 0)"/><path class="cls-35" d="M123.129,369.411c9.896,6.196,10.92,15.428,3.043,22.222l-8.644-4.991c3.467-3.972,2.552-8.902-2.74-12.384Z" transform="translate(-0.62085 0)"/><path class="cls-36" d="M125.094,392.506a26.64316,26.64316,0,0,1-2.711,1.799c-11.782,6.847-30.758,7.017-42.9738.514l8.3388-4.847a30.17966,30.17966,0,0,0,26.256-.505,15.08436,15.08436,0,0,0,2.584-1.872Z" transform="translate(-0.62085 0)"/><path class="cls-36" d="M85.0891,374.793c-5.691,4.286-5.2392,10.428,1.3351,14.444l-8.33,4.841c-11.1999-6.695-11.69-17.165-1.4315-24.151Z" transform="translate(-0.62085 0)"/><path class="cls-7" d="M286.862,144.948a15.26719,15.26719,0,0,1,6.918,11.982l-.076,66.992c-.012,4.397-3.136,6.177-6.963,3.968l-18.682-10.786-.908,1.267-3.645,5.131-3.616-9.323-.898-2.311L240.31,201.082a15.23707,15.23707,0,0,1-6.906-11.975l.075-66.992c.013-4.397,3.125-6.184,6.951-3.975Z" transform="translate(-0.62085 0)"/><path class="cls-18" d="M254.473,145.668l-.005,1.885a1.44348,1.44348,0,0,1-2.168,1.245l-8.892-5.159a1.43588,1.43588,0,0,1-.528-.53,1.45367,1.45367,0,0,1-.192-.723l.006-1.885a1.44348,1.44348,0,0,1,2.168-1.245l8.892,5.159a1.44066,1.44066,0,0,1,.719,1.253Z" transform="translate(-0.62085 0)"/><path class="cls-2" d="M282.602,171.277l-.005,1.889a1.4446,1.4446,0,0,1-2.166,1.247l-37.047-21.39a1.44055,1.44055,0,0,1-.722-1.254l.006-1.89a1.44328,1.44328,0,0,1,1.445-1.439,1.45013,1.45013,0,0,1,.721.193l37.047,21.39a1.44241,1.44241,0,0,1,.721,1.254Z" transform="translate(-0.62085 0)"/><path class="cls-18" d="M252.227,170.539l-.006,2.161-5.017,17.13-2.149-1.242,4.997-17.094-6.551-3.781.005-2.21Z" transform="translate(-0.62085 0)"/><path class="cls-18" d="M262.416,176.42l-.007,2.209-5.662-3.269-.329,6.636c.623-.854,1.576-.922,2.878-.171a7.91759,7.91759,0,0,1,3.56,7.311l-.013,4.322c-.009,3.396-1.421,4.793-4.355,3.098a8.88913,8.88913,0,0,1-4.324-8.109l.004-1.472,2.026,1.169-.005,1.638a4.83258,4.83258,0,0,0,2.243,4.506c1.53.883,2.256.09,2.262-1.905l.012-4.297a4.86173,4.86173,0,0,0-2.243-4.507c-1.177-.68-1.986-.385-2.177,1.122l-.001.499-2.025-1.169.572-11.99Z" transform="translate(-0.62085 0)"/><path class="cls-18" d="M277.064,193.06a5.61346,5.61346,0,0,1,2.739,5.125l-.019,6.957c-.006,2.161-.857,3.097-2.759,1.999a5.70442,5.70442,0,0,1-2.759-5.184l.019-6.957C274.292,192.885,275.184,191.974,277.064,193.06Zm1.334,11.425.021-7.195a2.995,2.995,0,0,0-1.359-2.782c-.971-.561-1.385-.016-1.39,1.196l-.02,7.195a3.06088,3.06088,0,0,0,1.379,2.817C277.979,206.265,278.395,205.672,278.398,204.485Z" transform="translate(-0.62085 0)"/><path class="cls-18" d="M270.341,191.461c-.006,2.137-.898,3.049-2.779,1.964a5.68326,5.68326,0,0,1-2.738-5.149l.02-7.005c.006-2.113.899-3.048,2.758-1.974a5.71456,5.71456,0,0,1,2.759,5.161Zm-1.385-.68.02-7.219a3.06091,3.06091,0,0,0-1.379-2.817c-.992-.573-1.366.043-1.369,1.23l-.021,7.219a2.9378,2.9378,0,0,0,1.359,2.782C268.537,192.537,268.952,191.993,268.956,190.781Z" transform="translate(-0.62085 0)"/><path class="cls-18" d="M275.434,183.937l1.282.739-7.647,17.775-1.302-.751Z" transform="translate(-0.62085 0)"/><path class="cls-2" d="M371.544,283.855c22.161,12.795,22.303,33.543.287,46.337-22.016,12.795-57.862,12.795-80.022,0-22.16-12.794-22.251-33.542-.235-46.337C313.59,271.061,349.384,271.061,371.544,283.855Z" transform="translate(-0.62085 0)"/><path class="cls-37" d="M372.067,270.148l-.025,8.147-14.083,8.186.023-8.148Z" transform="translate(-0.62085 0)"/><path class="cls-37" d="M315.417,284.078c.097-.038.19-.08.288-.118.787-.3,1.597-.57,2.416-.828.567-.179,1.148-.335,1.728-.494.442-.12.879-.248,1.327-.357.61-.148,1.233-.27,1.854-.396.456-.092.904-.196,1.363-.277.188-.032.378-.059.567-.09q1.158-.19053,2.333-.33c.228-.027.452-.057.68-.081q1.359-.147,2.732-.228c.169-.01.338-.017.507-.026.614-.03,1.23-.039,1.846-.051.616-.011,1.23-.016,1.845-.008.514.006,1.027.022,1.541.042q.8535.03451,1.706.092.777.054,1.554.129.843.08249,1.68.188.756.096,1.505.213c.599.093,1.192.197,1.783.31.62.118,1.24.235,1.85.374.146.034.293.065.438.099.858.205,1.702.434,2.534.681.239.07.474.146.71.22q1.038.327,2.044.698c.195.072.393.14.586.215.61.235,1.196.497,1.785.757.289.129.588.246.872.38.848.403,1.674.83,2.467,1.288l.024-9.501c-.794-.458-1.62-.885-2.468-1.288-.282-.133-.579-.25-.866-.377-.503-.224-.999-.456-1.518-.662-.089-.035-.182-.064-.271-.099-.193-.074-.39-.141-.585-.213q-1.00648-.372-2.046-.699c-.236-.074-.47-.15-.708-.22-.16-.048-.315-.102-.476-.148-.677-.193-1.365-.367-2.059-.533-.145-.034-.293-.065-.439-.099-.337-.076-.671-.158-1.012-.228-.275-.057-.56-.093-.837-.145-.591-.113-1.184-.217-1.783-.31-.24-.038-.475-.091-.715-.125-.261-.038-.528-.055-.79-.088q-.83848-.10649-1.68-.188c-.269-.026-.532-.067-.802-.089-.25-.021-.502-.024-.753-.041-.568-.039-1.135-.069-1.705-.091-.285-.011-.57-.038-.856-.046-.228-.006-.457.006-.685.003-.616-.008-1.23-.003-1.845.009-.306.006-.612-.006-.917.004-.31.011-.619.031-.93.047-.169.008-.338.015-.507.025-.768.046-1.533.101-2.295.177-.146.014-.291.036-.437.052-.227.024-.453.054-.68.081q-1.173.141-2.33.33c-.19.031-.381.057-.569.091-.091.016-.184.027-.274.043-.367.067-.72.159-1.082.232-.624.126-1.248.25-1.861.398-.447.108-.882.236-1.322.356-.582.158-1.164.315-1.733.494-.122.038-.25.067-.372.106q-1.0395.3375-2.043.722c-.098.038-.191.079-.288.117q-1.10247.43052-2.153.919-.312.1425-.618.292c-.778.376-1.541.768-2.27,1.191q-.207.1215-.411.243c-.127.076-.244.156-.368.233-.206.129-.412.257-.612.388-.182.119-.358.24-.535.362-.193.133-.384.266-.569.401-.171.123-.335.249-.499.374-.179.137-.356.274-.528.413-.158.128-.311.256-.463.386-.165.14-.328.281-.486.424-.065.058-.135.115-.199.173-.059.055-.11.112-.168.167q-.39749.375-.762.758c-.082.086-.167.171-.247.258q-.462.50253-.873,1.018l-.037.043c-.062.079-.114.16-.175.24-.163.216-.324.432-.474.65-.083.12-.158.242-.237.363-.127.197-.251.395-.367.594-.032.055-.07.109-.101.163-.046.082-.082.164-.126.245-.091.168-.179.337-.261.506q-.1035.21148-.198.423c-.076.171-.147.341-.215.512-.03.076-.068.152-.095.228-.026.068-.044.137-.068.206q-.0855.243-.162.488c-.046.148-.09.295-.13.443-.044.164-.082.328-.119.492-.019.088-.047.176-.065.265-.012.06-.017.12-.028.18-.031.168-.056.336-.079.504-.021.147-.041.294-.056.442-.017.169-.027.339-.036.508-.006.099-.019.198-.022.297-.002.099-.004,1.552-.004,1.651l-.023,8.146c0-.198.015-.395.026-.593.009-.169.019-.339.036-.508.015-.148.035-.295.056-.443.023-.167.048-.335.079-.502.027-.149.059-.298.093-.446.036-.164.076-.328.119-.491.04-.148.084-.297.13-.445.051-.162.104-.324.161-.485.052-.146.107-.291.165-.437.068-.17.139-.34.215-.509q.09453-.213.198-.425c.082-.169.171-.337.261-.505.073-.137.148-.273.227-.408.117-.2.241-.399.369-.596.078-.121.153-.241.235-.361.15-.218.311-.434.475-.65.071-.095.138-.19.212-.285.272-.343.565-.683.873-1.018.08-.086.165-.171.247-.256q.366-.384.762-.759c.121-.114.243-.228.368-.342.157-.142.32-.282.484-.422.152-.13.307-.26.466-.388.17-.139.347-.275.526-.412.164-.125.329-.251.5-.375.185-.134.376-.267.568-.4.177-.121.355-.243.538-.363.199-.131.404-.259.611-.387.257-.16.51-.32.778-.476.729-.424,1.493-.816,2.271-1.192.203-.099.409-.195.615-.291C313.966,284.673,314.682,284.365,315.417,284.078Z" transform="translate(-0.62085 0)"/><path class="cls-37" d="M310.554,305.896l-.023,8.146-14.085,8.185.023-8.147Z" transform="translate(-0.62085 0)"/><path class="cls-37" d="M296.469,314.08l-.023,8.146c-10.575-6.105-15.855-14.118-15.833-22.118l.023-8.146C280.614,299.962,285.894,307.975,296.469,314.08Z" transform="translate(-0.62085 0)"/><path class="cls-19" d="M372.065,270.149l-14.085,8.185c-13.182-7.61-34.486-7.61-47.582,0s-13.026,19.951.155,27.561l-14.085,8.186c-21.017-12.134-21.121-31.802-.247-43.932S351.049,258.015,372.065,270.149Z" transform="translate(-0.62085 0)"/><path class="cls-38" d="M357.981,280.828l-.023,5.652c6.629,3.827,9.941,8.853,9.926,13.872l.024-8.146C367.922,287.187,364.611,284.655,357.981,280.828Z" transform="translate(-0.62085 0)"/><path class="cls-38" d="M371.888,316.806l-.023,5.653-14.177-8.186.023-5.653Z" transform="translate(-0.62085 0)"/><path class="cls-38" d="M387.851,293.206c-.014.27-.03.541-.056.811-.024.234-.056.469-.089.702-.038.269-.076.537-.127.805-.043.236-.094.472-.147.708-.059.262-.121.523-.191.784-.064.236-.134.472-.207.707-.081.26-.165.519-.257.777-.083.232-.171.462-.262.693-.108.272-.222.542-.342.812-.101.227-.207.453-.316.679q-.198.40351-.416.804c-.117.217-.236.434-.36.649-.186.32-.385.637-.589.953-.123.191-.243.383-.373.573-.239.349-.496.694-.758,1.039-.114.15-.219.301-.337.45-.434.548-.9,1.088-1.392,1.623-.126.138-.263.273-.393.41q-.582.61052-1.215,1.208c-.193.182-.386.364-.585.544-.252.228-.512.452-.775.676-.242.206-.486.412-.738.615-.274.221-.556.44-.841.658-.262.2-.525.4-.798.597-.295.215-.6.427-.907.638-.281.194-.564.388-.855.579-.317.209-.645.413-.974.617-.41.255-.815.511-1.242.759-.14.081-.279.155-.418.236l-.023,8.146c.14-.081.279-.155.418-.236q.33-.192.654-.387c.202-.121.388-.248.585-.37.33-.205.659-.411.978-.62.29-.19.571-.383.852-.576.308-.212.614-.425.911-.64.271-.197.534-.397.795-.597.285-.218.568-.436.841-.658.252-.203.496-.408.739-.615.263-.224.522-.449.774-.676.104-.093.216-.183.318-.277.095-.087.175-.179.268-.267q.633-.597,1.214-1.208c.131-.137.267-.272.394-.41q.738-.801,1.391-1.623c.019-.023.041-.046.06-.069.099-.126.182-.255.278-.381.262-.345.518-.69.757-1.038.131-.19.251-.383.375-.575.204-.316.402-.632.588-.951.051-.087.112-.172.161-.26.073-.129.131-.261.202-.391.143-.266.283-.534.414-.802q.165-.339.317-.681c.121-.269.234-.54.342-.811.048-.121.108-.242.153-.364.041-.109.07-.219.109-.329.092-.258.176-.516.257-.775.073-.237.144-.473.207-.71q.105-.39.19-.782c.032-.141.075-.282.103-.423.019-.095.028-.19.045-.285.049-.267.089-.535.126-.803.033-.235.066-.47.089-.705.027-.27.043-.539.057-.808.009-.159.03-.317.034-.475s.007-.314.008-.471l.023-8.146C387.892,292.576,387.869,292.891,387.851,293.206Z" transform="translate(-0.62085 0)"/><path class="cls-7" d="M372.066,272.643c21.011,12.13,21.115,31.797.241,43.927-.139.082-.278.155-.417.236l-14.177-8.185c.139-.081.279-.154.418-.236,13.096-7.61,13.026-19.95-.149-27.557Z" transform="translate(-0.62085 0)"/><path class="cls-39" d="M363.924,326.174q.879-.3375,1.739-.699c.343-.143.687-.286,1.026-.434.608-.268,1.205-.548,1.797-.833.283-.135.57-.265.849-.405.86-.431,1.707-.876,2.53-1.345l.023-1.816c-.823.468-1.669.913-2.529,1.344-.28.14-.57.271-.853.407-.591.284-1.187.564-1.794.83-.338.149-.683.292-1.026.436q-.861.36-1.739.699c-.359.137-.72.273-1.082.405q-.9.32849-1.819.631c-.385.128-.767.259-1.156.381-.293.091-.589.179-.885.268q-.8085.24151-1.628.467c-.304.084-.608.167-.914.247-.577.151-1.159.293-1.743.432-.27.064-.537.13-.808.192-.852.192-1.732.374-2.597.54v1.817c.865-.166,1.723-.349,2.576-.541.269-.061.535-.127.803-.191q.87749-.207,1.746-.432c.307-.08.61-.163.914-.247q.819-.225,1.627-.467c.296-.089.593-.177.886-.269.152-.047.307-.09.458-.138.236-.076.463-.164.698-.242.611-.204,1.218-.412,1.818-.631C363.205,326.448,363.565,326.313,363.924,326.174Z" transform="translate(-0.62085 0)"/><path class="cls-40" d="M371.888,320.641a67.45241,67.45241,0,0,1-20.551,7.279l-6.555-10.951a42.58146,42.58146,0,0,0,12.929-4.513Z" transform="translate(-0.62085 0)"/><path class="cls-28" d="M349.025,326.739c-.538.088-1.073.18-1.614.258-.629.09-1.263.165-1.897.242-.54.066-1.078.137-1.62.193q-1.50453.156-3.019.263c-.09.007-.18.017-.271.023-1.117.075-2.238.125-3.36.159-.284.009-.571.011-.856.017q-1.242.0255-2.484.02c-.343-.002-.686-.005-1.029-.011q-1.374-.02253-2.744-.085c-.174-.008-.349-.011-.523-.02q-1.617-.084-3.226-.228c-.283-.025-.564-.055-.847-.082q-1.245-.12-2.482-.275c-.299-.038-.598-.073-.895-.114-1.069-.144-2.133-.302-3.187-.485l-.023-.003c-1.047-.182-2.083-.39-3.113-.61-.368-.078-.731-.164-1.096-.246q-1.0605-.24151-2.106-.509-.57148-.147-1.138-.301c-.604-.165-1.199-.342-1.793-.52-.546-.164-1.09-.33-1.627-.506-.549-.179-1.09-.368-1.63-.559-.53-.188-1.058-.377-1.578-.576-.791-.303-1.578-.611-2.347-.941-.076-.032-.155-.062-.23-.094-.9-.39-1.779-.804-2.645-1.231-.209-.103-.418-.207-.625-.313-.866-.44-1.721-.892-2.549-1.37l-.023,3.392c.828.478,1.682.93,2.549,1.37.207.106.416.21.625.314.866.426,1.745.84,2.645,1.23.076.033.153.062.228.095.569.244,1.14.484,1.722.713.204.081.418.149.625.228.522.2,1.051.389,1.582.577.538.19,1.077.379,1.624.557.54.176,1.085.342,1.633.508.333.1.657.212.993.308.262.075.531.138.794.21q.56849.156,1.145.303,1.0425.26848,2.1.507c.366.083.731.17,1.099.248.16.034.317.075.478.108q1.308.27,2.634.501l.033.005q1.3065.2265,2.628.414c.182.026.367.045.55.07.298.04.597.076.896.114q1.23747.1545,2.482.275c.283.027.564.057.847.082.145.012.29.03.436.042q1.3905.114,2.788.185c.177.009.354.013.531.021.652.03,1.304.06,1.957.077.26.006.52.003.78.008q.51453.0075,1.03.01,1.242.0075,2.484-.02c.284-.006.571-.008.856-.017.115-.003.23-.002.345-.006q1.51053-.05251,3.016-.153c.091-.006.181-.016.272-.023.888-.062,1.775-.133,2.658-.22.12-.012.238-.03.358-.042.543-.057,1.082-.128,1.622-.194.633-.077,1.267-.152,1.896-.242.541-.078,1.077-.171,1.614-.258.464-.076.931-.139,1.392-.222.308-.056.614-.113.921-.171l.022-3.392C350.573,326.492,349.797,326.613,349.025,326.739Z" transform="translate(-0.62085 0)"/><path class="cls-20" d="M344.783,315.384l6.554,10.952c-18.619,3.577-39.989,1.079-54.868-7.511l14.086-8.185C319.838,316,333.15,317.577,344.783,315.384Z" transform="translate(-0.62085 0)"/><path class="cls-41" d="M375.092,1.84043c-.143-.08226-.286-.16186-.427-.23881q-.276-.14939-.551-.28474c-.182-.09023-.364-.17565-.543-.25627q-.27-.121-.537-.22779-.273-.10915-.542-.20369c-.035-.01233-.069-.022-.103-.03378l-.041-.01329c-.131-.04442-.263-.089-.393-.12814-.186-.05695-.371-.10725-.554-.15319S371.033.214,370.85.17829q-.29548-.05694-.587-.09643c-.132-.01765-.263-.0281-.394-.04025l-.058-.00607c-.048-.004-.097-.01158-.144-.01462Q369.34752-.0009,369.037,0q-.35248.00134-.695.03284a7.50689,7.50689,0,0,0-.772.11181l-.019.00551-.024.00645a6.84371,6.84371,0,0,0-.894.24678,6.41176,6.41176,0,0,0-1.084.50191L356.66,6.07076a6.55884,6.55884,0,0,1,1.976-.74717l.027-.00721a7.95022,7.95022,0,0,1,2.257-.1139l.062.00645a10.81965,10.81965,0,0,1,2.477.54082l.038.01273a15.39929,15.39929,0,0,1,2.704,1.24527L614.497,150.361l8.889-5.165Z" transform="translate(-0.62085 0)"/><path class="cls-42" d="M636.743,167.735c-.007-.215-.017-.432-.031-.649-.013-.218-.031-.436-.052-.653q-.03149-.327-.073-.657-.04194-.336-.095-.674l-.003-.019-.002-.014c-.034-.215-.072-.43-.112-.646q-.066-.348-.143-.699-.07644-.351-.163-.702-.08844-.357-.187-.712-.07654-.276-.161-.551l-.013-.044c-.011-.038-.021-.076-.033-.114q-.10648-.3465-.222-.693-.114-.342-.238-.683c-.079-.219-.162-.438-.247-.655-.085-.218-.173-.435-.262-.651-.069-.167-.141-.332-.213-.498l-.013-.031-.04895-.112c-.096-.218-.195-.434-.295-.65q-.16645-.354-.342-.704-.20106-.4035-.414-.802c-.153-.286-.316-.568-.478-.85-.028-.05-.054-.1-.083-.149-.034-.059-.06494-.119-.1-.178q-.474-.807-.994-1.584-.411-.615-.848-1.209-.2925-.396-.596-.781-.255-.324-.517-.639-.255-.3075-.518-.606c-.172-.196-.345-.388-.521-.578-.035-.038-.071-.073-.106-.111l-.038-.04c-.134-.142-.267-.285-.404-.423q-.279-.285-.564-.558-.29242-.2805-.59-.548c-.199-.179-.397-.353-.596-.521-.101-.085-.202-.165-.304-.247l-.069-.057c-.076-.06-.149-.124-.225-.184-.195-.154-.391-.303-.589-.449-.193-.142-.388-.281-.583-.415q-.28344-.1935-.57-.377c-.188-.12-.378-.236-.568-.348-.044-.026-.088-.051-.133-.077l-8.889,5.166a20.68578,20.68578,0,0,1,2.67,1.851l.066.054a25.81176,25.81176,0,0,1,2.459,2.298l.038.04a31.36971,31.36971,0,0,1,4.199,5.686c.029.05.056.1.084.15a32.197,32.197,0,0,1,1.574,3.114l.017.038a29.8716,29.8716,0,0,1,1.213,3.29l.013.044a25.53549,25.53549,0,0,1,.76495,3.311l.002.013a20.31915,20.31915,0,0,1,.263,3.258l-.481,169.65a15.12113,15.12113,0,0,1-.273,2.887l-.017.083a10.60286,10.60286,0,0,1-.757,2.361l-.019.045a7.7829,7.7829,0,0,1-1.006,1.556c-.123.156-.239.32-.372.462a6.53819,6.53819,0,0,1-1.465,1.207l8.889-5.165a6.59371,6.59371,0,0,0,1.465-1.208c.133-.142.248-.304.372-.46a7.11665,7.11665,0,0,0,.483-.599,8.26529,8.26529,0,0,0,.506-.917l.019-.043.018-.041c.101-.219.198-.443.285-.678q.12744-.342.235-.706c.065-.223.125-.451.178-.685.022-.096.04-.197.06-.295l.016-.082c.019-.094.04-.184.057-.28q.054-.31347.095-.641.039-.318.066-.646c.018-.208.03-.419.04-.633.009-.214.014-.429.015-.649v-.038l.481-169.65C636.751,168.14,636.749,167.938,636.743,167.735Z" transform="translate(-0.62085 0)"/><path class="cls-43" d="M614.499,150.36a29.43938,29.43938,0,0,1,13.364,23.147l-.481,169.649c-.025,8.513-6.043,11.943-13.451,7.666L365.635,207.468a29.43951,29.43951,0,0,1-13.364-23.146l.481-169.65011c.024-8.51267,6.043-11.94231,13.451-7.66528Z" transform="translate(-0.62085 0)"/><path class="cls-7" d="M542.549,80.7978a9.2591,9.2591,0,0,1,4.201,7.2754l-.152,53.32479c-.008,2.676-1.9,3.754-4.228,2.41L464.324,98.7482a9.25436,9.25436,0,0,1-4.2-7.2754l.152-53.3251c.007-2.6766,1.899-3.754,4.228-2.4093Z" transform="translate(-0.62085 0)"/><path class="cls-18" d="M394.803,57.1349l-.007,2.4209a1.85376,1.85376,0,0,1-2.784,1.5984l-11.418-6.625a1.85323,1.85323,0,0,1-.924-1.6092l.007-2.4209a1.85456,1.85456,0,0,1,2.785-1.5985l11.417,6.625a1.853,1.853,0,0,1,.924,1.6093Z" transform="translate(-0.62085 0)"/><path class="cls-44" d="M430.922,90.0202l-.007,2.4258a1.85372,1.85372,0,0,1-2.781,1.6004L380.563,66.5805a1.85338,1.85338,0,0,1-.927-1.6109l.007-2.4258a1.85385,1.85385,0,0,1,2.781-1.6004l47.572,27.4657a1.8562,1.8562,0,0,1,.926,1.6111Z" transform="translate(-0.62085 0)"/><path class="cls-45" d="M372.915,169.292l18.939-9.658,12.386,20.009,13.818,14.055,13.818-8.337,29.539-9.529,13.341,19.058,13.341,10.959,12.149,17.867,16.437-34.543,20.012,9.529,10.482-8.576,21.679,5.717,32.161-2.858" transform="translate(-0.62085 0)"/><path class="cls-46" d="M601.081,175.392c-8.01-4.624-14.545-.9-14.571,8.304s6.467,20.41,14.476,25.034c8.01,4.624,14.51.92,14.53595-8.283a31.87222,31.87222,0,0,0-14.441-25.055Z" transform="translate(-0.62085 0)"/><path class="cls-47" d="M601.046,184.526c-3.621-2.091-6.57605-.407-6.587,3.754a14.41685,14.41685,0,0,0,6.545,11.318c3.622,2.09,6.56.416,6.572-3.745a14.406,14.406,0,0,0-6.53-11.327Z" transform="translate(-0.62085 0)"/><path class="cls-48" d="M395.803,88.4838v2.4968a1.91228,1.91228,0,0,1-2.866,1.6577l-11.799-6.7971a1.91294,1.91294,0,0,1-.958-1.6567V81.6881a1.91308,1.91308,0,0,1,2.867-1.658l11.798,6.7959a1.91552,1.91552,0,0,1,.958,1.6578Z" transform="translate(-0.62085 0)"/><path class="cls-48" d="M433.164,122.29v2.502a1.91318,1.91318,0,0,1-2.864,1.66L381.143,98.2719a1.91344,1.91344,0,0,1-.961-1.6582V94.1112a1.9121,1.9121,0,0,1,2.863-1.6601l49.157,28.1799a1.91159,1.91159,0,0,1,.962,1.659Z" transform="translate(-0.62085 0)"/><g class="cls-49"><path class="cls-48" d="M412.904,135.535v2.502a1.911,1.911,0,0,1-2.863,1.659L381.15,123.135a1.91346,1.91346,0,0,1-.961-1.659v-2.502a1.91238,1.91238,0,0,1,2.863-1.66l28.89,16.562a1.91156,1.91156,0,0,1,.962,1.659Z" transform="translate(-0.62085 0)"/></g><path class="cls-48" d="M425.544,130.352v2.502a1.91317,1.91317,0,0,1-2.864,1.659l-41.534-23.81a1.91344,1.91344,0,0,1-.961-1.658l-.001-2.503a1.91181,1.91181,0,0,1,2.864-1.659l41.534,23.81a1.91169,1.91169,0,0,1,.962,1.659Z" transform="translate(-0.62085 0)"/><path class="cls-50" d="M565.412,300l6.702-3.895-.129,45.502-6.703,3.895Z" transform="translate(-0.62085 0)"/><path class="cls-51" d="M579.096,298.785v-.054l-.003-.055-.005-.056-.005-.056-.009-.057-.00994-.057-.012-.059-.003-.013v-.004l-.009-.043-.017-.06-.017-.061-.019-.061-.02-.057-.022-.059-.024-.058-.026-.06-.027-.06-.029-.06-20.867-41.54-.027-.051c-.018-.034-.037-.067-.057-.101q-.04953-.0825-.102-.162c-.022-.032-.044-.063-.067-.095l-.05-.064-.045-.057-.045-.052-.024-.027-.002-.003-.019-.021-.048-.05-.05005-.05-.053-.049-.053-.046-.053-.044-.052-.04-.052-.036-.05-.033-.05-.031-.011-.006-.038-.021-.048-.025-.048-.023-.048-.019-.048-.019-.048-.016-.049-.014-.049-.01-.051-.009-.019-.002h-.002l-.031-.003c-.019,0-.038-.002-.056-.002l-.06.003c-.022.002-.044.005-.067.009a.81327.81327,0,0,0-.08105.022.79351.79351,0,0,0-.098.045l-6.702,3.895a.63326.63326,0,0,1,.391-.074h.003a1.14713,1.14713,0,0,1,.446.158,2.06575,2.06575,0,0,1,.492.406l.002.003a2.77523,2.77523,0,0,1,.416.608l20.864,41.537a2.57608,2.57608,0,0,1,.212.583v.002a1.73412,1.73412,0,0,1,.043.508v.002a1.02643,1.02643,0,0,1-.105.395l-.005.008a.62748.62748,0,0,1-.234.253l6.703-3.895a.617.617,0,0,0,.203-.197.59608.59608,0,0,0,.03-.056l.005-.008.012-.019c.011-.024.021-.048.03-.073l.021-.062.01606-.063.012-.057.008-.059.006-.054v-.011l.003-.044Z" transform="translate(-0.62085 0)"/><path class="cls-52" d="M550.359,259.132a2.472,2.472,0,0,1,.91,1.018l20.864,41.536c.617,1.236.067,2.233-.917,1.665L565.413,300l-.13,45.501-30.479-17.597.129-45.502-5.61-3.238c-.996-.576-1.538-2.202-.905-2.717L549.449,259.099a.79348.79348,0,0,1,.91.033Z" transform="translate(-0.62085 0)"/><path class="cls-18" d="M334.03,356.144l60.297,61.548,58.562-15.226-60.297-61.548Z" transform="translate(-0.62085 0)"/><path class="cls-3" d="M398.771,359.915l-5.773,2.183a19.26079,19.26079,0,0,0-16.958-2.68c-.105.04-.205.082-.307.124l-4.79-3.941c.103-.042.205-.083.31-.122a31.05223,31.05223,0,0,1,27.518,4.436Z" transform="translate(-0.62085 0)"/><path class="cls-3" d="M399.503,360.529c5.602,4.956,5.277,10.898-.414,14.363l-4.938-4.062c2.609-2.145,2.549-5.357-.428-8.114Z" transform="translate(-0.62085 0)"/><path class="cls-36" d="M398.315,375.33a16.94448,16.94448,0,0,1-1.902.852c-8.165,3.088-20.175,1.199-27.211-4.195l5.779-2.186a19.33063,19.33063,0,0,0,16.646,2.442,9.64034,9.64034,0,0,0,1.83-.911Z" transform="translate(-0.62085 0)"/><path class="cls-36" d="M374.899,359.929c-4.048,2.111-4.408,6.04-.676,9.269l-5.773,2.183c-6.373-5.409-5.582-12.077,1.635-15.413Z" transform="translate(-0.62085 0)"/><path class="cls-17" d="M392.787,660.582s-4.728,3.251-.295,10.934c4.432,7.684,8.274,2.955,18.32,10.638,10.047,7.683,13.592,9.16,18.911,8.569,5.32-.591,8.57-3.25,9.456-6.205.887-2.955-1.773-7.978-1.773-7.978Z" transform="translate(-0.62085 0)"/><path class="cls-16" d="M435.338,660.878s2.069,10.047,3.251,17.73c.295,3.546-4.433,8.371-11.229,8.077-6.796-.295-10.638-2.364-13.002-5.319-2.363-2.955-17.138-8.668-19.797-11.03205-2.66-2.364-3.251-9.456-2.069-11.229a8.92,8.92,0,0,1,10.342-2.659c4.727,2.069,8.569,5.91,18.025,6.501C430.314,663.538,435.338,660.878,435.338,660.878Z" transform="translate(-0.62085 0)"/><path class="cls-17" d="M439.673,634.973s-4.728,3.25-.296,10.933,8.274,2.955,18.32,10.638c10.047,7.683,13.592,9.16,18.912,8.569s8.569-3.25,9.456-6.205c.886-2.955-1.773-7.978-1.773-7.978Z" transform="translate(-0.62085 0)"/><path class="cls-16" d="M482.223,635.269s2.069,10.046,3.25,17.73c.296,3.546-4.432,8.371-11.228,8.077-6.797-.295-10.638-2.364-13.002-5.319-2.364-2.955-17.138-8.668-19.798-11.032-2.659-2.364-3.25-9.456-2.069-11.229a8.92,8.92,0,0,1,10.342-2.659c4.728,2.069,8.57,5.91,18.025,6.501C477.199,637.929,482.223,635.269,482.223,635.269Z" transform="translate(-0.62085 0)"/><path class="cls-53" d="M445.483,553.516c2.364,18.911,11.819,68.554,13.395,85.889,0,0,3.94,6.30395,15.76,4.728l5.61-2.337a5.43917,5.43917,0,0,0,3.314-5.693c-1.189-9.56-3.862-33.632-2.62-47.916,1.576-18.123-3.151-29.155-3.151-29.155.394-5.91,1.182-26.397-10.637-31.913C467.154,527.119,438.194,521.8,445.483,553.516Z" transform="translate(-0.62085 0)"/><path class="cls-54" d="M469.517,535.787l-3.151,6.304s-48.461,2.364-61.462,16.547c0,0-8.668,1.576-6.304,20.488,2.364,18.911,11.819,68.553,13.395,85.889,0,0,3.94,6.304,15.76,4.728l5.61-2.33795a5.43724,5.43724,0,0,0,3.314-5.693c-1.189-9.559-3.862-33.632-2.62-47.916,1.576-18.12305-3.151-29.155-3.151-29.155a247.64438,247.64438,0,0,1,44.126,13.396c22.852,9.456,42.551-1.576,51.219-6.304a56.48651,56.48651,0,0,0,11.82-7.87994,36.02985,36.02985,0,0,0,21.275-8.66706c10.243-8.668,11.819-31.519.788-44.915C549.104,516.876,469.517,535.787,469.517,535.787Z" transform="translate(-0.62085 0)"/><path class="cls-55" d="M486.853,416.015s7.83-2.903,7.315-13.363c-2.377-10.301-5.249-10.994-5.249-10.994s10.954-10.123,24.167-6.933c0,0,8.162,16.561,17.393,23.652C530.479,408.377,523.1,427.834,486.853,416.015Z" transform="translate(-0.62085 0)"/><path class="cls-39" d="M503.991,421.925s28.958-24.23,34.868-24.821c7.091-.591,15.956,1.773,18.32,11.819a18.55544,18.55544,0,0,1-8.274,20.685c-5.319,2.955-52.006,25.412-60.28,25.412s-13.592-7.092-8.274-15.957C485.669,430.199,503.991,421.925,503.991,421.925Z" transform="translate(-0.62085 0)"/><path class="cls-40" d="M512.856,405.771s-30.731,10.244-39.399,24.427c-8.668,14.184-7.092,29.943-.788,52.006,6.304,22.064-6.304,41.763-3.151,53.583s25.215,22.851,57.522,17.335,34.671-18.123,37.036-25.215c2.364-7.092-6.304-40.975,1.575-68.554,7.88-27.579-7.88-46.49-14.183-51.218C545.164,403.407,532.555,397.103,512.856,405.771Z" transform="translate(-0.62085 0)"/><path class="cls-39" d="M551.466,408.135c-6.304-4.728-18.911-11.032-38.611-2.364,0,0-30.731,10.244-39.399,24.427a39.74915,39.74915,0,0,0-4.563,10.659c12.443-16.175,30.103-23.276,41.598,4.313,10.729,25.748-16.566,101.428-40.414,77.634a29.57587,29.57587,0,0,0-.56,12.983c3.151,11.819,25.215,22.851,57.522,17.335s34.671-18.123,37.036-25.215c2.364-7.092-6.304-40.975,1.575-68.554C573.53,431.774,557.77,412.863,551.466,408.135Z" transform="translate(-0.62085 0)"/><path class="cls-18" d="M483.503,419.167s8.274,5.318,28.958,2.364c20.685-2.955,21.866-17.73,20.094-18.912a38.5027,38.5027,0,0,1-5.319-5.91s-21.866,10.047-29.549,13.002-11.82,4.728-11.82,4.728Z" transform="translate(-0.62085 0)"/><path class="cls-56" d="M469.91,354.75s-1.772,21.275,9.456,35.459c11.229,14.183,22.457,5.909,29.549,2.363s10.047-9.455,12.411-26.594c2.364-17.138,2.364-33.686-10.047-39.004-12.411-5.319-26.003-6.501-33.686,6.5C469.911,346.476,469.91,354.75,469.91,354.75Z" transform="translate(-0.62085 0)"/><path class="cls-57" d="M478.184,329.337s-10.047,7.683-9.456,18.912-2.955,13.001-1.773,18.911,10.638,7.683,11.229,15.957,13.001,11.228,19.502,13.591c6.501,2.364,17.139-5.318,20.094-9.455,2.954-4.137,2.364-14.775,5.909-24.23,3.546-9.456,1.773-21.276-1.182-29.549-2.954-8.274-8.864-10.047-8.864-10.047a14.41075,14.41075,0,0,0-10.047-7.683C496.504,314.563,474.638,315.745,478.184,329.337Z" transform="translate(-0.62085 0)"/><path class="cls-2" d="M572.894,678.807c-1.072,11.924-12.294,20.022-22.418,24.385a86.04507,86.04507,0,0,1-35.112,6.514,83.55012,83.55012,0,0,1-35.687-7.909c-9.607-4.727-19.804-13.303-19.771-24.966-.024,8.492.571,15.511,6.691,22.141,7.879,8.537,19.742,13.134,30.9,15.438,21.771,4.494,51.413,2.322,67.951-14.437,6.653-6.743,7.562-13.851,7.587-22.819Q573.00055,677.98346,572.894,678.807Z" transform="translate(-0.62085 0)"/><path class="cls-3" d="M556.324,653.809c22.161,12.795,22.303,33.543.28705,46.337-22.017,12.795-57.862,12.795-80.022,0-22.16-12.794-22.252-33.542-.235-46.337C498.37,641.015,534.164,641.015,556.324,653.809Z" transform="translate(-0.62085 0)"/><path class="cls-4" d="M526.547,627.946l-.141,49.44605-8.648,5.027.138-49.445Z" transform="translate(-0.62085 0)"/><path class="cls-5" d="M517.896,632.974l-.138,49.445-8.708-5.027.141-49.44605Z" transform="translate(-0.62085 0)"/><path class="cls-6" d="M526.547,627.946l-8.651,5.029-8.705-5.029,8.65-5.026Z" transform="translate(-0.62085 0)"/><path class="cls-38" d="M627.392,459.122a10.16992,10.16992,0,0,0-13.525-9.242c-28.265,9.915-93.052,33.395-97.214,41.72-3.967,7.933-16.782,52.246-23.092,74.444a10.16735,10.16735,0,0,1-14.959,5.965l-39.156-23.092a10.18127,10.18127,0,0,0-15.215,10.444l6.287,37.72095a10.17322,10.17322,0,0,0,4.971,7.15405l41.897,24.069a80.56962,80.56962,0,0,0,76.162,2.202l32.298-16.15a80.56173,80.56173,0,0,0,44.482-75.006Z" transform="translate(-0.62085 0)"/><path class="cls-7" d="M516.653,491.6c-3.967,7.933-16.782,52.245-23.092,74.444a10.16735,10.16735,0,0,1-14.959,5.965l-39.156-23.092a10.18127,10.18127,0,0,0-15.215,10.444l6.287,37.72095a10.07447,10.07447,0,0,0,.797,2.505q.747,1.18056,1.513,2.35a10.11823,10.11823,0,0,0,2.661,2.299l41.897,24.068a80.47859,80.47859,0,0,0,28.338,9.82995c33.984-26.37,29.701-136.442,17.376-145.686a16.97167,16.97167,0,0,0-4.853-2.681A6.63225,6.63225,0,0,0,516.653,491.6Z" transform="translate(-0.62085 0)"/><path class="cls-40" d="M440.953,458.171s28.958-24.23,34.867-24.821c7.092-.591,15.957,1.773,18.321,11.82a18.55313,18.55313,0,0,1-8.274,20.684c-5.319,2.955-52.006,25.412-60.28,25.412s-13.593-7.091-8.274-15.956S440.953,458.171,440.953,458.171Z" transform="translate(-0.62085 0)"/><path class="cls-56" d="M400.175,419.758a21.27021,21.27021,0,0,1-1.773-5.024c-.295-2.069.887-4.727-.295-9.455s-3.251-8.865-4.137-12.115c-2.364-2.955-4.432,2.364-2.659,6.795,1.773,4.432,1.182,7.092-.591,7.388-1.773.295-9.161-4.137-11.229-6.501-2.069-2.364-13.888-13.888-15.07-12.411-1.182,1.478-1.182,2.955,2.955,7.388,4.137,4.432,5.614,6.5,5.91,7.682a19.53388,19.53388,0,0,0,1.477,5.91c1.478,3.546.296,5.91,2.955,9.16,2.66,3.251,7.683,3.842,10.047,5.91l2.364,2.069Z" transform="translate(-0.62085 0)"/><path class="cls-40" d="M425.587,491.266s-12.41,2.364-19.108-11.425c-6.698-13.79-18.124-50.825-19.699-54.371a14.9262,14.9262,0,0,1,13.789-8.273s11.032,21.669,17.335,31.519C424.208,458.565,446.666,487.326,425.587,491.266Z" transform="translate(-0.62085 0)"/><path class="cls-13" d="M242.953,256.359s3.852-2.451,6.128-1.751a99.38813,99.38813,0,0,0,12.607,2.101c2.451.176,7.353-4.202,8.229-4.902.875-.7,1.4-2.276,2.451-3.327,1.05-1.05,1.575-.875,1.575-2.801s1.926-3.677,2.802-4.552c.875-.876,4.377-2.977,4.027-4.553-.35-1.575-2.101-.7-3.151-.35-1.05.351-5.078,4.027-6.829,5.078a21.81933,21.81933,0,0,1-8.054,2.626,17.31175,17.31175,0,0,1-4.027-.525s-.525,0,1.576-.7a27.75755,27.75755,0,0,1,5.078-.526c1.751-.35,2.626-1.4,2.451-2.276-.175-.875-2.451-.875-3.327-.875a69.10466,69.10466,0,0,1-8.229-.175c-2.101-.35-5.603,3.151-6.302,3.852a16.78443,16.78443,0,0,1-6.302,1.926C241.728,244.804,242.953,256.359,242.953,256.359Z" transform="translate(-0.62085 0)"/><path class="cls-8" d="M167.602,254.483s3.663,12.091,18.987,11.626c15.323-.464,53.431-7.525,57.304-7.775a14.92761,14.92761,0,0,0,.931-16.054s-24.314.281-35.964-.733S161.312,233.983,167.602,254.483Z" transform="translate(-0.62085 0)"/><path class="cls-8" d="M86.4957,278.691s-6.4041-37.211-10.5279-41.485c-5.0252-5.039-13.314-8.972-21.6165-2.84a18.55274,18.55274,0,0,0-7.0736,21.124c2.1437,5.695,23.2136,53.024,29.5223,58.377,6.3088,5.353,14.9528,3.387,16.6324-6.814C95.112,296.851,86.4957,278.691,86.4957,278.691Z" transform="translate(-0.62085 0)"/><path class="cls-13" d="M151.077,298.508s5.023.295,6.796.295c1.772,0,15.365-1.181,17.73-1.181,2.364,0,2.364,2.659,2.364,2.659a18.38005,18.38005,0,0,1,2.363,5.319,14.61034,14.61034,0,0,0,.592,5.023c.591,1.478-.296,2.66-.887,3.841-.591,1.182-2.069,1.773-3.546,2.66a4.77687,4.77687,0,0,1-4.432.295c-1.182-.591-1.182-.886.295-1.772a15.67863,15.67863,0,0,0,2.66-2.07,8.12565,8.12565,0,0,1-4.433,2.07,19.12721,19.12721,0,0,1-9.16-.887l-6.501-3.25-4.728-.591Z" transform="translate(-0.62085 0)"/><path class="cls-8" d="M75.8036,308.853s3.6637,12.091,18.987,11.626c15.3234-.464,53.4314-7.526,57.30339-7.775a14.92529,14.92529,0,0,0,.932-16.054s-24.314.281-35.964-.733S69.5142,288.353,75.8036,308.853Z" transform="translate(-0.62085 0)"/><path class="cls-58" d="M475.60031,65.85683l.047,1.88551,7.145,4.25669-.043-1.8941a.07036.07036,0,0,0-.006-.03519.06041.06041,0,0,0-.024-.027l-7.091-4.21421C475.60928,65.81713,475.5993,65.82724,475.60031,65.85683Z" transform="translate(-0.62085 0)"/><path class="cls-18" d="M514.85827,84.71064l-.004,1.3993a1.0716,1.0716,0,0,1-1.609.92409l-6.6-3.8295a1.06239,1.06239,0,0,1-.391-.3934,1.07556,1.07556,0,0,1-.143-.5367l.004-1.3992a1.06995,1.06995,0,0,1,.539-.9264,1.07071,1.07071,0,0,1,1.071.0027l6.599,3.8284a1.07111,1.07111,0,0,1,.534.93071Z" transform="translate(-0.62085 0)"/><path class="cls-18" d="M535.73529,103.719l-.004,1.402a1.08209,1.08209,0,0,1-.145.535,1.07624,1.07624,0,0,1-.928.533,1.0796,1.0796,0,0,1-.535-.143l-27.496-15.8743a1.07206,1.07206,0,0,1-.536-.9311l.005-1.40209a1.07126,1.07126,0,0,1,1.607-.925l27.496,15.87451a1.07056,1.07056,0,0,1,.536.931Z" transform="translate(-0.62085 0)"/><g class="cls-49"><path class="cls-18" d="M524.35827,111.105l-.004,1.402a1.06074,1.06074,0,0,1-.145.535,1.06975,1.06975,0,0,1-1.462.39l-16.16-9.33a1.05856,1.05856,0,0,1-.393-.393,1.0739,1.0739,0,0,1-.143-.537l.004-1.402a1.07148,1.07148,0,0,1,1.608-.925l16.159,9.33a1.07063,1.07063,0,0,1,.53595.93Z" transform="translate(-0.62085 0)"/></g><path class="cls-31" d="M531.45031,108.222l-.004,1.403a1.07207,1.07207,0,0,1-1.607.925l-23.232-13.413a1.07377,1.07377,0,0,1-.536-.93l.004-1.40271a1.07381,1.07381,0,0,1,.537-.92589,1.071,1.071,0,0,1,1.07.00079l23.233,13.4128a1.07842,1.07842,0,0,1,.392.393A1.05944,1.05944,0,0,1,531.45031,108.222Z" transform="translate(-0.62085 0)"/><path class="cls-58" d="M487.9523,81.18963l-11.176-6.71689.043,1.75769,7.934,4.77961.161,7.45649,1.348.821-.157-7.4627,3.233,1.9476c.029.0177.04.0684.051.1189l2.231,8.6576,1.502.91451-.901-3.51191c-.18-.75489-.409-1.58429-.598-2.34549l-.903-3.5308a1.50218,1.50218,0,0,0,.447.0038.89534.89534,0,0,0,.387-.0915.31842.31842,0,0,0,.086-.0363.14977.14977,0,0,0,.087-.051,1.22159,1.22159,0,0,0,.326-.2468,3.812,3.812,0,0,0,.668-1.78439,7.82466,7.82466,0,0,0-.147-2.6333c-.032-.16761-.073-.29591-.105-.4485a13.29066,13.29066,0,0,0-.619-1.732c-.101-.2237-.203-.43249-.314-.647a6.89159,6.89159,0,0,0-2.788-2.7836l-4.199-2.4944c.022.08639.445.94249.494,1.03119l.746,1.53531c.071.16.05.11869.177.19419l3.144,1.873a4.20889,4.20889,0,0,1,1.348,1.3357,5.3925,5.3925,0,0,1,.403.74369l.113.27411a5.06356,5.06356,0,0,1,.15,3.2676l-.178.3357c-.519.77949-1.143.59589-2.035.0598C488.59729,81.59224,488.28531,81.38954,487.9523,81.18963Z" transform="translate(-0.62085 0)"/><polygon class="cls-58" points="482.452 85.513 475.395 81.227 475.311 66.013 473.856 65.143 473.954 82.173 475.405 83.057 482.493 87.372 482.452 85.513"/><path class="cls-58" d="M502.76629,86.9341a10.72257,10.72257,0,0,0-.768-3.461l-.392-.87579c-.143-.26465-.143-.29486-.317-.57727-.05-.07593-.091-.14429-.142-.21948a6.62193,6.62193,0,0,0-1.203-1.37262,3.36725,3.36725,0,0,0-.401-.32819,9.79926,9.79926,0,0,0-.89105-.5885l-3.862-2.2948c-.00549-.00342-.00433.00781-.00842.00787l-.02155-.01288.00055.03132-.00055-.00135.032,1.77362.00019.00025.121,6.78906-.00018-.00012.158,8.84851,1.45105.8833-.122-7.04761,2.961,1.78443a2.61,2.61,0,0,0,1.706.4049.66925.66925,0,0,0,.128-.04181,1.323,1.323,0,0,0,.54-.29882,1.61047,1.61047,0,0,0,.449-.47358,3.20374,3.20374,0,0,0,.165-.28808l.143-.34552a3.60044,3.60044,0,0,0,.207-.82984,8.35469,8.35469,0,0,0,.074-.99914Zm-1.648.69611a1.23181,1.23181,0,0,1-1.014.96814,2.22671,2.22671,0,0,1-1.341-.49353l-1.035-.62232c-.18805-.11389-.337-.18805-.516-.29559l-.846-.50885-.119-6.75171,2.66492,1.58759a4.49139,4.49139,0,0,1,.5.32769,2.96448,2.96448,0,0,1,.433.40662,3.55123,3.55123,0,0,1,.363.4555c.061.09607.102.15015.152.24018.031.048.051.09021.082.13818a1.30644,1.30644,0,0,0,.071.13294l.062.12616a9.54841,9.54841,0,0,1,.403,1.04632,7.02424,7.02424,0,0,1,.269,1.33893A4.96781,4.96781,0,0,1,501.11828,87.63021Z" transform="translate(-0.62085 0)"/></svg>