<svg width="50" height="50" viewBox="0 0 50 50" fill="none" xmlns="http://www.w3.org/2000/svg">
<path d="M39.5833 22.9166H10.4166C9.26605 22.9166 8.33331 23.8494 8.33331 25C8.33331 26.1506 9.26605 27.0833 10.4166 27.0833H39.5833C40.7339 27.0833 41.6666 26.1506 41.6666 25C41.6666 23.8494 40.7339 22.9166 39.5833 22.9166Z" fill="#0A072B"/>
<path opacity="0.3" d="M27.0833 39.5833L27.0833 10.4166C27.0833 9.26605 26.1506 8.33331 25 8.33331C23.8494 8.33331 22.9166 9.26605 22.9166 10.4166L22.9166 39.5833C22.9166 40.7339 23.8494 41.6666 25 41.6666C26.1506 41.6666 27.0833 40.7339 27.0833 39.5833Z" fill="#0A072B"/>
</svg>
