<svg width="20" height="20" viewBox="0 0 20 20" fill="none" xmlns="http://www.w3.org/2000/svg">
<g clip-path="url(#clip0_936_19822)">
<path fill-rule="evenodd" clip-rule="evenodd" d="M12.5 7.5H10.8334V4.16666H12.5V7.5ZM12.5 12.5V16.6667H10.8334V12.5H12.5ZM4.16669 7.5H1.66669V5C1.66669 4.53976 2.03978 4.16666 2.50002 4.16666H4.16669V7.5ZM4.16669 12.5V16.6667H2.50002C2.03978 16.6667 1.66669 16.2936 1.66669 15.8333V12.5H4.16669ZM15 7.5H13.3334V4.16666H15V7.5ZM15 12.5V16.6667H13.3334V12.5H15ZM18.3334 7.5H16.6667V4.16666H17.5C17.9603 4.16666 18.3334 4.53976 18.3334 5V7.5ZM18.3334 12.5V15.8333C18.3334 16.2936 17.9603 16.6667 17.5 16.6667H16.6667V12.5H18.3334Z" fill="#0A072B"/>
<path opacity="0.3" fill-rule="evenodd" clip-rule="evenodd" d="M7.49998 7.5H5.83331V4.16666H7.49998V7.5ZM7.49998 12.5V16.6667H5.83331V12.5H7.49998Z" fill="#0A072B"/>
<path opacity="0.3" d="M19.1667 9.16666H0.833333C0.373096 9.16666 0 9.53976 0 10C0 10.4602 0.373096 10.8333 0.833333 10.8333H19.1667C19.6269 10.8333 20 10.4602 20 10C20 9.53976 19.6269 9.16666 19.1667 9.16666Z" fill="#0A072B"/>
</g>
<defs>
<clipPath id="clip0_936_19822">
<rect width="20" height="20" fill="white"/>
</clipPath>
</defs>
</svg>
