<svg width="50" height="50" viewBox="0 0 50 50" fill="none" xmlns="http://www.w3.org/2000/svg">
<rect width="50" height="50" fill="#E1E1E1"/>
<path d="M25 25C26.8186 25 28.5628 24.2625 29.8487 22.9497C31.1347 21.637 31.8571 19.8565 31.8571 18C31.8571 16.1435 31.1347 14.363 29.8487 13.0503C28.5628 11.7375 26.8186 11 25 11C23.1814 11 21.4372 11.7375 20.1513 13.0503C18.8653 14.363 18.1429 16.1435 18.1429 18C18.1429 19.8565 18.8653 21.637 20.1513 22.9497C21.4372 24.2625 23.1814 25 25 25ZM22.5518 27.625C17.275 27.625 13 31.9891 13 37.3758C13 38.2727 13.7125 39 14.5911 39H35.4089C36.2875 39 37 38.2727 37 37.3758C37 31.9891 32.725 27.625 27.4482 27.625H22.5518Z" fill="#0A072B"/>
</svg>
